<?xml version="1.0" encoding="utf-8"?>
<!-- Generator: Adobe Illustrator 17.1.0, SVG Export Plug-In . SVG Version: 6.00 Build 0)  -->
<!DOCTYPE svg PUBLIC "-//W3C//DTD SVG 1.1//EN" "http://www.w3.org/Graphics/SVG/1.1/DTD/svg11.dtd">
<svg version="1.1" id="Layer_1" xmlns="http://www.w3.org/2000/svg" xmlns:xlink="http://www.w3.org/1999/xlink" x="0px" y="0px"
	 viewBox="0 0 300 300" enable-background="new 0 0 300 300" xml:space="preserve">
<g>
	<path fill="#F2F2F2" d="M86,148.4C86,148.4,86,148.4,86,148.4C86,148.4,86.1,148.4,86,148.4C86.1,148.4,86.1,148.4,86,148.4z"/>
	<path fill="#F2F2F2" d="M52,109.6C51.9,109.6,51.9,109.6,52,109.6L52,109.6C51.9,109.7,52,109.6,52,109.6z"/>
	<path fill="#F2F2F2" d="M114.5,175.8c0,0-0.1,0.1-0.1,0.1c0,0,0.1,0.1,0.1,0.1c0,0,0.1-0.1,0.1-0.1
		C114.6,175.8,114.5,175.8,114.5,175.8z"/>
	<path fill="#F2F2F2" d="M78.5,153.8C78.5,153.8,78.5,153.8,78.5,153.8C78.5,153.8,78.5,153.8,78.5,153.8
		C78.5,153.8,78.5,153.8,78.5,153.8z"/>
	<path fill="#F2F2F2" d="M70.1,159.8c0,0,0.1,0,0.1-0.1c0.5-0.2,1-0.5,1.3-0.9c0.2-0.2,0.4-0.4,0.5-0.6c0.3-0.4,0.5-0.8,0.6-1.3
		c0-0.1,0-0.3,0.1-0.4c0.1-0.2,0.2-0.3,0.4-0.4c0.4-0.1,0.5,0,0.7,0.3c0.1,0.1,0.1,0.2,0.2,0.4c0.2,0.3,0.1,0.5,0,0.8
		c-0.1,0.1-0.1,0.2-0.2,0.3c-0.1,0.2-0.1,0.4,0,0.6c0.1,0.3,0.4,0.6,0.4,0.9c0,0.3,0.1,0.5,0.1,0.8c0,0.1,0,0.1,0.1,0.2
		c0.1,0.2,0.2,0.3,0.5,0.3c0.7-0.2,1,0.2,1.3,0.6c0.1,0.1,0.1,0.3,0.1,0.4c-0.1,0.3-0.4,0.6-0.4,0.9c0,0.1,0,0.3-0.1,0.3
		c-0.1,0.1-0.3,0-0.4-0.1c0,0-0.1,0-0.2,0c-0.2,0-0.4,0.2-0.3,0.4c0,0.1,0,0.1,0.1,0.2l33.3,24.9c0.3-0.1,0.5-0.2,0.6-0.5
		c0.1-0.1,0.1-0.2,0.2-0.4c0.1-0.2,0.3-0.2,0.5-0.2c0.3,0,0.6-0.2,0.6-0.4c0.1-0.4,0.2-0.8,0-1.2c-0.2-0.4-0.3-0.7,0.1-1.1
		c0.1,0,0.1-0.1,0.1-0.1c0-0.1,0.1-0.1,0.1-0.2c0.2-0.5,0.4-1,0.5-1.5c0.1-0.3,0-0.5-0.1-0.8c0-0.1,0-0.3,0-0.4
		c0.4-0.5,0.5-1.1,0.7-1.7c0.3-1.3,0.5-2.7,1-3.9c0.2-1.1,0.6-2.2,0.7-3.4c0-0.4,0.1-0.8,0.3-1.2c0.2-0.4,0.3-0.9,0.4-1.4
		c0-0.1,0-0.3,0-0.4c0-0.6,0.1-1.1,0.3-1.6c0.1-0.1,0.1-0.3,0.1-0.4c0.2-0.4,0.3-0.9,0.3-1.4c0-0.3,0.1-0.7,0.2-1
		c0.2-0.6,0.4-1.3,0.4-2c0-0.1,0.1-0.3,0.1-0.4c0.3-0.4,0.5-0.8,0.5-1.3c0-0.6,0.2-1.1,0.4-1.6c0.3-0.6,0.4-1.3,0.7-1.9
		c0.4-0.9,0.3-1.9,0.3-2.8c0-0.3-0.1-0.5-0.2-0.8c-0.1-0.4,0-0.7,0.3-0.9c0.1-0.1,0.2-0.1,0.2-0.2L20.1,80.3L0,107.2L70.1,159.8z
		 M114,165.6l0.1,0.1l-0.1,0L114,165.6z M77.3,158.7c-0.1-0.1-0.2-0.2-0.2-0.4c0-0.3,0.2-0.6,0.5-0.8c0.1-0.1,0.2-0.1,0.4-0.1
		c0.1,0.1,0.2,0.2,0.2,0.3c0,0.5-0.3,0.8-0.7,0.9C77.4,158.7,77.3,158.7,77.3,158.7z M79,159.6c-0.1,0.2-0.2,0.4-0.3,0.5
		c-0.1,0.2-0.3,0.3-0.5,0.3c-0.2,0-0.4-0.1-0.6-0.1c0,0,0,0,0,0c0.1,0.1,0.1,0.2,0.2,0.3c-0.1,0.1-0.2,0.1-0.1-0.1
		c0,0,0-0.1-0.1-0.2c0,0,0,0,0,0c0,0,0,0,0,0v0c0,0,0,0,0,0c0.2-0.1,0.3-0.2,0.4-0.4c0-0.2,0-0.4,0-0.6c0-0.1,0.1-0.2,0.2-0.3
		c0.2-0.1,0.4,0,0.6,0.1C79,159.2,79,159.5,79,159.6z M105.5,157.3l0-0.2l0.1,0L105.5,157.3z M111.2,150.4c0.2-0.2,0.4-0.3,0.7-0.4
		c0.1,0,0.1,0,0.2,0c0.1,0,0.1,0,0.2,0.1c0,0,0.1,0.1,0,0.1c-0.2,0.3-0.5,0.6-0.9,0.6c0,0-0.1,0-0.2-0.1
		C111.1,150.6,111,150.5,111.2,150.4z M109.2,166c0.4-0.2,0.8-0.2,1.1-0.5c0.2-0.1,0.4-0.1,0.6-0.1c0.5,0.1,0.9,0.2,1.4,0.4
		c0,0,0.1,0.1,0.1,0.2c0.1,0.1,0,0.2-0.2,0.2c-0.3,0-0.7,0-0.9,0c-0.3,0-0.4-0.1-0.6-0.1c-0.3,0-0.5,0.1-0.7,0.2
		c-0.4,0.2-0.6,0.2-0.9-0.2C109,166.2,109.1,166,109.2,166z M110.5,172.1l-0.1,0l0.1-0.2L110.5,172.1z M109,174.9
		C109,174.9,109,174.9,109,174.9c0-0.1,0-0.2,0.1-0.3c0,0,0.2,0,0.2,0C109.2,174.8,109.2,174.8,109,174.9
		C109,174.9,109,174.9,109,174.9l0,0.1L109,174.9L109,174.9C109.1,174.9,109,174.9,109,174.9z M108.5,160.6c0.2-0.1,0.3,0,0.3,0.1
		c0,0.1-0.1,0.2-0.2,0.2c-0.2,0.1-0.3,0-0.3-0.1C108.2,160.7,108.3,160.6,108.5,160.6z M108.2,179.5c0.3-1,0.5-2.1,0.9-3.1
		c0.1-0.2,0.3-0.3,0.4-0.5c0,0,0.1,0.1,0.1,0.1c0.1,0.4-0.1,0.8-0.2,1.2c0,0.4,0.1,0.8-0.1,1.2c0,0.1-0.2,0.2-0.3,0.2c0,0,0,0,0,0
		c0.3,0.1,0.5,0.4,0.7,0.7c0.1,0.1,0.2,0.2,0.3,0.1c0.2,0,0.3,0,0.4,0.1c0.1,0.2,0.2,0.4,0.1,0.6c0,0.3-0.2,0.4-0.3,0.4
		c-0.2,0-0.4-0.1-0.6-0.1c-0.3,0.1-0.5,0.1-0.8,0.2c-0.2,0-0.6-0.2-0.7-0.4C108.2,180,108.1,179.7,108.2,179.5z M106.8,165.8
		c0.3,0,0.7,0.1,1,0.1c0.2,0,0.2,0.1,0.2,0.2c0,0-0.1,0.1-0.2,0.1c-0.2,0-0.4,0-0.5,0c-0.2,0-0.4,0-0.5,0c-0.1,0-0.2-0.2-0.2-0.3
		C106.7,165.9,106.8,165.8,106.8,165.8z M106.8,184.9c0.1,0,0.1,0.1,0.1,0.2c0,0.3,0,0.6,0,1c0,0.3,0,0.5-0.1,0.8
		c0,0-0.1,0.1-0.1,0.1c-0.1,0-0.1,0-0.2,0c-0.1-0.1-0.2-0.2-0.3-0.3c-0.2-0.3-0.3-0.6-0.2-0.9c0.1-0.3,0.3-0.6,0.5-0.8
		C106.7,184.9,106.8,184.9,106.8,184.9z M105.4,154.1c0.1-0.3,0.4-0.4,0.7-0.4c0.2,0,0.3,0.1,0.4,0.4c0.1,0.2-0.1,0.4-0.3,0.4
		c-0.3-0.1-0.5-0.1-0.8-0.2C105.4,154.2,105.4,154.1,105.4,154.1z M103,155.5c0.1-0.1,0.2-0.2,0.3-0.3c0.1,0,0.1-0.1,0.2-0.1
		c0.1-0.1,0.3-0.1,0.4-0.1c0.8,0.1,1.6,0.1,2.4,0.3c0.2,0,0.2,0.1,0.2,0.3c0,0.1-0.1,0.3-0.1,0.4c-0.4,0.2-0.7,0.3-1.1,0.5
		c-0.1,0.1-0.2,0-0.4-0.1c-0.3-0.2-0.6-0.3-0.9-0.1c0,0,0,0,0,0c0,0,0,0.1,0,0.1c0,0-0.1,0.1-0.1,0.1c0,0.1,0.1,0.1,0.1,0.2
		c-0.2,0-0.2,0-0.1-0.2c0,0,0,0,0,0c0-0.1-0.1-0.2,0-0.3c0,0,0,0,0,0c0,0,0,0,0,0l0,0c-0.2,0-0.4,0-0.6,0c-0.1,0-0.5-0.3-0.4-0.4
		C102.9,155.7,102.9,155.6,103,155.5z M102.6,172.1l0,0.1L102.6,172.1L102.6,172.1z M101.6,173.6
		C101.6,173.6,101.6,173.6,101.6,173.6C101.6,173.6,101.6,173.6,101.6,173.6c0-0.2,0-0.3,0.2-0.3c0,0,0.1,0.1,0.1,0.1
		c0,0.1-0.1,0.1-0.1,0.2C101.7,173.6,101.7,173.6,101.6,173.6C101.6,173.6,101.6,173.6,101.6,173.6
		C101.6,173.6,101.6,173.6,101.6,173.6c0,0.1,0,0.2-0.1,0.3c-0.1,0-0.2,0-0.2-0.2C101.4,173.6,101.5,173.6,101.6,173.6z M97,148.5
		L97,148.5c0.1,0,0.1,0.1,0.1,0.1C97.1,148.5,97.1,148.5,97,148.5C97.1,148.5,97.1,148.5,97,148.5c0,0.1,0,0.1,0.1,0.2
		c0,0,0,0,0-0.1c0,0,0,0.1,0,0.1c0.4,0.3,0.9,0.5,1.3,0.7c0.1,0,0.1,0,0.2,0c0.3,0,0.4,0,0.4,0.2c0,0.3-0.2,0.6-0.4,0.6
		c-0.1,0-0.1,0-0.2,0c-0.2-0.1-0.5-0.3-0.7-0.4c-0.4-0.2-0.7-0.4-0.6-0.9c0-0.1,0-0.1,0-0.2c0,0,0,0-0.1,0c0,0,0,0,0,0c0,0,0,0,0,0
		C97.1,148.6,97,148.6,97,148.5C97,148.5,97,148.5,97,148.5C97,148.5,97,148.5,97,148.5z M94.4,149c0.2-0.2,0.4-0.3,0.7-0.2
		c0.2,0,0.2,0.1,0.1,0.3c-0.2,0.3-0.5,0.5-0.8,0.6c-0.1,0-0.2-0.1-0.2-0.3C94.2,149.2,94.3,149.1,94.4,149z M91.2,141
		c0,0,0.1,0,0.1,0c0,0,0,0,0-0.1c0,0,0,0,0.1,0c0-0.1,0-0.2,0.1-0.3c0,0,0.1,0.1,0.1,0.1c0,0.1-0.1,0.2-0.2,0.2c0,0,0,0,0,0.1
		c0,0,0,0-0.1,0c0,0.1,0,0.2-0.1,0.2C91.2,141.1,91.2,141,91.2,141z M90.3,142.2c0.1,0,0.2,0,0.1,0.2c0,0-0.1,0.1-0.1,0.1
		c0-0.1-0.1-0.1-0.1-0.2C90.3,142.3,90.3,142.3,90.3,142.2z M89.2,143.3c0.1-0.1,0.2-0.2,0.3-0.2c0,0,0.1,0.1,0.1,0.1
		c0,0.1,0,0.3-0.1,0.4c-0.1,0.1-0.2,0.2-0.3,0.2C89,143.9,89.1,143.6,89.2,143.3z M86.1,148.2c0,0,0.1,0,0.1,0
		c0.1,0.1,0,0.2-0.1,0.2l-0.1,0c0,0,0,0,0,0c0,0,0,0,0,0c0,0,0,0,0-0.1c0,0,0,0,0,0.1c0,0,0-0.1,0-0.1C86,148.2,86,148.2,86.1,148.2
		z M85.4,167.2c0.2-0.1,0.3-0.2,0.5-0.3c0,0,0.1,0,0.2,0c0.1,0.1,0.2,0.2,0.2,0.3c0,0.3-0.2,0.4-0.5,0.6c-0.2,0.1-0.4,0-0.5-0.2
		C85.3,167.4,85.3,167.3,85.4,167.2z M81.2,150.3c0,0,0.1-0.1,0.1,0c0.1,0.1,0.1,0.2,0,0.3c0,0-0.1,0-0.2-0.1
		C81.2,150.5,81.2,150.4,81.2,150.3z M78.7,155.8c0.2-0.1,0.5-0.2,0.7-0.3c0.2-0.1,0.3-0.2,0.5-0.4c0.3-0.4,0.6-0.9,1.1-1.2
		c0.1-0.1,0.2-0.2,0.3-0.3c0.3-0.5,0.7-0.8,1-1.3c0.3-0.3,0.5-0.7,0.7-1c0.1-0.2,0.1-0.4,0-0.6c-0.1-0.3-0.1-0.3,0.1-0.4
		c0.1,0,0.3,0,0.5,0c0.1,0,0.3-0.1,0.5-0.1c0.1,0,0.2,0.1,0.2,0.3c0,0.1,0,0.1,0,0.2c-0.3,0.5-0.6,1-1.1,1.4
		c-0.2,0.1-0.3,0.3-0.4,0.4c-0.3,0.8-1.1,1.2-1.5,1.9c-0.1,0.2-0.3,0.3-0.4,0.4c-0.2,0.1-0.4,0.3-0.5,0.6c-0.2,0.5-0.7,0.8-0.9,1.3
		c0,0.1-0.1,0.1-0.2,0.1c-0.1,0.1-0.2,0.1-0.4,0.1c-0.1,0-0.2-0.1-0.3-0.3c0-0.2,0-0.4,0-0.6C78.6,156,78.6,155.8,78.7,155.8z
		 M76.5,145.8l-0.1,0.1l0-0.1L76.5,145.8z M76.4,154.6c0.3-0.4,0.7-0.8,1.2-1.1c0.2-0.1,0.4,0,0.6,0.1c0.1,0.1,0.2,0.2,0.3,0.2
		c0,0,0,0,0,0c0,0,0,0,0-0.1c-0.1,0-0.1-0.1,0-0.1c0,0,0,0,0,0.1c0,0,0,0,0,0c0,0,0,0,0,0c0,0,0,0,0,0l0,0c0,0,0,0,0,0
		c-0.3,0.1-0.5,0.3-0.7,0.6c-0.3,0.4-0.6,0.7-1.1,0.9c-0.2,0.1-0.3,0.1-0.3-0.1c0-0.1,0-0.1,0-0.2C76.3,154.8,76.4,154.7,76.4,154.6
		z M74,140.2c0.1,0.1,0.2,0.2,0.1,0.3c0,0.1-0.1,0.1-0.1,0.1c-0.1-0.1-0.2-0.2-0.1-0.3C73.9,140.3,74,140.2,74,140.2z M72.6,152.5
		c0-0.4,0.1-0.8,0.4-1.1c0.1-0.1,0.2-0.2,0.2-0.3c0.2-0.3,0.4-0.4,0.6-0.2c0.2,0.1,0.3,0.2,0.5,0.3c0.2,0.1,0.2,0.3,0.2,0.5
		c0,0.3-0.1,0.5-0.1,0.8c-0.1,0.4,0,0.6,0.3,0.9c0.1,0.1,0.2,0.2,0.3,0.3c0.1,0.2,0.2,0.4,0.1,0.6c0,0.1-0.1,0.2-0.1,0.4
		c-0.2,0.5-0.1,0.9,0.2,1.4c0.1,0.1,0.1,0.2,0.1,0.4c0.1,0.2-0.2,0.6-0.5,0.5c-0.1,0-0.1-0.1-0.2-0.1c-0.2-0.3-0.2-0.8-0.5-1.1
		c-0.2-0.2-0.4-0.5-0.6-0.8c-0.2,0-0.4,0.1-0.6,0.1c-0.2,0-0.3,0-0.3-0.2c-0.1-0.2-0.3-0.5-0.3-0.7
		C72.5,153.6,72.6,153.1,72.6,152.5z M44.8,137.8c0,0.1-0.1,0.1-0.1,0.2c-0.1,0-0.1,0-0.2,0.1c-0.2,0-0.4-0.1-0.5-0.3
		c-0.1-0.3,0-0.6,0.3-0.7c0.1-0.1,0.3-0.1,0.4,0C44.9,137.2,45,137.5,44.8,137.8z M46.7,140.6c0,0-0.1,0-0.1,0
		c-0.1-0.1-0.3-0.3-0.4-0.4c-0.4-0.5-0.6-1-0.8-1.6c0,0,0.1-0.1,0.2-0.1c0.3-0.1,0.4,0,0.5,0.1c0.2,0.3,0.2,0.6,0.3,0.9
		c0.1,0.3,0.4,0.5,0.4,0.9C46.7,140.5,46.7,140.6,46.7,140.6z M47,133c0,0-0.1-0.1-0.1-0.2c0-0.1,0-0.1,0.1-0.2
		c0.1-0.1,0.2-0.1,0.3,0.1c0,0,0.1,0.1,0.1,0.2C47.3,133,47.2,133.1,47,133z M67.3,116.2c0-0.1,0.1-0.1,0.1-0.1
		c0.1,0.1,0.2,0.2,0.2,0.3c0,0.3,0,0.5-0.2,0.5c-0.1,0-0.1-0.1-0.1-0.1C67.2,116.6,67.3,116.4,67.3,116.2z M67.1,121.9
		c0-0.1,0.1-0.1,0.1-0.1c0.1,0,0.1,0.1,0.1,0.3c-0.1,0.3-0.1,0.5-0.1,0.8c0,0.2,0,0.3-0.1,0.3C67,122.7,67,122.3,67.1,121.9z
		 M49.7,110.6c0-0.1,0-0.1,0.1-0.2c0.5-0.3,1-0.6,1.6-0.9c0.2-0.1,0.4,0,0.6,0.1c0,0,0,0,0,0l0-0.1c0,0,0.1,0.1,0.1,0.1c0,0,0,0,0,0
		c0,0,0,0,0,0l0,0c0,0,0,0,0,0c-0.2,0.1-0.3,0.2-0.4,0.3c-0.2,0.4-0.4,0.7-0.8,0.9c-0.3,0.2-0.6,0.4-0.9,0.5c-0.1,0.1-0.3,0-0.3-0.1
		c0,0-0.1-0.1-0.1-0.2C49.5,110.9,49.6,110.7,49.7,110.6z M48.8,135c0.1,0.2,0.1,0.4,0.1,0.6c0,0,0,0,0.1,0l-0.1,0c0,0,0.1,0,0.1,0
		c0,0,0,0,0,0.1c0.1,0.1,0.1,0.2-0.1,0.1c0,0,0-0.1,0.1-0.1c0,0,0,0,0,0c0,0,0,0,0,0c-0.4,0.1-0.5,0-0.7-0.4
		c-0.1-0.1-0.1-0.2,0.1-0.3c0.1,0,0.1,0,0.2,0C48.6,134.8,48.7,134.8,48.8,135z M39.9,122c0.1,0,0.3,0,0.4,0.1
		c0.2,0.1,0.3,0.2,0.5,0.4c0.2,0.2,0.3,0.5,0.6,0.5c0.2,0,0.4,0,0.6,0c0.2,0,0.4,0.2,0.3,0.4c-0.1,0.1-0.1,0.2,0,0.4
		c0.1,0.1,0.2,0.2,0.3,0.3c0.2,0.2,0.4,0.4,0.4,0.7c0,0.2,0.2,0.4,0.4,0.4c0.4,0.1,0.7,0.3,1,0.6c0.4,0.4,0.7,0.8,1.2,1.1
		c0.2,0.1,0.3,0.3,0.4,0.5c0.2,0.4,0.4,0.8,0.7,1.2c0.2,0.2,0.2,0.5,0.3,0.8c0,0.3,0.1,0.5,0.3,0.7c0.5,0.6,1,1.1,1.3,1.8
		c0.1,0.2,0,0.4-0.2,0.5c-0.1,0-0.2,0-0.2,0c-0.1-0.1-0.2-0.2-0.3-0.3c-0.8-1.1-1.6-2.2-2.7-3c-0.2-0.2-0.3-0.4-0.5-0.6
		c-0.1-0.1-0.2-0.2-0.3-0.2c-0.5-0.1-0.8-0.4-1.2-0.7c-0.2-0.2-0.2-0.2-0.1-0.7c0.1-0.4,0-0.7-0.3-0.9c-0.2-0.2-0.4-0.4-0.6-0.5
		c-0.1-0.1-0.2-0.1-0.3-0.2c-0.1-0.1-0.2-0.1-0.4,0c-0.6,0.3-1-0.1-1.4-0.5c-0.1-0.2-0.2-0.4-0.1-0.6c0.3-0.5,0.2-1,0-1.5
		C39.4,122.2,39.6,122,39.9,122z M37.7,116.5c0.2,0,0.5,0.3,0.4,0.5c-0.1,0.4-0.5,0.6-0.9,0.6c-0.1,0-0.1-0.1-0.1-0.1
		C36.9,117,37.2,116.5,37.7,116.5z M14,113.8c0.1,0.1,0.1,0.2,0.1,0.3c0,0.1-0.1,0.1-0.2,0.1c-0.2,0-0.2-0.1-0.2-0.3
		C13.8,113.7,13.9,113.7,14,113.8z"/>
	<path fill="#F2F2F2" d="M109.1,179c0,0.1,0,0.1,0,0.2c0,0,0.1,0.1,0.1,0.1c0.1-0.1,0.1-0.2,0-0.3c-0.1-0.1-0.1-0.2-0.2-0.3
		C109.1,178.8,109.1,178.9,109.1,179z"/>
	<path fill="#F2F2F2" d="M109.1,178.7C109.1,178.7,109.1,178.7,109.1,178.7C109.1,178.7,109.1,178.7,109.1,178.7
		C109.1,178.7,109.1,178.7,109.1,178.7z"/>
	<path fill="#F2F2F2" d="M150,177.7l-12.1-9.1c0,0.1-0.1,0.2-0.2,0.2c-0.1,0.1-0.2,0.1-0.3,0.2c-0.1,0-0.3-0.1-0.3-0.2
		c0-0.1,0-0.1,0-0.2c0.1-0.2,0.3-0.2,0.4-0.2l-18.8-14.1c-0.1,0.6-0.3,1.1-0.4,1.7c-0.1,0.5-0.2,0.9-0.1,1.4c0,0.1,0,0.2-0.1,0.4
		c-0.2,0.3-0.4,0.5-0.5,0.9c-0.2,0.9-0.4,1.7-0.7,2.6c-0.1,0.2-0.1,0.4-0.1,0.6c-0.1,0.3-0.1,0.7,0.2,0.9c0.1,0,0.1,0.1,0.1,0.2
		c0.2,0.3,0.2,0.5-0.2,0.6c-0.5,0.2-0.7,0.5-0.9,1c-0.1,0.8-0.4,1.6-0.6,2.4c-0.1,0.5-0.1,0.9,0.4,1.3c0.2,0.1,0.1,0.6,0,0.7
		c-0.1,0.1-0.2,0.2-0.3,0.3c-0.1,0.1-0.2,0.1-0.3,0.2c-0.2,0.1-0.3,0.3-0.4,0.5c-0.2,0.6-0.5,1.3-0.7,1.9c-0.2,0.7-0.4,1.5-0.5,2.2
		c-0.1,0.3-0.1,0.7-0.2,1c-0.3,0.6-0.4,1.3-0.5,2c-0.1,0.6-0.2,1.2-0.4,1.8c-0.2,0.6-0.2,1.2-0.4,1.8c-0.1,0.2,0,0.4,0,0.6
		c0,0.2,0.1,0.4,0.1,0.6c0.1,0.3,0,0.5-0.1,0.8c-0.3,0.5-0.5,1.1-0.5,1.7c0,0.2-0.1,0.4-0.2,0.5c-0.2,0.2-0.3,0.5-0.2,0.8
		c0,0.5,0,0.9-0.2,1.4c-0.1,0.2-0.1,0.5,0,0.8c0.1,0.3,0,0.6-0.2,0.8c-0.3,0.4-0.5,0.8-0.6,1.3c0,0,0,0,0,0l1.7,1.3c0,0,0,0,0.1,0
		c0.1,0,0.2,0.1,0.3,0.2c0,0,0,0,0,0l25.6,19.2c0.1-0.2,0.2-0.3,0.4-0.3c0.1,0,0.2,0.1,0.2,0.2c0,0.2-0.1,0.3-0.2,0.4l11.9,8.9
		l55.1-41.3c-0.1,0-0.1,0-0.2-0.1c-0.1-0.1-0.2-0.2-0.1-0.4c0.1-0.2,0.3-0.3,0.4-0.4c0,0,0.1,0,0.2,0c0.1,0,0.2,0.1,0.3,0.2
		c0,0.1,0,0.2-0.1,0.3l54.2-40.7c-0.1-0.2-0.3-0.3-0.5-0.4c-0.2-0.1-0.5-0.3-0.7-0.4c-0.2-0.1-0.2-0.2-0.1-0.3c0,0,0.1-0.1,0.2,0
		c0.3,0.1,0.6,0.2,0.9,0.4c0.2,0.2,0.5,0.3,0.7,0.4l39.6-29.7l-20.1-26.9L150,177.7z M111.2,189.7c-0.1,0.2-0.3,0.4-0.4,0.4
		c0,0-0.1-0.1-0.1-0.2c-0.1-0.2,0-0.4,0.2-0.5c0,0,0.1,0,0.2,0C111.2,189.5,111.2,189.6,111.2,189.7z M115,175.9
		c0,0.4-0.3,0.6-0.6,0.7c-0.1,0-0.3,0-0.3-0.1c-0.2-0.3-0.2-0.6-0.2-0.9c0-0.2,0.4-0.5,0.7-0.6c0.1,0,0.1,0,0.2,0
		c0.2,0.1,0.3,0.3,0.3,0.5C115.1,175.7,115,175.8,115,175.9z M116.6,173.9c-0.2,0-0.2-0.1-0.1-0.3c0,0,0.1-0.1,0.1-0.1
		c0.1,0.1,0.2,0.2,0.2,0.3C116.7,173.9,116.6,173.9,116.6,173.9z M118.9,159.3c0.1-0.1,0.2,0,0.2,0.2c0,0-0.1,0.1-0.1,0.1
		c0,0-0.1-0.1-0.1-0.1C118.9,159.4,118.9,159.3,118.9,159.3z M119.4,181.5c-0.1,0.1-0.2,0.2-0.2,0.3c-0.1,0.1-0.2,0.2-0.3,0.3
		c-0.1,0.1-0.4,0.1-0.5-0.1c0,0-0.1-0.1-0.1-0.2c0-0.1-0.1-0.2,0-0.2c0.2-0.3,0.5-0.6,0.9-0.6c0.1,0,0.3,0,0.3,0.2
		C119.5,181.2,119.5,181.3,119.4,181.5z M119.5,158.2c0,0-0.1,0-0.1-0.1c0-0.1,0-0.1,0-0.2c0,0,0.1,0,0.1,0.1
		C119.5,158.1,119.5,158.2,119.5,158.2z M120.6,188.6c0,0-0.1-0.1-0.1-0.1c0-0.1,0-0.2,0.2-0.3c0,0,0.1,0.1,0.1,0.1
		c0,0.1,0,0.1,0,0.2C120.7,188.6,120.7,188.6,120.6,188.6z M120.6,186.7c-0.1,0-0.2-0.2-0.2-0.3c0-0.1,0-0.3,0.2-0.3
		c0.1,0,0.2,0.1,0.2,0.2c0,0.1,0,0.1,0,0.2C120.8,186.6,120.7,186.7,120.6,186.7z M132.9,165.8c0,0-0.1,0-0.1,0c0,0-0.1-0.1,0-0.2
		c0,0,0.1-0.1,0.1-0.1c0,0,0.1,0.1,0.1,0.1C133,165.7,132.9,165.8,132.9,165.8z M136.1,175.7c0-0.1,0-0.1,0-0.2c0,0,0.1,0,0.1,0
		c0,0.1,0,0.1,0,0.2C136.2,175.7,136.1,175.7,136.1,175.7z M145.2,178.4c0,0,0.1,0.1,0.1,0.1c0.1,0.1,0,0.3-0.1,0.3
		c0,0-0.1-0.1-0.2-0.1C145,178.6,145,178.5,145.2,178.4z M137.7,181.1l0.1,0.1l-0.1,0L137.7,181.1z M139.7,207.8
		c-0.3,0.4-0.7,0.6-0.9,1.1c-0.1,0.2-0.3,0.2-0.5,0.1c-0.2-0.1-0.4-0.1-0.5-0.2c-0.1-0.1-0.1-0.2-0.2-0.3c0.1-0.6,0.5-1,1.2-1.2
		c0.3-0.1,0.5-0.1,0.8,0.1C139.7,207.4,139.8,207.7,139.7,207.8z M139.5,191.9c-0.1,0-0.3,0.1-0.4,0.2c-0.3,0.2-0.6,0.2-0.9,0.2
		c-0.2,0-0.4,0-0.5,0c-0.1,0-0.3-0.1-0.3-0.2c-0.1-0.1,0.1-0.4,0.2-0.5c0.2-0.1,0.4,0,0.6,0c0.2,0,0.4-0.2,0.5-0.3
		c0-0.1,0.1-0.3,0.1-0.4c0-0.1,0-0.3,0-0.4c0-0.3,0.3-0.4,0.6-0.3c0.1,0,0.1,0.1,0.1,0.1c0.1,0.4,0.1,0.8,0.2,1.2
		C139.8,191.7,139.7,191.8,139.5,191.9z M139.8,172.4c0,0-0.1-0.1-0.2-0.1c-0.1-0.1-0.1-0.2,0-0.3c0.1,0,0.1-0.1,0.2-0.1
		c0.1,0,0.2,0.1,0.2,0.3C140,172.3,139.9,172.4,139.8,172.4z M142.4,173.8c-0.1,0.2-0.2,0.2-0.3,0.2c-0.4-0.2-0.5-0.5-0.3-0.8
		c0.1-0.1,0.2-0.2,0.3-0.2c0.1,0,0.2,0.1,0.3,0.2C142.5,173.4,142.5,173.6,142.4,173.8z M146.1,189.8c-0.1,0.4-0.4,0.7-0.7,0.9
		c-0.1,0-0.1,0.1-0.2,0c0,0-0.1-0.1-0.1-0.2c0-0.2,0-0.4,0-0.6c0-0.1,0-0.3-0.1-0.4c-0.1-0.2-0.2-0.4-0.4-0.5
		c-0.1,0-0.1-0.2-0.2-0.3c0.1,0,0.1-0.1,0.2-0.1c0.4-0.1,0.8,0.1,1.2,0.2C146,189.1,146.2,189.5,146.1,189.8z M147.7,189.5
		c-0.2,0-0.2-0.1-0.2-0.3c0,0,0.1-0.1,0.1-0.1c0.1,0,0.2,0.2,0.2,0.3C147.8,189.4,147.7,189.5,147.7,189.5z M154.1,192
		c0,0.1-0.1,0.1-0.1,0.2c0,0-0.1,0.1-0.1,0.1c-0.5,0.2-1,0.4-1.5,0.6c-0.5,0.3-0.9,0.7-1.3,0.9c-0.2,0.1-0.4,0.1-0.6,0
		c-0.2-0.1-0.3-0.6-0.2-0.7c0.2-0.3,0.4-0.5,0.6-0.8c0.3-0.3,0.6-0.5,1-0.7c0.1,0,0.3-0.1,0.4-0.1c0.4-0.2,0.8-0.2,1.2-0.2
		c0.2,0,0.3,0,0.4,0c0.2,0,0.3,0.1,0.3,0.2C154.2,191.7,154.1,191.8,154.1,192z M155.3,177.9c0,0-0.1-0.1-0.1-0.1
		c-0.1-0.1,0-0.2,0.1-0.3c0,0,0.1,0.1,0.1,0.1C155.5,177.7,155.5,177.8,155.3,177.9z M156.4,178c-0.2,0.1-0.3,0-0.3-0.1
		c0,0,0.1-0.1,0.1-0.1c0.1,0,0.3,0,0.3,0.2C156.5,177.9,156.5,178,156.4,178z M160.7,185.8c-0.1,0-0.1-0.1-0.1-0.1
		c0,0,0.1-0.1,0.1-0.1c0.1,0,0.3,0,0.3,0.1C160.9,185.8,160.8,185.9,160.7,185.8z M174.6,173.5c-0.1,0.2-0.2,0.4-0.2,0.5
		c-0.1,0.1-0.2,0.3-0.3,0.2c-0.1,0-0.2-0.2-0.2-0.3c0-0.3,0.1-0.5,0.4-0.7c0.1,0,0.1-0.1,0.2-0.1
		C174.7,173.3,174.7,173.4,174.6,173.5z M176.4,178.9c-0.1,0.1-0.2,0.2-0.3,0.1c-0.1-0.1-0.2-0.1-0.2-0.2c0-0.2,0.2-0.3,0.4-0.3
		C176.4,178.5,176.5,178.7,176.4,178.9z M179.5,167.9c-0.3,0.4-0.7,0.8-1.1,1.2c-0.2,0.2-0.3,0.5-0.3,0.7c0,0.1,0,0.3-0.1,0.4
		c0,0.2-0.1,0.4-0.3,0.5c-0.1,0.1-0.3,0.1-0.3,0.2c-0.2,0.6-0.8,0.9-1,1.5c-0.1,0.2-0.2,0.2-0.3,0.1c-0.1,0-0.1-0.1-0.2-0.1
		c-0.3-0.4-0.7-0.6-1.2-0.3c-0.1,0.1-0.3,0.1-0.4,0.1c-0.2,0-0.3-0.1-0.4-0.4c-0.1-0.1,0-0.2,0.1-0.3c0.2-0.1,0.3-0.2,0.5-0.4
		c0.4-0.3,0.7-0.7,0.8-1.1c0-0.1,0.1-0.3,0.1-0.4c0.1-0.6,0.4-1,0.7-1.4c0.1-0.1,0.1-0.2,0.2-0.3c0.3-0.5,0.8-0.9,1.3-1.2
		c0.2-0.1,0.2-0.3,0.3-0.5c0-0.1,0-0.3,0.1-0.4c0-0.1,0.1-0.1,0.1-0.1c0.1-0.1,0.2,0,0.3,0.1c0.2,0.1,0.3,0.3,0.3,0.5
		c0,0.1,0,0.3,0,0.4c-0.1,0.5,0.2,0.7,0.6,0.9C179.6,167.6,179.6,167.7,179.5,167.9z M186.2,162.1c-0.1,0.2-0.3,0.3-0.5,0.4
		c-0.3,0.2-0.6,0.4-0.8,0.6c0,0-0.1,0.1-0.1,0.2c0,0,0,0,0,0c0,0,0,0,0,0c-0.1,0.1-0.2,0.1-0.3,0.2c-0.4,0.4-0.8,0.8-1.2,1.1
		c-0.1,0.1-0.3,0.2-0.5,0.3c-0.2,0.1-0.5,0-0.5-0.2c-0.1-0.3-0.2-0.5-0.2-0.8c-0.1-0.6,0.6-1.2,1.2-1.1c0.5,0.2,1,0.2,1.5,0.4
		c0,0,0,0,0,0l0,0c0,0,0,0,0,0c0,0,0,0,0,0c-0.1-0.3-0.2-0.6-0.2-0.9c0-0.2,0.2-0.4,0.3-0.4c0.4-0.1,0.8-0.2,1.1-0.5
		c0.3-0.3,0.6-0.6,0.9-0.8c0,0,0.1,0,0.2,0c0,0,0.1,0.1,0.1,0.2C186.9,161.3,186.5,161.6,186.2,162.1z M191.3,167.8
		c-0.2,0-0.2-0.1-0.1-0.3c0.1-0.2,0.3-0.3,0.4-0.1c0,0,0.1,0.1,0.1,0.2C191.7,167.7,191.5,167.8,191.3,167.8z M199.9,149.2
		c-0.1,0.1-0.2,0.2-0.3,0.1c-0.1,0-0.2-0.1-0.2-0.3c0-0.1,0.1-0.2,0.2-0.2C199.8,148.8,200,149,199.9,149.2z M245.5,118.9
		c0.1,0.1,0.1,0.2-0.1,0.2c0,0,0-0.1,0-0.1C245.4,118.9,245.5,118.9,245.5,118.9z M229,130.4c0.1-0.1,0.2-0.1,0.3-0.1
		c0.1,0,0.2,0.1,0.2,0.3c0,0.1-0.1,0.2-0.2,0.2C229.1,130.7,228.9,130.5,229,130.4z M230.8,136.5c-0.3,0.4-0.7,0.6-1.2,0.6
		c-0.1,0-0.2-0.1-0.3-0.2c0-0.1,0-0.1,0-0.2c0.4-0.6,0.6-0.7,1.3-0.6c0.2,0,0.2,0.1,0.2,0.2C230.8,136.3,230.8,136.4,230.8,136.5z
		 M231.1,130c-0.4,0.3-0.8,0.3-1.3,0c-0.1-0.1-0.2-0.2-0.1-0.3c0,0,0.1-0.1,0.1-0.1c0.3,0,0.5-0.1,0.8-0.1c0.1,0,0.1,0,0.2,0
		c0.1,0,0.1,0,0.2,0c0.1,0,0.3,0.1,0.3,0.2C231.4,129.8,231.2,129.9,231.1,130z M236.2,130.4c0,0,0-0.1-0.1-0.2c0.1,0,0.1-0.1,0.1,0
		c0,0.1,0,0.1,0.1,0.2C236.3,130.4,236.2,130.4,236.2,130.4z M245.4,125.1c0,0.1-0.1,0.1-0.2,0.1c-0.1,0-0.1,0-0.2,0
		c-0.1,0-0.2-0.2-0.2-0.3c0.1-0.3,0.2-0.6,0.5-0.8c0.1,0,0.1,0,0.2,0c0.1,0,0.2,0.1,0.2,0.3C245.7,124.7,245.6,124.9,245.4,125.1z
		 M249,131.9c0,0-0.1,0-0.1-0.1c-0.1-0.1,0-0.2,0.1-0.3c0,0,0.1,0,0.1,0.1C249.2,131.7,249.1,131.8,249,131.9z M256.1,134.1
		c0,0-0.1,0.1-0.2,0.1c-0.1,0-0.1-0.1-0.1-0.1c0-0.1,0-0.3,0.2-0.3c0,0,0.1,0.1,0.1,0.1C256.1,134,256.1,134.1,256.1,134.1z
		 M264.6,96.2C264.6,96.2,264.5,96.1,264.6,96.2c-0.5,0.3-0.8,0.8-1.2,1.3c-0.1,0.1-0.2,0.1-0.3,0.1c0,0,0,0,0,0c0,0,0,0,0,0
		c0.2,0.5-0.1,1-0.5,1.3c0,0-0.1,0.1-0.2,0.1c-0.1-0.1-0.2-0.2-0.1-0.3c0-0.1,0.1-0.3,0.1-0.4c0.2-0.3,0.4-0.5,0.6-0.7
		c0,0,0-0.1,0-0.1c0,0,0,0,0.1,0c0-0.1,0-0.2,0-0.3c0-0.2,0-0.3,0.1-0.3c0.3-0.2,0.6-0.3,0.8-0.6C264.1,96.1,264.4,96.1,264.6,96.2
		C264.5,96.1,264.5,96.1,264.6,96.2L264.6,96.2C264.5,96.1,264.6,96.1,264.6,96.2C264.6,96.1,264.6,96.1,264.6,96.2
		C264.6,96.1,264.6,96.1,264.6,96.2L264.6,96.2z"/>
	<path fill="#F2F2F2" d="M117.6,154.5c0,0.1,0,0.2,0,0.2c0,0,0.1,0.1,0.1,0.1c0.1-0.1,0.2-0.2,0.2-0.3c0-0.1,0-0.1-0.1-0.2
		C117.7,154.3,117.6,154.4,117.6,154.5z"/>
	<path fill="#F2F2F2" d="M97.1,148.5C97.1,148.5,97.1,148.5,97.1,148.5C97.1,148.5,97,148.5,97.1,148.5
		C97.1,148.5,97.1,148.5,97.1,148.5z"/>
	<path fill="#F2F2F2" d="M264.6,96.1L264.6,96.1C264.6,96.2,264.6,96.1,264.6,96.1C264.6,96.1,264.6,96.1,264.6,96.1z"/>
	<path fill="#F2F2F2" d="M72.9,159.4c-0.1,0-0.2,0-0.2,0c-0.5,0.4-1.1,0.6-1.7,1l2.2,1.7c0,0,0,0,0,0c0.1-0.1,0.2-0.2,0.2-0.3
		c0.1-0.2,0.1-0.4,0-0.6c-0.3-0.4-0.6-0.9-0.4-1.5C73.1,159.6,73,159.4,72.9,159.4z"/>
	<polygon fill="#F2F2F2" points="74,151.7 73.9,151.8 74.1,151.8 	"/>
	<path fill="#F2F2F2" d="M77.6,160.3C77.6,160.3,77.6,160.3,77.6,160.3C77.6,160.3,77.6,160.3,77.6,160.3
		C77.6,160.3,77.6,160.3,77.6,160.3z"/>
</g>
</svg>
