<?xml version="1.0" encoding="utf-8"?>
<!-- Generator: Adobe Illustrator 17.1.0, SVG Export Plug-In . SVG Version: 6.00 Build 0)  -->
<!DOCTYPE svg PUBLIC "-//W3C//DTD SVG 1.1//EN" "http://www.w3.org/Graphics/SVG/1.1/DTD/svg11.dtd">
<svg version="1.1" id="Layer_1" xmlns="http://www.w3.org/2000/svg" xmlns:xlink="http://www.w3.org/1999/xlink" x="0px" y="0px"
	 viewBox="0 0 300 300" enable-background="new 0 0 300 300" xml:space="preserve">
<g>
	<g>
		<polygon fill="#F2F2F2" points="182.7,129.9 182.7,129.9 182.7,129.9 		"/>
		<path fill="#F2F2F2" d="M140.5,129.6c-0.1,0-0.1,0-0.2,0.1c0,0.1,0,0.2,0,0.2c0,0.1,0.1,0.1,0.2,0.1c0.1,0,0.2,0,0.2-0.1
			c0.1-0.1,0-0.2,0-0.2C140.6,129.7,140.5,129.6,140.5,129.6z"/>
		<path fill="#F2F2F2" d="M182.7,129.9C182.7,129.9,182.7,129.9,182.7,129.9C182.7,129.9,182.7,129.9,182.7,129.9L182.7,129.9z"/>
		<path fill="#F2F2F2" d="M140.6,131.4c0,0.1,0,0.2,0,0.2c0,0,0.1,0,0.1,0c0.1,0,0.1-0.1,0.1-0.2c0-0.1,0-0.1,0-0.2
			C140.7,131.3,140.6,131.4,140.6,131.4z"/>
		<polygon fill="#F2F2F2" points="182.7,129.9 182.7,129.9 182.7,129.9 		"/>
		<path fill="#F2F2F2" d="M119.6,178.3C119.6,178.3,119.6,178.2,119.6,178.3c0.1-0.1,0-0.1,0-0.1
			C119.6,178.1,119.5,178.2,119.6,178.3C119.5,178.2,119.6,178.3,119.6,178.3z"/>
		<path fill="#F2F2F2" d="M140.9,131.1C140.9,131.1,140.9,131.1,140.9,131.1c-0.1,0-0.2,0-0.2,0.1c0,0,0,0,0,0.1c0,0,0,0,0,0
			C140.9,131.3,141,131.3,140.9,131.1z"/>
		<path fill="#F2F2F2" d="M140.9,131c0,0.1,0,0.1,0,0.2C141,131.1,140.9,131,140.9,131z"/>
		<path fill="#F2F2F2" d="M140.9,130.8c0,0,0,0.1,0,0.1c0,0,0,0,0,0C140.9,130.9,140.9,130.9,140.9,130.8
			C141,130.8,141,130.8,140.9,130.8z"/>
		<polygon fill="#F2F2F2" points="140.9,131.1 140.9,131.1 140.9,131.1 		"/>
		<path fill="#F2F2F2" d="M182.7,129.1c0,0,0,0.1,0,0.2c0,0,0,0,0,0C182.7,129.3,182.7,129.2,182.7,129.1
			C182.7,129.2,182.7,129.1,182.7,129.1C182.7,129.1,182.7,129.1,182.7,129.1z"/>
		<polygon fill="#F2F2F2" points="75.2,157.6 75.2,157.6 75.2,157.6 		"/>
		<polygon fill="#F2F2F2" points="171,210.9 171,210.9 171,210.9 		"/>
		<path fill="#F2F2F2" d="M172.2,184.4C172.2,184.4,172.2,184.4,172.2,184.4L172.2,184.4C172.2,184.4,172.2,184.4,172.2,184.4z"/>
		<polygon fill="#F2F2F2" points="174.8,74.9 174.8,74.9 174.8,74.9 		"/>
		<path fill="#F2F2F2" d="M87.3,175.1L87.3,175.1L87.3,175.1C87.3,175.1,87.3,175.1,87.3,175.1z"/>
		<path fill="#F2F2F2" d="M75.5,157.3C75.5,157.3,75.5,157.3,75.5,157.3L75.5,157.3C75.6,157.3,75.6,157.3,75.5,157.3
			C75.5,157.3,75.5,157.3,75.5,157.3z"/>
		<path fill="#F2F2F2" d="M139.6,131.8c0.1,0,0.1-0.1,0.1-0.2c0-0.1-0.1-0.1-0.2,0C139.5,131.6,139.5,131.7,139.6,131.8
			C139.6,131.8,139.6,131.8,139.6,131.8z"/>
		<path fill="#F2F2F2" d="M101.5,160.7C101.5,160.7,101.5,160.7,101.5,160.7C101.5,160.7,101.5,160.7,101.5,160.7
			C101.5,160.7,101.5,160.7,101.5,160.7z"/>
		<path fill="#F2F2F2" d="M182.7,129.4C182.7,129.4,182.7,129.4,182.7,129.4c0,0.2,0,0.4,0,0.5c0,0,0,0,0,0c0,0,0-0.1,0-0.1
			C182.9,129.6,182.9,129.6,182.7,129.4C182.7,129.4,182.7,129.4,182.7,129.4C182.7,129.4,182.7,129.4,182.7,129.4z"/>
		<path fill="#F2F2F2" d="M79.8,136C79.8,136,79.8,136.1,79.8,136L79.8,136C79.7,136.1,79.8,136,79.8,136z"/>
		<polygon fill="#F2F2F2" points="143.1,124.7 143.1,124.7 143.1,124.7 		"/>
		<path fill="#F2F2F2" d="M108.5,160.8C108.5,160.8,108.5,160.8,108.5,160.8C108.5,160.8,108.5,160.8,108.5,160.8
			C108.5,160.8,108.5,160.8,108.5,160.8z"/>
		<polygon fill="#F2F2F2" points="107.8,223.5 107.8,223.5 107.8,223.5 		"/>
		<path fill="#F2F2F2" d="M107.8,223.5C107.8,223.5,107.9,223.5,107.8,223.5C107.9,223.5,107.9,223.5,107.8,223.5
			C107.8,223.5,107.8,223.5,107.8,223.5z"/>
		<path fill="#F2F2F2" d="M113.1,138.8C113.1,138.8,113.1,138.8,113.1,138.8C113,138.8,113,138.8,113.1,138.8
			C113,138.8,113,138.8,113.1,138.8L113.1,138.8z"/>
		<path fill="#F2F2F2" d="M142.7,124.6C142.7,124.6,142.7,124.6,142.7,124.6C142.7,124.6,142.7,124.6,142.7,124.6
			C142.7,124.6,142.7,124.6,142.7,124.6C142.7,124.6,142.7,124.6,142.7,124.6z"/>
		<path fill="#F2F2F2" d="M175,73.6C175.1,73.6,175.1,73.6,175,73.6C175.1,73.6,175.1,73.6,175,73.6C175.1,73.6,175,73.6,175,73.6z"
			/>
		<path fill="#F2F2F2" d="M116.1,180C116.1,180,116.1,180,116.1,180C116.1,180,116.1,180,116.1,180C116.1,180,116.1,180,116.1,180z"
			/>
		<path fill="#F2F2F2" d="M139.8,139.1C139.8,139.1,139.8,139.1,139.8,139.1C139.8,139.1,139.8,139.1,139.8,139.1
			C139.8,139.1,139.8,139.1,139.8,139.1C139.8,139.1,139.8,139.1,139.8,139.1z"/>
		<path fill="#F2F2F2" d="M116.2,180.2c0,0,0,0.1,0,0.1c0,0,0.1,0,0.1,0C116.3,180.3,116.3,180.3,116.2,180.2c0.1-0.1,0-0.1,0-0.2
			C116.2,180.1,116.2,180.1,116.2,180.2z"/>
		<polygon fill="#F2F2F2" points="136.7,149.9 136.7,149.9 136.7,149.9 		"/>
		<path fill="#F2F2F2" d="M138.8,130.6c0-0.1-0.1-0.1-0.2-0.1c0,0-0.1,0.1-0.1,0.1c0,0,0,0.1,0.1,0.1
			C138.7,130.7,138.8,130.7,138.8,130.6z"/>
		<path fill="#F2F2F2" d="M141.1,89C141.1,89,141.2,89,141.1,89C141.2,89,141.1,89,141.1,89C141.1,89,141.1,89,141.1,89z"/>
		<polygon fill="#F2F2F2" points="137.4,84.3 137.4,84.3 137.4,84.3 137.4,84.3 		"/>
		<polygon fill="#F2F2F2" points="116.2,217.6 116.2,217.6 116.2,217.6 		"/>
		<path fill="#F2F2F2" d="M134.4,131.4c0-0.1-0.1-0.2-0.2-0.1c0,0,0,0.1-0.1,0.1c0,0,0.1,0.1,0.1,0.1
			C134.3,131.5,134.3,131.5,134.4,131.4C134.4,131.4,134.4,131.4,134.4,131.4z"/>
		<path fill="#F2F2F2" d="M131.5,81.6l-10.3-5.2l-20.6-10.3v10.3v5.2l-10.3-5.2L69.7,66.2v10.3v134l20.6,10.3v-31.2c0,0,0,0,0,0
			c-0.1-0.1-0.2-0.2-0.3-0.1c-0.1,0-0.1,0-0.2,0c0,0,0,0,0,0l0,0c0,0,0,0,0,0c0,0,0,0,0,0c0.1,0.1,0.1,0.1,0.1,0.2
			c0,0.1-0.1,0.1-0.2,0.1c0,0-0.1,0-0.1-0.1c0-0.1,0-0.2,0.1-0.2c0,0,0.1,0,0.1,0c0,0,0,0,0,0c0,0,0,0,0,0c0-0.2,0.1-0.3,0-0.5
			c0-0.1-0.1-0.1-0.2-0.1c-0.1,0-0.2,0-0.2,0.1c0,0.1-0.1,0.2-0.1,0.2c0,0.1-0.1,0.1-0.2,0.2c0,0-0.1,0-0.1,0
			c-0.1,0-0.1-0.1-0.1-0.2c0-0.1,0-0.3,0-0.4c0-0.2,0.1-0.4,0.2-0.6c0.1-0.1,0.1-0.1,0.2-0.1c0.2,0,0.3,0,0.5,0
			c0.1,0.1,0.2,0.3,0.3,0.4c0.1,0.1,0.1,0.1,0.2,0.1c0,0,0,0,0.1,0v-0.6c-0.2-0.1-0.4-0.3-0.6-0.4c-0.2-0.2-0.3-0.5-0.4-0.8
			c-0.2-0.3-0.4-0.6-0.7-0.7c-0.2-0.1-0.3-0.2-0.5-0.2c-0.1-0.1-0.3,0-0.4,0.2c0,0.1,0,0.3-0.1,0.4c-0.1,0.1-0.2,0-0.4,0
			c0,0-0.1,0-0.1,0c-0.1,0-0.2,0-0.2,0.1c-0.1,0.1-0.2,0.2-0.2,0.3c-0.1,0.2-0.2,0.3-0.3,0.4c-0.1,0.1-0.1,0.1-0.2,0.1
			c-0.2,0.1-0.3,0.1-0.5,0.1c-0.1,0-0.2,0-0.2-0.1c-0.1-0.1-0.1-0.1,0-0.2c0.1-0.2,0.2-0.4,0.4-0.5c0.2-0.1,0.4-0.3,0.7-0.4
			c0.3-0.1,0.4-0.3,0.5-0.6c0-0.2,0.1-0.3,0.3-0.4c0.1-0.1,0.3-0.2,0.5-0.1c0.1,0.1,0.2,0,0.2-0.2c0-0.3-0.1-0.5-0.4-0.6
			c-0.1,0-0.2,0-0.3-0.1c-0.3-0.1-0.4-0.1-0.2-0.4c0.1-0.3,0.1-0.5-0.2-0.7c-0.1,0-0.2,0-0.2,0c-0.2,0.2-0.2,0.2-0.4,0.2
			c-0.3,0-0.3,0-0.4,0.2c0,0.1-0.1,0.1-0.1,0.2c0,0,0,0,0,0l0,0c0,0,0,0,0,0c0,0,0,0,0,0c0.1,0,0.2,0,0.2,0.1c0,0.1,0,0.2-0.1,0.2
			c-0.1,0-0.1-0.1-0.1-0.1c0-0.1,0-0.1,0-0.2c0,0,0,0,0,0c0,0,0,0,0,0c-0.1,0-0.2,0-0.2-0.1c-0.1,0-0.2-0.1-0.1-0.2
			c0.1-0.2,0.2-0.5,0.2-0.7c0-0.1,0.1-0.2,0.3-0.3c0.5-0.2,0.9-0.4,1.2-0.7c0.1-0.1,0.3-0.2,0.4-0.3c0.2-0.2,0.5-0.4,0.8-0.5
			c0.2-0.1,0.3-0.2,0.4-0.3c0.1-0.1,0.1-0.1,0.2,0c0.1,0.1,0.2,0.3,0.1,0.3c0,0,0,0.1-0.1,0.1c-0.2,0.2-0.4,0.4-0.6,0.7
			c-0.2,0.3-0.2,0.6-0.3,0.8c0,0-0.1,0.1-0.1,0.1c0,0-0.1,0-0.1,0c-0.1-0.1-0.1-0.2-0.1-0.4c0-0.2-0.1-0.3-0.2-0.2
			c-0.1,0-0.2,0.1-0.2,0.1c-0.2,0.2-0.2,0.4-0.1,0.6c0.1,0.2,0.2,0.3,0.3,0.5c0.1,0.2,0.2,0.3,0.4,0.3c0.2,0,0.4,0.1,0.5,0.3
			c0.1,0.1,0.2,0.3,0.3,0.4c0.2,0.2,0.3,0.4,0.2,0.7c0,0.1,0,0.2,0,0.3c0,0.1,0,0.3,0.1,0.4c0.4,0.3,0.5,0.7,0.8,1
			c0.1,0.1,0.1,0.1,0.1,0.2c0.1,0.2,0.1,0.3,0.2,0.5v-17.6c-0.2,0.1-0.4,0.3-0.5,0.4c0,0-0.1,0-0.1,0.1c-0.3,0.5-0.8,0.8-1.2,1.2
			c-0.1,0.1-0.1,0.4,0.1,0.4c0.1,0.1,0.2,0.1,0.3,0.2c0.1,0.1,0.1,0.1,0.1,0.2c0,0.1-0.1,0.1-0.2,0.1c0,0-0.1,0-0.1,0
			c0,0-0.1,0-0.1,0c-0.2-0.1-0.5-0.1-0.8-0.1c-0.5,0.1-0.9,0.4-1,0.9c-0.1,0.2-0.2,0.2-0.4,0.2c-0.1,0-0.2,0-0.2,0.1
			c-0.1,0.1-0.2,0.1-0.3,0.2c-0.3,0.2-0.4,0.4-0.3,0.8c0,0.1,0,0.3-0.1,0.3c-0.1,0.1-0.2,0.1-0.3,0.2c-0.2,0.1-0.4,0.3-0.7,0.3
			c-0.1,0-0.3,0.1-0.4,0.1c-0.3,0.2-0.6,0.4-0.8,0.6c-0.3,0.2-0.5,0.4-0.8,0.6c0,0,0,0,0,0.1l0,0c0,0,0,0,0,0c0,0,0,0,0,0
			c-0.2,0.2-0.3,0.4-0.5,0.6c-0.1,0.1-0.3,0.2-0.5,0.2c0,0-0.1,0-0.1-0.1c0,0,0-0.1,0-0.1c0.1-0.2,0.3-0.3,0.4-0.5
			c0.1-0.1,0.2-0.2,0.3-0.2c0.1,0,0.2,0,0.3,0.1c0,0,0,0,0,0c0,0,0,0,0,0c0-0.1,0-0.2,0.1-0.3c0.2-0.3,0.3-0.5,0.5-0.7
			c0.1-0.1,0.2-0.3,0.2-0.5c0.1-0.3,0.3-0.4,0.5-0.5c0.1,0,0.2,0,0.3-0.1c0.1,0,0.2-0.1,0.2-0.1c0.2-0.2,0.5-0.5,0.7-0.8
			c0.2-0.2,0.3-0.4,0.5-0.6c0-0.1,0.1-0.2,0.1-0.2c0-0.2,0.1-0.3,0.3-0.3c0.1,0,0.2,0,0.2-0.1c0.2-0.2,0.4-0.3,0.7-0.3
			c0.1,0,0.2-0.1,0.2-0.1c0.1-0.3,0.4-0.5,0.7-0.8c0.1-0.1,0.2-0.2,0.3-0.2c0.2-0.1,0.4-0.2,0.5-0.4c0.1-0.1,0.2-0.2,0.4-0.3
			c0.2-0.1,0.3-0.2,0.3-0.4c0-0.2,0.2-0.3,0.3-0.4c0.1-0.1,0.2-0.1,0.3-0.1c0.1,0,0.2,0,0.2-0.1c0.2-0.2,0.3-0.5,0.5-0.7
			c0,0,0,0,0,0c0,0,0,0,0,0c-0.1,0-0.1,0-0.1-0.1c0,0,0.1,0,0.1,0c0,0,0,0.1,0,0.1c0,0,0,0,0,0V86.8l10.3,5.2v93.3
			c0-0.1,0.1-0.1,0.2-0.1c0.1,0,0.2,0,0.2,0.1c0.2,0.3,0.4,0.6,0.6,0.8c0.1,0.1,0.1,0.2,0.1,0.3c0,0.1-0.2,0.3-0.4,0.3
			c0,0-0.1,0-0.1,0c-0.2-0.1-0.3-0.2-0.4-0.3c-0.1-0.2-0.2-0.5-0.3-0.7v40.3l20.6,10.3v-12.8c0,0-0.1,0-0.1,0c0,0,0,0,0,0l0,0
			c0,0,0,0-0.1,0c-0.1,0.1-0.2,0.2-0.3,0.3c0,0-0.1,0-0.1,0c0,0,0-0.1-0.1-0.1c0-0.1,0-0.2,0.1-0.2c0,0,0.1,0,0.1,0
			c0.1,0,0.2,0,0.3,0c0,0,0,0,0,0c0,0,0,0,0,0c0-0.1,0-0.1,0-0.2c0,0,0.1-0.1,0.1-0.1v-12.2c-0.2,0.2-0.4,0.5-0.7,0.6
			c0,0-0.1,0.1-0.1,0.1c-0.1,0.2-0.2,0.4-0.4,0.5c-0.1,0.1-0.3,0.2-0.4,0.3c-0.2,0.2-0.4,0.4-0.6,0.5c-0.1,0.1-0.3,0.2-0.5,0.2
			c-0.1,0-0.2-0.1-0.2-0.1c0-0.1,0-0.2,0-0.2c0.2-0.2,0.4-0.4,0.5-0.6c0.1-0.1,0.3-0.2,0.4-0.3c0.1-0.1,0.2-0.1,0.3-0.2
			c0.1,0,0.2-0.1,0.3-0.2c0.2-0.2,0.4-0.4,0.6-0.7c0.1-0.2,0.2-0.4,0.4-0.4c0.1,0,0.1-0.1,0.2-0.1c0,0,0.1-0.1,0.1-0.1v-39.8
			c0,0,0,0-0.1,0c-0.3,0.1-0.5,0.3-0.6,0.6c0,0.5-0.3,1-0.4,1.5c-0.1,0.3-0.1,0.6,0.2,0.8c0.1,0.1,0.1,0.4,0,0.5
			c-0.1,0.1-0.1,0.1-0.2,0.2c-0.1,0.1-0.2,0.1-0.2,0.1c-0.1,0.1-0.2,0.2-0.2,0.3c-0.2,0.4-0.3,0.8-0.4,1.2c-0.1,0.5-0.2,0.9-0.3,1.4
			c0,0.2-0.1,0.4-0.2,0.6c-0.2,0.4-0.2,0.8-0.3,1.2c-0.1,0.4-0.1,0.8-0.2,1.1c-0.1,0.4-0.1,0.8-0.3,1.1c0,0.1,0,0.3,0,0.4
			c0,0.1,0.1,0.3,0.1,0.4c0,0.2,0,0.3-0.1,0.5c-0.2,0.3-0.3,0.7-0.3,1.1c0,0.1-0.1,0.2-0.1,0.3c-0.1,0.1-0.2,0.3-0.2,0.5
			c0,0.3,0,0.6-0.1,0.9c-0.1,0.2,0,0.3,0,0.5c0,0.2,0,0.4-0.1,0.5c-0.2,0.2-0.3,0.5-0.4,0.8c0,0.1-0.2,0.2-0.3,0.2
			c0,0.3,0,0.7,0.1,1c0,0.1,0.3,0.2,0.4,0.1c0.2-0.2,0.4-0.4,0.7-0.6c0,0,0.1,0,0.1,0c0.1,0,0.1,0.1,0.2,0.1c0,0.1,0,0.2-0.1,0.2
			c-0.2,0.1-0.3,0.2-0.3,0.4c0,0,0,0.1,0,0.1c-0.1,0.3-0.3,0.6-0.6,0.8c-0.2,0.1-0.2,0.3-0.2,0.4c0,0.1-0.1,0.1-0.2,0
			c-0.1-0.1-0.1-0.2-0.2-0.1c-0.1,0-0.1,0.1-0.1,0.2c0,0.2,0,0.4,0.3,0.5c0,0,0.1,0.1,0.1,0.1c0,0,0,0.1,0,0.1
			c-0.1,0.2-0.2,0.5-0.3,0.7c-0.1,0.2,0,0.3,0.1,0.5c0,0,0,0,0,0l0,0c0,0,0.1,0,0.1,0c0,0.3,0,0.5,0,0.8c0,0.2,0,0.2-0.3,0.2
			c0,0-0.1,0-0.1,0c-0.1,0.1-0.2,0.3-0.3,0.4c0,0,0,0.1,0,0.1c0,0.4-0.3,0.8-0.3,1.3c0,0.2-0.1,0.3-0.1,0.5c-0.1,0.2,0,0.3,0.2,0.4
			c0.1,0,0.2,0,0.2,0.1c0.1,0,0.1,0.1,0.1,0.2c0,0,0,0.1-0.1,0.1c-0.2,0.2-0.3,0.3-0.5,0.3c-0.3,0.1-0.3,0.3-0.4,0.5
			c0,0.1,0,0.2,0,0.3c0,0.3-0.1,0.7-0.1,1c0,0.2-0.1,0.3-0.2,0.5c-0.1,0.1-0.1,0.3-0.2,0.5c-0.2,0.9-0.4,1.9-0.5,2.8
			c0,0.3-0.1,0.5-0.2,0.7c-0.2,0.6-0.4,1.2-0.3,1.8c0,0.2,0,0.3-0.1,0.5c-0.1,0.2-0.2,0.4-0.2,0.6c0,0.4-0.1,0.8-0.1,1.2
			c0,0.1-0.1,0.2-0.1,0.2c-0.1,0.2-0.2,0.3-0.3,0.6c-0.1,0.4-0.2,0.8-0.3,1.3c0,0.1-0.1,0.1-0.3,0.2c0,0,0,0,0,0c0,0,0,0,0,0
			c0,0,0,0,0,0c0,0.1,0.1,0.2,0.1,0.3c0,0.3-0.1,0.5-0.1,0.8c0,0.1-0.1,0.2-0.1,0.4c-0.1,0.3-0.2,0.6-0.3,0.9
			c-0.1,0.2-0.1,0.5-0.2,0.7c0,0.1-0.1,0.1-0.2,0c0,0-0.1-0.1-0.1-0.1c0,0,0-0.1,0.1-0.1c0.1-0.1,0.1-0.2,0.1-0.4c0-0.2,0-0.4,0-0.6
			c0-0.2,0.2-0.4,0.2-0.6c0.1-0.4,0.2-0.8,0.3-1.1c0-0.1,0.1-0.1,0.1-0.2c0,0,0,0,0,0c0,0,0,0,0,0c0-0.2-0.1-0.3-0.1-0.5
			c0-0.2,0-0.3,0.1-0.5c0.1-0.1,0.1-0.1,0.1-0.2c0.1-0.1,0.2-0.3,0.2-0.5c0,0,0-0.1,0-0.1c0.1-0.4-0.1-0.9,0.1-1.3
			c0.2-0.4,0.2-0.7,0.4-1.1c0.1-0.2,0.1-0.5,0.1-0.8c0-0.2,0-0.4,0-0.5c0.1-0.5,0.2-0.9,0.2-1.4c0-0.3,0.1-0.5,0.1-0.8
			c0-0.2,0.1-0.4,0.3-0.6c0.1-0.1,0.1-0.2,0.1-0.2c-0.1-0.3,0.1-0.5,0.1-0.7c0.1-0.2,0.2-0.4,0.3-0.6c0.1-0.2,0.2-0.5,0.2-0.7
			c0-0.1,0-0.3,0.1-0.4c0.1-0.4,0.2-0.8,0.2-1.1c0-0.3,0.1-0.6,0.1-0.9c0.1-0.4,0.1-0.8,0-1.2c-0.1-0.2,0-0.3,0.1-0.5
			c0.4-0.4,0.4-0.9,0.3-1.5c0-0.1-0.1-0.2-0.2-0.3c-0.2-0.2-0.2-0.3,0.1-0.5c0.1-0.1,0.2-0.2,0.3-0.2c0.1-0.1,0.2-0.2,0.3-0.4
			c0.2-0.4,0.3-0.7,0.4-1.1c0-0.1,0.1-0.2,0.1-0.4c0-0.4,0.1-0.8,0.2-1.1c0-0.6,0.2-1.1,0.2-1.7c0,0,0,0,0,0l0,0
			c0.1-0.1,0-0.3,0-0.4c-0.1-0.2-0.2-0.2-0.4-0.1c-0.4,0.2-0.4,0.2-0.5-0.1c0-0.1-0.1-0.1-0.1-0.2c0,0,0-0.1-0.1-0.1
			c-0.1-0.1,0-0.2,0.2-0.3c0.2,0,0.3-0.1,0.4-0.3c0-0.1,0.1-0.1,0.1-0.2c0.1-0.1,0.2-0.1,0.3-0.1c0.2,0,0.4-0.1,0.4-0.2
			c0.1-0.3,0.1-0.5,0-0.8c-0.2-0.3-0.2-0.5,0.1-0.7c0,0,0.1-0.1,0.1-0.1c0,0,0.1-0.1,0.1-0.1c0.1-0.3,0.2-0.6,0.3-1
			c0.1-0.2,0-0.3-0.1-0.5c0-0.1,0-0.2,0-0.2c0.3-0.3,0.3-0.7,0.4-1.1c0.2-0.8,0.3-1.7,0.7-2.5c0.1-0.7,0.4-1.4,0.4-2.2
			c0-0.3,0.1-0.5,0.2-0.7c0.2-0.3,0.2-0.6,0.2-0.9c0-0.1,0-0.2,0-0.3c0-0.4,0.1-0.7,0.2-1c0-0.1,0.1-0.2,0.1-0.2
			c0.1-0.3,0.2-0.6,0.2-0.9c0-0.2,0-0.4,0.1-0.6c0.2-0.4,0.2-0.8,0.2-1.3c0-0.1,0-0.2,0.1-0.2c0.2-0.2,0.3-0.5,0.3-0.8
			c0-0.4,0.1-0.7,0.2-1c0.2-0.4,0.3-0.8,0.4-1.2v-6.1c-0.1-0.1-0.2-0.2-0.3-0.3c-0.2-0.1-0.2-0.3-0.2-0.4c0-0.3,0.1-0.7,0.4-0.9
			c0,0,0.1-0.1,0.1-0.1v-17.4c-0.3,0.2-0.6,0.5-0.9,0.8c-0.1,0.1-0.1,0.1-0.1,0.2c0,0,0,0,0,0c0,0,0,0,0,0c0,0,0,0,0,0c0,0,0,0,0,0
			c0,0,0,0,0,0c0,0,0,0,0,0c0-0.1-0.1-0.2-0.1-0.2c0-0.1,0-0.2,0-0.2c0.2-0.2,0.3-0.5,0.5-0.7c0.1-0.2,0.2-0.2,0.4-0.2
			c0,0,0.1,0,0.1,0c0,0,0.1,0,0.1-0.1V86.8l10.3,5.2v7.6c0-0.1,0-0.1,0.1-0.2c0.1-0.1,0.1-0.1,0.1-0.2c0.1-0.5,0.2-0.9,0.3-1.4
			c0.1-0.2,0.1-0.4,0.1-0.6c0-0.3,0.1-0.5,0.1-0.8c0.1-0.6,0.2-1.1,0.3-1.7c0-0.3,0.2-0.7,0.2-1c0-0.3,0.1-0.7,0.1-1
			c0-0.3,0.1-0.7,0.2-1c0-0.2,0.1-0.3,0.1-0.5c0.1-0.3,0.2-0.6,0.2-0.9c0,0,0-0.1,0.1-0.1c0,0,0.1,0,0.1,0.2c0,1.5-0.1,2.2-0.3,3.2
			c0,0.2-0.1,0.4-0.1,0.6c0,0.1,0,0.3,0,0.4c0,0.3-0.2,0.6-0.2,0.9c0,0.3,0,0.6-0.1,0.9c0,0.1,0,0.3-0.1,0.4c-0.1,0.2,0,0.4,0.1,0.6
			c0.1,0.1,0.1,0.2-0.1,0.3c-0.2,0.2-0.3,0.4-0.1,0.7c0,0,0.1,0.1,0.1,0.1c0.1,0.1,0.1,0.3,0,0.3c-0.1,0.1-0.1,0.1-0.2,0.1
			c0,0-0.1,0.1-0.1,0.1c-0.1,0.3-0.2,0.6-0.3,0.9c-0.1,0.6-0.2,1.2-0.3,1.8c0,0.3,0,0.6-0.2,0.8v29.9c0.1-0.1,0.3-0.3,0.5-0.4
			c0.1,0,0.1-0.1,0.2-0.2c0.2-0.3,0.3-0.7,0.4-1.1c0-0.1,0.1-0.2,0.2-0.2c0.3,0,0.5-0.1,0.7-0.2c0.2,0.2,0.4,0.1,0.6,0
			c0.2-0.1,0.4-0.2,0.5-0.4c0.1-0.1,0.1-0.1,0.2-0.2c0.3-0.3,0.5-0.6,0.8-0.8c0.1-0.1,0.1-0.1,0.2-0.1c0.1-0.1,0.3,0,0.4,0
			c0.1,0.1,0.2,0.3,0.4,0.4c0.1,0.1,0.4,0.1,0.5,0c0.2-0.1,0.4-0.2,0.5-0.4c0.2-0.2,0.3-0.2,0.5-0.3c0-0.1,0-0.1,0.1-0.2
			c0-0.2,0-0.2,0.2-0.2c0.1,0,0.2,0,0.2,0c0.3,0,0.4,0.2,0.4,0.5c0.1,0.1,0.2,0.1,0.3,0.2c0.2,0.2,0.3,0.3,0.2,0.6
			c-0.1,0.3,0,0.5,0.2,0.8c0,0,0.1,0,0.1,0.1c0.1,0,0.2,0,0.2-0.1c0-0.1,0.1-0.1,0.1-0.2c0-0.2,0.1-0.3,0.1-0.5
			c0-0.3,0.1-0.5,0.2-0.7c0.1-0.1,0.1-0.3,0-0.5c-0.1-0.1-0.2-0.3-0.3-0.4c-0.1-0.1-0.3-0.2-0.4-0.3c-0.1-0.1-0.2-0.3-0.4-0.2
			c-0.1,0-0.2,0.1-0.3,0.2c-0.1,0.1-0.2,0.1-0.3-0.2c-0.1-0.2-0.2-0.3-0.4-0.2c-0.1,0-0.2,0-0.3,0c0,0-0.1,0-0.1,0
			c-0.1,0-0.2-0.2-0.2-0.3c0.1-0.3,0.2-0.6,0.4-0.8c0.1-0.1,0.4-0.1,0.4,0.1c0,0.1,0.1,0.2,0.1,0.2c0,0.1,0.1,0.1,0.2,0.2
			c0.1,0.1,0.2,0.1,0.2,0c0.1-0.1,0.1-0.1,0.1-0.2c-0.2-0.3-0.3-0.5-0.2-0.9c0-0.1,0.1-0.2,0.2-0.1c0.1,0,0.3,0.1,0.3,0.2
			c0.1,0.3,0.3,0.5,0.5,0.7c0.1-0.2,0.2-0.3,0.4-0.5c0.1-0.1,0.2-0.1,0.3,0c0.1,0.1,0.1,0.2,0.2,0.3c0,0.3,0.1,0.6,0.1,0.9
			c0,0.2,0.1,0.3,0.2,0.5c0.2,0.2,0.2,0.5,0.2,0.7c0,0.2,0.1,0.4,0.3,0.4c0.3,0.1,0.5,0.4,0.8,0.6c0.1,0.1,0.1,0.1,0.1,0.2
			c0,0.2-0.1,0.3-0.1,0.5c0,0.1-0.1,0.2-0.2,0.3c-0.1,0.1-0.2,0.2-0.3,0.3c-0.1,0.2-0.1,0.3,0,0.5c0.1,0.2,0.3,0.3,0.4,0.5
			c0,0.1,0,0.2-0.1,0.2c-0.1,0-0.2,0-0.3,0c-0.3,0-0.3,0-0.4,0.2c0,0.1,0,0.2-0.1,0.3c-0.1,0.3-0.2,0.5-0.5,0.5
			c-0.1,0-0.3,0-0.4,0.1c-0.2,0.2-0.5,0.3-0.6,0.5c0,0,0,0,0,0c0,0,0,0,0,0c0,0,0,0,0,0c0,0,0,0,0,0l0,0c0,0,0,0,0,0c0,0,0,0,0,0
			c0,0,0,0,0.1,0c0,0,0,0,0,0c0,0,0,0,0,0c0,0,0,0,0,0c0.1-0.2,0.1-0.4,0-0.6c0,0-0.1,0-0.1,0c0,0-0.1,0-0.1,0
			c-0.1,0.2-0.1,0.3-0.3,0.4c-0.3,0.1-0.2,0.3-0.1,0.6c0,0,0,0.1-0.1,0.1c0,0-0.1,0-0.1,0c-0.1,0-0.1-0.1-0.2-0.2
			c0-0.1-0.1-0.2-0.2-0.3c-0.2-0.2-0.2-0.3,0-0.4c0.1-0.1,0.2-0.1,0.3-0.3c0.1-0.1,0-0.3,0-0.4c-0.2-0.2-0.5-0.4-0.7-0.5
			c-0.1,0-0.2,0-0.2,0c-0.1,0.1-0.1,0.1-0.1,0.2c0.1,0.2,0.1,0.3,0.2,0.5c0,0,0,0.1,0,0.1c0,0.1-0.1,0.1-0.2,0
			c-0.1-0.1-0.2-0.3-0.3-0.4c0-0.1-0.1-0.1-0.2-0.1c-0.4,0-0.7-0.3-1-0.5c-0.1-0.1-0.2-0.2-0.3-0.3c-0.1-0.1-0.2-0.3-0.2-0.5
			c-0.1-0.2-0.3-0.3-0.5-0.4c-0.2,0-0.2,0.1-0.2,0.2c0,0.1,0.1,0.2,0.1,0.4c0,0.1,0,0.2,0,0.2c-0.2,0.2-0.4,0.5-0.6,0.6
			c-0.1,0.1-0.3,0.1-0.4,0c-0.3-0.1-0.5,0-0.6,0.3c0,0.1-0.1,0.1-0.2,0.2c-0.1,0.1-0.1,0.1-0.2,0c-0.1,0-0.2-0.1-0.2-0.1
			c-0.1,0-0.2,0-0.2,0.1c-0.1,0.3-0.3,0.5-0.6,0.6c-0.1,0-0.1,0-0.2,0v33.5c0.1-0.1,0.2-0.2,0.4-0.2c0.1,0,0.2,0,0.3,0
			c0.2,0,0.3,0.3,0.2,0.5c-0.1,0.1-0.1,0.1-0.2,0.2c-0.2,0.2-0.2,0.2,0,0.4c0.1,0.1,0.1,0.2,0.2,0.3c0,0.1,0,0.2,0,0.2
			c0,0.1-0.2,0.2-0.3,0.2c-0.1,0-0.2-0.1-0.2-0.1c-0.1-0.1-0.1-0.3-0.2-0.5c0,0,0,0,0,0V219c0.1,0,0.1,0,0.2,0c0.2,0,0.3,0,0.3,0
			c0.2,0,0.3,0,0.3,0c0.3,0,0.5,0,0.7-0.2c0.1-0.1,0.3-0.1,0.4,0.1c0.2,0.3,0.2,0.3,0,0.7c-0.1,0.1-0.1,0.2,0,0.3
			c0.1,0.1,0.1,0.1,0.2,0.2c0,0.1,0.1,0.1,0.1,0.2c0,0,0,0.1,0,0.1c-0.1,0.1-0.1,0.1-0.2,0.1c-0.1,0-0.2-0.1-0.3-0.2
			c-0.2-0.1-0.3-0.2-0.4-0.5c-0.1-0.2-0.3-0.3-0.5-0.3c-0.2,0-0.4,0-0.6,0c0,0-0.1,0-0.1,0v10.3c0.1,0,0.1,0,0.2,0c0,0,0.1,0,0.1,0
			c0.1,0,0.2,0.1,0.2,0.1c0.1,0,0.2,0.2,0.1,0.3c0,0.1-0.1,0.1-0.2,0.1c-0.1-0.1-0.3-0.1-0.4,0v4c0,0,0,0,0,0c0,0.1,0,0.1,0,0.2v6.9
			l20.6,10.3V66.2l-20.6-10.3V81.6z M89.1,198.5C89.1,198.5,89.2,198.5,89.1,198.5c0.1,0.2,0.1,0.3,0,0.3c0,0-0.1,0-0.1-0.1
			C89,198.6,89,198.5,89.1,198.5z M88.2,199.2C88.2,199.2,88.2,199.1,88.2,199.2C88.2,199.1,88.2,199.1,88.2,199.2
			C88.2,199.2,88.2,199.2,88.2,199.2C88.1,199.2,88.1,199.2,88.2,199.2C88.1,199.1,88.1,199.1,88.2,199.2
			C88.1,199.1,88.1,199.1,88.2,199.2C88.1,199.1,88.1,199.1,88.2,199.2L88.2,199.2C88.2,199.1,88.2,199.1,88.2,199.2
			C88.2,199.1,88.2,199.1,88.2,199.2z M86.7,191.1c0.1-0.2,0.2-0.3,0.3-0.5c0.1-0.2,0.1-0.3,0-0.5c-0.1-0.1-0.1-0.2-0.1-0.4
			c0-0.1,0.2-0.2,0.3-0.2c0.1,0,0.2,0.1,0.2,0.1c0.2,0.1,0.5,0.2,0.7,0.3c0.2,0,0.3,0,0.5,0.1c0.1,0,0.2,0.1,0.1,0.3
			c0,0.1-0.1,0.2-0.1,0.4c0,0.1-0.1,0.2-0.3,0.3c-0.1,0-0.2,0.1-0.2,0.1c-0.2,0-0.3,0-0.5,0.1c-0.1,0.1-0.3,0.2-0.4,0.3
			c-0.2,0.1-0.3,0.1-0.5-0.1c0,0,0-0.1-0.1-0.1C86.7,191.2,86.7,191.2,86.7,191.1z M85.6,201.2c0-0.1,0.1-0.2,0.2-0.1
			c0.1,0,0.1,0.3,0,0.3c0,0-0.1,0-0.1,0C85.5,201.4,85.5,201.3,85.6,201.2z M89.7,180.6c0-0.1,0.1-0.2,0.2-0.1c0.1,0,0.1,0.1,0,0.2
			c0,0.1-0.1,0.1-0.2,0.1c0,0-0.1-0.1-0.1-0.1C89.7,180.7,89.7,180.7,89.7,180.6z M89.4,185.5L89.4,185.5L89.4,185.5L89.4,185.5z
			 M88.5,180.2c0.1,0,0.1,0.1,0.2,0.1c0,0.1,0,0.3-0.1,0.3c-0.1,0-0.3-0.1-0.3-0.2c0-0.1,0-0.2,0-0.2
			C88.4,180.2,88.5,180.2,88.5,180.2z M88,174.7c0.1-0.2,0.2-0.2,0.4-0.4c0,0,0.1,0,0.1,0c0,0.2-0.1,0.3-0.2,0.4c0,0-0.1,0-0.1,0
			C88,174.9,87.9,174.8,88,174.7z M86.7,175.6c0-0.1,0.1-0.1,0.2-0.2c0.1-0.1,0.3-0.2,0.4-0.3c0,0,0,0,0,0l0,0c0,0,0,0,0,0
			c0.1,0,0.2,0,0.2,0.1c0,0-0.1,0-0.1,0c0,0-0.1,0-0.1-0.1c0,0,0,0,0,0c0,0,0,0,0,0c0,0.1,0,0.2-0.1,0.3c-0.1,0.1-0.2,0.2-0.4,0.4
			c0,0-0.1,0-0.1,0C86.7,175.7,86.7,175.7,86.7,175.6z M84.1,214.7C84.1,214.7,84.1,214.7,84.1,214.7c0-0.1,0-0.1,0-0.2
			C84.2,214.6,84.2,214.6,84.1,214.7C84.2,214.7,84.2,214.7,84.1,214.7z M85.1,176.5c0-0.1,0.1-0.2,0.3-0.1c0.1,0.1,0.3,0.2,0.4,0.3
			c-0.2,0.3-0.5,0.6-0.8,0.8c0,0-0.1,0-0.1,0c0,0-0.1-0.1-0.1-0.1C84.9,177,85.1,176.8,85.1,176.5z M82.7,213.7
			C82.8,213.7,82.8,213.6,82.7,213.7c0.4-0.2,0.7-0.4,0.9-0.7c0,0,0.1,0,0.1-0.1c0,0,0.1,0,0.1,0c0.2,0.1,0.4,0.1,0.6,0.2
			c0,0,0,0.1,0,0.1c0,0,0,0.1,0,0.1c-0.5,0.2-1,0.4-1.5,0.6c-0.1,0-0.2,0-0.2,0C82.7,213.8,82.7,213.8,82.7,213.7z M82.4,199.4
			l0,0.1L82.4,199.4L82.4,199.4z M81.9,214.1c0,0,0.1,0,0.1,0c0,0,0,0.1,0,0.1c0,0-0.1,0-0.1,0C81.8,214.2,81.8,214.1,81.9,214.1z
			 M78.8,91.2c0.1,0,0.2,0,0.2,0.1c0,0,0,0.1-0.1,0.1c-0.1,0.1-0.1,0.1-0.2,0.1c0,0-0.1,0-0.1,0c0,0,0-0.1,0-0.1
			C78.6,91.3,78.7,91.2,78.8,91.2z M76.9,102.3l0,0.1L76.9,102.3L76.9,102.3z M74.6,100.4c0,0.1-0.1,0.2-0.3,0.2
			c-0.1,0-0.2,0-0.2-0.1c-0.1-0.1-0.2-0.2-0.1-0.3c0-0.1,0.2-0.2,0.3-0.2C74.5,100,74.6,100.2,74.6,100.4z M74.2,87
			c0.1,0.1,0.1,0.1,0.1,0.2c0,0-0.1,0-0.1,0.1c-0.1,0-0.2,0-0.2-0.1c0,0,0-0.1,0-0.1c0,0,0-0.1,0.1-0.1C74.1,86.9,74.2,86.9,74.2,87
			z M73.8,82.3c0.1-0.1,0.1-0.1,0.2,0c0.1,0.1,0.1,0.1,0,0.2c-0.1,0-0.2,0-0.2,0C73.7,82.4,73.8,82.3,73.8,82.3z M70.7,140.4
			c0.1,0,0.3,0.2,0.3,0.3c-0.1,0.2-0.3,0.4-0.6,0.4c0,0-0.1-0.1-0.1-0.1C70.2,140.7,70.4,140.4,70.7,140.4z M70.7,210.5
			c-0.1,0.1-0.2,0.1-0.2,0c-0.2,0-0.3-0.2-0.3-0.3c-0.1-0.2,0-0.3,0.2-0.3c0.1,0,0.2,0,0.2,0c0.1,0,0.2,0.1,0.2,0.3
			C70.9,210.3,70.8,210.4,70.7,210.5z M70.5,187.9c-0.2,0.1-0.4,0.2-0.5,0.3c-0.1,0-0.2,0-0.2,0c-0.1-0.1-0.1-0.1-0.1-0.2
			c0-0.2,0.1-0.3,0.3-0.4c0.2-0.1,0.4-0.3,0.6-0.4c0.1-0.1,0.2-0.2,0.3-0.2c0,0,0.1,0.1,0.1,0.1C71,187.4,70.8,187.7,70.5,187.9z
			 M73,205.4C72.9,205.3,72.9,205.3,73,205.4c0-0.1,0-0.1,0-0.1C73,205.2,73,205.3,73,205.4C73,205.3,73,205.3,73,205.4z
			 M73.5,177.2c-0.1,0-0.1-0.1-0.1-0.2c0,0,0-0.1,0-0.1c0.1-0.1,0.1-0.1,0.2,0c0.1,0.1,0.1,0.1,0.1,0.2
			C73.7,177.2,73.6,177.2,73.5,177.2z M75,172.8c-0.4,0.1-0.8,0.1-1.2,0c-0.1,0-0.2-0.1-0.1-0.2c0,0,0.1-0.1,0.1-0.1
			c0.2,0,0.3-0.1,0.7-0.1C74.6,172.5,74.8,172.6,75,172.8C75,172.7,75,172.8,75,172.8z M75.2,157.6c-0.2,0.2-0.4,0.2-0.6,0.2
			c0,0,0-0.1-0.1-0.1c0,0,0-0.1,0-0.1c0,0,0.1-0.1,0.1-0.1C74.8,157.6,75,157.5,75.2,157.6C75.2,157.6,75.2,157.6,75.2,157.6
			C75.2,157.6,75.2,157.6,75.2,157.6c0.1-0.1,0.1-0.1,0.1-0.1C75.3,157.5,75.2,157.5,75.2,157.6C75.2,157.6,75.2,157.6,75.2,157.6z
			 M74.9,153.5c0.1,0,0.2,0,0.2,0c0.1,0.1,0.2,0.3,0.1,0.5c0,0,0,0.1-0.1,0.1c0,0-0.1,0-0.1,0c-0.1,0-0.3-0.1-0.3-0.2
			C74.7,153.7,74.7,153.5,74.9,153.5z M75.3,183.2L75.3,183.2L75.3,183.2L75.3,183.2z M75.6,157.3C75.6,157.3,75.5,157.3,75.6,157.3
			c-0.1,0.1-0.1,0.1-0.1,0.1C75.5,157.3,75.5,157.3,75.6,157.3C75.5,157.3,75.5,157.3,75.6,157.3C75.5,157.3,75.5,157.3,75.6,157.3
			C75.5,157.2,75.5,157.3,75.6,157.3C75.5,157.3,75.5,157.3,75.6,157.3C75.6,157.3,75.6,157.3,75.6,157.3L75.6,157.3L75.6,157.3z
			 M75.8,172.8L75.8,172.8L75.8,172.8L75.8,172.8z M76.4,155.8C76.4,155.8,76.3,155.8,76.4,155.8c-0.2-0.1-0.3-0.2-0.4-0.2
			c-0.2-0.3-0.4-0.7-0.5-1c0,0,0.1,0,0.1-0.1c0.2,0,0.3,0,0.3,0.1c0.1,0.2,0.1,0.4,0.2,0.6c0.1,0.2,0.3,0.3,0.3,0.6
			C76.4,155.7,76.4,155.8,76.4,155.8z M76.6,150.9C76.6,150.9,76.6,150.9,76.6,150.9c-0.1-0.1-0.1-0.2,0-0.2c0.1-0.1,0.1,0,0.2,0
			c0,0,0.1,0.1,0,0.1C76.8,150.9,76.7,151,76.6,150.9z M75.3,148.4c-0.1-0.1-0.2-0.3-0.3-0.4c-0.1-0.1-0.1-0.1-0.2-0.1
			c-0.3,0-0.5-0.3-0.8-0.4c-0.1-0.1-0.2-0.2-0.1-0.4c0.1-0.2,0-0.4-0.2-0.6c-0.1-0.1-0.3-0.2-0.4-0.3c-0.1-0.1-0.1-0.1-0.2-0.1
			c-0.1,0-0.2,0-0.2,0c-0.4,0.2-0.7,0-0.9-0.3c-0.1-0.1-0.1-0.2-0.1-0.4c0.2-0.3,0.1-0.7,0-1c-0.1-0.2,0-0.3,0.2-0.4
			c0.1,0,0.2,0,0.2,0c0.1,0,0.2,0.1,0.3,0.2c0.1,0.1,0.2,0.3,0.4,0.3c0.1,0,0.3,0,0.4,0c0.1,0,0.2,0.1,0.2,0.3c0,0.1-0.1,0.2,0,0.2
			c0,0.1,0.1,0.1,0.2,0.2c0.2,0.1,0.2,0.2,0.2,0.4c0,0.1,0.1,0.2,0.2,0.3c0.3,0.1,0.5,0.2,0.6,0.4c0.2,0.3,0.4,0.5,0.7,0.7
			c0.1,0.1,0.2,0.2,0.2,0.3c0.1,0.3,0.3,0.5,0.5,0.8c0.1,0.1,0.1,0.3,0.2,0.5c0,0.2,0.1,0.3,0.2,0.5c0.3,0.4,0.6,0.7,0.8,1.2
			c0,0.1,0,0.3-0.1,0.3c0,0-0.1,0-0.1,0c-0.1,0-0.1-0.1-0.2-0.2C76.5,149.6,75.9,148.9,75.3,148.4z M77.3,181.4
			c-0.1,0-0.2,0-0.2-0.1c0,0,0-0.1,0-0.1c0.1-0.1,0.2-0.2,0.3-0.3c0.1,0,0.3,0.1,0.3,0.2C77.7,181.3,77.6,181.4,77.3,181.4z
			 M77.8,152.6C77.8,152.6,77.8,152.6,77.8,152.6C77.8,152.6,77.8,152.6,77.8,152.6C77.8,152.5,77.8,152.5,77.8,152.6
			c-0.2,0-0.3-0.1-0.4-0.3c-0.1-0.1,0-0.2,0.1-0.2c0,0,0.1,0,0.1,0c0.1,0,0.2,0,0.2,0.1C77.8,152.3,77.8,152.4,77.8,152.6
			C77.8,152.5,77.8,152.5,77.8,152.6L77.8,152.6C77.8,152.5,77.9,152.5,77.8,152.6C77.8,152.5,77.8,152.6,77.8,152.6
			C77.9,152.6,77.9,152.7,77.8,152.6z M78.2,137.1c0,0,0-0.1,0-0.1c0-0.1,0.1-0.2,0.1-0.4c0,0,0-0.1,0.1-0.1c0.3-0.2,0.7-0.4,1-0.5
			c0.1,0,0.2,0,0.4,0.1c0,0,0,0,0,0l0-0.1c0,0,0.1,0,0.1,0c0,0,0,0,0,0c0,0,0,0,0,0l0,0c0,0,0,0,0,0c-0.1,0-0.2,0.1-0.2,0.2
			c-0.1,0.2-0.3,0.4-0.5,0.6c-0.2,0.1-0.4,0.2-0.5,0.3C78.3,137.2,78.3,137.2,78.2,137.1z M79.6,188.1c-0.1,0.2-0.4,0.3-0.6,0.1
			c-0.1,0-0.1-0.1-0.1-0.2c0.1-0.2,0.3-0.2,0.4-0.2C79.5,187.9,79.6,188.1,79.6,188.1z M79.7,179.2
			C79.7,179.2,79.7,179.1,79.7,179.2c-0.1-0.2,0-0.2,0.1-0.2c0,0,0.1,0,0.1,0.1C79.8,179.1,79.8,179.2,79.7,179.2z M80.2,187.6
			C80.2,187.6,80.2,187.5,80.2,187.6c0-0.2,0-0.2,0.1-0.2c0,0,0,0.1,0,0.1C80.3,187.5,80.3,187.6,80.2,187.6z M81,203.1
			c-0.1,0.1-0.1,0.1-0.2,0c-0.1-0.1-0.1-0.1,0-0.2c0-0.1,0.2-0.2,0.3-0.2c0,0,0.1,0.1,0.1,0.1C81.1,203,81,203,81,203.1z
			 M81.1,204.6L81.1,204.6L81.1,204.6L81.1,204.6z M80.9,131.8c0,0-0.1,0-0.1,0c-0.3,0-0.5-0.1-0.8-0.1c-0.1,0-0.1-0.1-0.2-0.2
			c0-0.1,0-0.1,0.1-0.2c0.1,0,0.2,0,0.3,0c0.3,0,0.5,0.1,0.7,0.1c0.1,0,0.1,0.1,0.2,0.2C81.2,131.7,81.1,131.8,80.9,131.8z
			 M81.5,165.3c0,0-0.1,0-0.1,0c0,0-0.1,0-0.1-0.1c0-0.2,0.1-0.4,0.3-0.5c0.1,0,0.1,0,0.2,0.1C81.7,165,81.7,165.2,81.5,165.3z
			 M82.6,133c0,0-0.1,0-0.1,0c0,0,0-0.1,0-0.1c0,0,0.1-0.1,0.1-0.1C82.6,132.8,82.7,132.9,82.6,133z M84.9,93.5L84.9,93.5L84.9,93.5
			L84.9,93.5z M88.8,87.6c0-0.3,0.1-0.5,0.4-0.5c0,0,0.1,0,0.1,0c0.2,0.1,0.3,0.2,0.4,0.3c0,0.1,0,0.3-0.1,0.3
			c-0.1,0.1-0.2,0.1-0.3,0.2C89.1,88,88.8,87.8,88.8,87.6z M89.7,113.1c0,0.1,0,0.2-0.1,0.2c0,0-0.1,0-0.1-0.1c0,0,0-0.1,0-0.1
			C89.6,113.1,89.6,113.1,89.7,113.1C89.7,113.1,89.7,113.1,89.7,113.1z M89.5,144c-0.1,0.2-0.1,0.3-0.1,0.5c0,0.1,0,0.2-0.1,0.2
			c0-0.3,0-0.5,0.1-0.8c0,0,0.1-0.1,0.1-0.1C89.5,143.8,89.6,143.9,89.5,144z M89.6,140.7C89.6,140.7,89.6,140.6,89.6,140.7
			c-0.1-0.2-0.1-0.3-0.1-0.4c0,0,0-0.1,0.1-0.1c0.1,0,0.1,0.1,0.1,0.2C89.8,140.5,89.7,140.7,89.6,140.7z M91.2,79.6
			c-0.1,0.1-0.2,0.3-0.3,0.4c0,0-0.1,0-0.1,0c0,0-0.1-0.1-0.1-0.1c0-0.2,0.1-0.4,0.3-0.5c0.1,0,0.2,0,0.2,0.1
			C91.2,79.5,91.2,79.5,91.2,79.6z M93.8,78.9c-0.1,0.1-0.2,0-0.3-0.1c0,0,0-0.1,0-0.1c0,0,0.1,0,0.1-0.1
			C93.7,78.6,93.8,78.7,93.8,78.9C93.8,78.8,93.8,78.9,93.8,78.9z M101.5,160.6C101.5,160.6,101.6,160.6,101.5,160.6
			c0.1,0.1,0.1,0.1,0,0.1l0,0c0,0,0,0,0,0c0,0,0,0,0,0C101.5,160.7,101.5,160.7,101.5,160.6c0,0.1,0,0.1,0,0.1
			C101.4,160.7,101.4,160.7,101.5,160.6C101.4,160.6,101.5,160.6,101.5,160.6z M101.3,173c-0.1,0-0.3,0-0.3-0.1c0-0.1,0-0.2,0.1-0.2
			c0.1-0.1,0.2-0.1,0.3-0.2c0,0,0.1,0,0.1,0c0.1,0,0.1,0.1,0.1,0.2C101.6,172.9,101.5,173,101.3,173z M120.1,219.1
			c0-0.1,0.1-0.1,0.2-0.2c0,0,0.1,0,0.1-0.1c0,0,0.1,0,0.1,0.1c0,0.3,0.1,0.6,0.4,0.8c0.1,0.1,0.1,0.2,0.1,0.2c0,0,0,0.1,0,0.1
			c0,0.1-0.1,0.1-0.2,0.1c-0.2-0.1-0.3-0.1-0.5,0c-0.2,0.1-0.3-0.1-0.3-0.3C119.9,219.6,120,219.3,120.1,219.1z M119.8,221.2
			c0-0.1,0.1-0.1,0.2-0.1c0.1,0,0.1,0.1,0.1,0.2c0,0,0,0.1,0,0.1c0,0.2-0.2,0.3-0.3,0.2c-0.1,0-0.1-0.1-0.1-0.2
			C119.7,221.4,119.7,221.3,119.8,221.2z M120.8,176.8C120.8,176.8,120.9,176.7,120.8,176.8c0.2,0,0.2,0,0.2,0.1
			c0,0-0.1,0.1-0.1,0.1C120.8,177,120.8,176.9,120.8,176.8z M119.6,177.7c0,0,0.1,0,0.1,0c0.1,0.1,0.2,0.2,0.2,0.3
			c0,0.1,0,0.2,0,0.2c0,0.2-0.2,0.4-0.4,0.5c-0.1,0-0.2,0-0.2-0.1c-0.1-0.2-0.1-0.4-0.1-0.6C119.2,177.9,119.4,177.7,119.6,177.7z
			 M117.5,187c-0.1,0.2-0.2,0.3-0.3,0.2c0,0-0.1-0.1-0.1-0.1c0-0.1,0-0.2,0.1-0.3c0,0,0.1,0,0.1,0
			C117.5,186.9,117.5,186.9,117.5,187z M117.4,215.6c0,0.1-0.1,0.1-0.2,0.1c-0.1-0.1-0.1-0.1,0-0.2c0-0.1,0.1-0.1,0.2-0.1
			C117.4,215.4,117.4,215.5,117.4,215.6z M117.2,198.2C117.2,198.2,117.3,198.2,117.2,198.2c0,0.1,0,0.1,0,0.1
			C117.2,198.3,117.2,198.3,117.2,198.2C117.2,198.2,117.2,198.2,117.2,198.2z M117,218.9C117.1,218.9,117.1,218.9,117,218.9
			C117.1,218.9,117.1,218.9,117,218.9C117.1,218.9,117.1,218.9,117,218.9L117,218.9C117.1,218.8,117.1,218.9,117,218.9
			C117.1,218.9,117.1,218.9,117,218.9c0.2,0.3,0.5,0.5,0.5,0.8c0,0.1,0,0.2-0.1,0.2c-0.1,0.1-0.3,0-0.4,0c-0.1,0-0.2-0.1-0.2-0.3
			c0-0.1,0.1-0.2,0.2-0.4C117.1,219.2,117.1,219.1,117,218.9C117.1,218.9,117.1,218.9,117,218.9C117.1,218.9,117.1,218.9,117,218.9
			C117.1,218.9,117.1,218.9,117,218.9z M116.2,217.4c0,0.1,0,0.1,0,0.2c0,0,0,0,0,0l0,0c0.1-0.2,0.3-0.2,0.6-0.2
			c0.3,0,0.3,0,0.2,0.4c-0.1,0.2-0.1,0.4-0.2,0.6c-0.1,0.1-0.2,0.1-0.3,0.1c0,0-0.1-0.1-0.1-0.1c0-0.1-0.1-0.2-0.1-0.2
			c0-0.2,0-0.3-0.1-0.5c0,0,0,0,0,0c0,0,0-0.1,0-0.1C116.2,217.4,116.2,217.4,116.2,217.4z M116.2,222.7c0.1,0,0.3,0,0.3,0.1
			c0,0,0,0.1,0,0.1c0,0-0.1,0.1-0.1,0.1c-0.1,0.1-0.2,0.1-0.2,0C116.1,222.9,116.1,222.8,116.2,222.7
			C116.1,222.7,116.2,222.7,116.2,222.7z M115.7,215.4L115.7,215.4L115.7,215.4C115.7,215.5,115.7,215.4,115.7,215.4
			C115.7,215.4,115.7,215.4,115.7,215.4c0,0.1,0.1,0.1,0.1,0.2c0,0,0,0.1,0,0.1c-0.1,0.1-0.1,0.1-0.2,0c0,0,0-0.1,0-0.1
			C115.6,215.6,115.6,215.5,115.7,215.4C115.7,215.4,115.7,215.4,115.7,215.4z M114.6,228.6C114.6,228.6,114.6,228.6,114.6,228.6
			C114.6,228.6,114.6,228.6,114.6,228.6C114.6,228.6,114.6,228.6,114.6,228.6C114.6,228.6,114.6,228.6,114.6,228.6L114.6,228.6
			C114.5,228.7,114.5,228.7,114.6,228.6z M118.4,114.7c0.1,0.1,0.1,0.1,0,0.2c-0.1,0.1-0.1,0.1-0.2,0c0,0,0-0.1,0-0.1
			C118.3,114.7,118.3,114.7,118.4,114.7z M117.5,162c0.1-0.1,0.3-0.2,0.4-0.3c0,0,0.1,0,0.1,0c0,0,0.1,0,0.1,0c0,0,0,0.1,0,0.1
			c-0.1,0.2-0.3,0.4-0.6,0.4c0,0-0.1,0-0.1,0C117.4,162.1,117.4,162,117.5,162z M114.7,100.2c0.1-0.1,0.2-0.1,0.3-0.1
			c0.1,0,0.2,0.1,0.2,0.2c0,0.2-0.2,0.3-0.3,0.3c-0.1,0-0.2-0.1-0.3-0.2C114.6,100.4,114.6,100.3,114.7,100.2z M114.6,111.3
			L114.6,111.3L114.6,111.3L114.6,111.3z M114.5,164.3c0,0.1-0.1,0.3-0.2,0.2c-0.2,0-0.3-0.1-0.5-0.1c0,0,0-0.1,0-0.1
			c0.1-0.2,0.2-0.2,0.4-0.2C114.3,164.1,114.4,164.2,114.5,164.3z M114.2,129.8c0,0.2-0.1,0.4-0.3,0.5c-0.1,0-0.2,0-0.2-0.1
			c-0.1-0.2,0-0.5,0.3-0.6C114.1,129.7,114.2,129.7,114.2,129.8z M112.9,112.1c0.3-0.2,0.6-0.3,1-0.3c0,0,0.1,0,0.1,0.1
			c0,0,0,0.1,0,0.1c0,0,0,0.1,0,0.1c-0.2,0.2-0.3,0.4-0.5,0.6c-0.1,0.1-0.3,0.1-0.5,0c-0.1-0.1-0.2-0.2-0.2-0.3
			C112.8,112.2,112.9,112.1,112.9,112.1z M113,138.8C113,138.8,113,138.8,113,138.8C113,138.8,113,138.8,113,138.8
			C113,138.8,113,138.8,113,138.8C113.1,138.8,113.1,138.8,113,138.8L113,138.8C113.1,138.8,113.1,138.8,113,138.8
			C113.1,138.8,113,138.8,113,138.8C113,138.8,113,138.8,113,138.8c0,0.1,0,0.2,0,0.3c0,0.1-0.1,0.3-0.2,0.3c-0.1,0-0.2,0-0.2,0
			c0,0-0.1,0-0.1-0.1c-0.1-0.1-0.1-0.2,0-0.3C112.7,138.9,112.9,138.9,113,138.8C113,138.8,113,138.8,113,138.8
			C113,138.8,113,138.8,113,138.8z M112.5,148.9c0.1-0.1,0.3-0.2,0.4-0.3c0.1-0.1,0.2-0.1,0.2,0c0.1,0.1,0.1,0.1,0,0.2
			c-0.1,0.2-0.3,0.3-0.5,0.4c-0.1,0-0.2,0-0.2-0.1C112.5,149,112.5,149,112.5,148.9z M113.1,118.4c0,0,0-0.1,0-0.1
			c0.1-0.1,0.1-0.1,0.2,0c0.1,0.1,0.1,0.1,0.1,0.2c0,0,0,0.1-0.1,0.1C113.3,118.7,113.1,118.6,113.1,118.4z M112.2,117.3
			c0-0.1,0.1-0.1,0.1-0.1c0,0,0.1,0,0.1,0.1c0.2,0.2,0.2,0.5,0.2,0.7c0,0.1-0.1,0.1-0.1,0.2c0,0-0.1,0-0.1-0.1
			c-0.1-0.1-0.2-0.2-0.2-0.4C112.2,117.5,112.2,117.4,112.2,117.3z M112.3,119.1c0.1,0,0.2,0.2,0.2,0.3c-0.1,0.1-0.2,0.2-0.3,0.3
			c-0.1,0.1-0.3,0-0.3-0.1C111.9,119.3,112.1,119.1,112.3,119.1z M111.3,108.9c0-0.1,0.1-0.1,0.2-0.1c0.1,0,0.2,0.1,0.3,0.2
			c0,0,0,0.1,0,0.1c0,0-0.1,0.1-0.1,0.1c-0.2,0-0.3,0-0.4-0.2C111.3,108.9,111.3,108.9,111.3,108.9z M111.6,119.8
			c0,0.1,0,0.2-0.1,0.2c-0.1,0-0.1-0.1-0.1-0.2c0-0.1,0.1-0.2,0.1-0.2C111.6,119.6,111.6,119.7,111.6,119.8z M111,118.5
			c0-0.1,0.1-0.1,0.2-0.1c0,0,0.1,0.1,0.1,0.1c0,0.1,0,0.2,0,0.2c0,0.1-0.1,0.2-0.2,0.1c-0.1,0-0.1-0.1-0.1-0.2
			C110.9,118.7,111,118.6,111,118.5z M110.7,117.2C110.8,117.2,110.8,117.3,110.7,117.2c0.1,0.1,0,0.2,0,0.2c-0.1,0-0.2,0-0.2-0.1
			C110.6,117.2,110.7,117.2,110.7,117.2z M110.5,115.2L110.5,115.2L110.5,115.2L110.5,115.2z M110.3,120.5c0.1-0.1,0.2-0.1,0.2,0
			c0.1,0.1,0.3,0.2,0.4,0.3c0.1,0.1,0.2,0.3,0.2,0.4c-0.1,0.2-0.2,0.3-0.4,0.3c-0.2,0-0.4-0.1-0.6-0.2c-0.1-0.1-0.1-0.1-0.1-0.2
			C110,120.8,110.1,120.6,110.3,120.5z M109.5,120.3c0-0.1,0.1-0.1,0.1-0.2c0,0,0.1,0,0.1,0c0.1,0.1,0.1,0.3,0,0.3c0,0-0.1,0-0.1,0
			c0,0-0.1,0-0.1-0.1C109.5,120.4,109.5,120.3,109.5,120.3z M109.1,119.1C109.1,119,109.1,119,109.1,119.1c0.2,0,0.2,0,0.2,0.1
			c0,0.1-0.1,0.1-0.2,0.1C109,119.2,109,119.1,109.1,119.1z M108.3,152.7c0.3-0.3,0.6-0.5,0.9-0.8c0.3-0.2,0.6-0.5,0.9-0.8
			c0.3-0.3,0.6-0.5,1-0.6c0,0,0.1,0,0.1,0c0,0,0,0,0,0c0,0,0,0,0,0c0-0.1,0-0.1,0.1-0.1c0,0,0.1,0,0.1,0.1c0,0.1-0.1,0.1-0.1,0.1
			c0,0,0,0,0,0c0,0,0,0,0,0c0,0.1,0,0.2,0,0.2c-0.1,0.2-0.3,0.4-0.5,0.6c-0.2,0.2-0.4,0.3-0.6,0.4c-0.2,0.1-0.3,0.3-0.5,0.4
			c-0.3,0.2-0.4,0.4-0.5,0.7c0,0.1-0.1,0.1-0.2,0.2c-0.3,0.1-0.6,0.3-0.9,0.4c0,0-0.1-0.1-0.1-0.1
			C107.9,153.1,108.1,152.9,108.3,152.7z M110.2,191.9C110.2,191.9,110.2,192,110.2,191.9c-0.1,0-0.1,0-0.2-0.1c0-0.1,0-0.2,0.1-0.2
			c0,0,0.1,0,0.1,0C110.3,191.8,110.3,191.9,110.2,191.9z M108.6,160.9C108.5,160.9,108.5,160.9,108.6,160.9
			C108.5,160.9,108.5,160.9,108.6,160.9C108.5,160.9,108.5,160.9,108.6,160.9c-0.1,0-0.1-0.1-0.1-0.1c0,0,0,0,0,0c0,0,0,0,0,0l0.1,0
			C108.5,160.8,108.5,160.8,108.6,160.9c0-0.1,0-0.1-0.1-0.1c0,0,0,0,0,0C108.5,160.8,108.5,160.8,108.6,160.9
			C108.5,160.9,108.5,160.8,108.6,160.9C108.5,160.9,108.6,160.9,108.6,160.9c0.3,0.2,0.6,0.3,0.8,0.4c0,0,0.1,0,0.1,0
			c0.2,0,0.2,0,0.2,0.1c0,0.2-0.1,0.4-0.3,0.4c0,0-0.1,0-0.1,0c-0.1-0.1-0.3-0.2-0.4-0.2c-0.3-0.1-0.4-0.3-0.4-0.6
			C108.6,161,108.6,160.9,108.6,160.9z M106.8,161.1c0.1-0.1,0.3-0.2,0.5-0.1c0.1,0,0.2,0.1,0.1,0.2c-0.1,0.2-0.3,0.3-0.5,0.4
			c-0.1,0-0.1-0.1-0.1-0.2C106.7,161.2,106.7,161.2,106.8,161.1z M103.7,157.7c-0.1,0.1-0.1,0.1-0.2,0.1c-0.1,0-0.1-0.1,0-0.3
			c0-0.1,0.1-0.1,0.2-0.1c0,0,0.1,0.1,0.1,0.1C103.8,157.5,103.8,157.6,103.7,157.7z M104.2,157c0,0,0-0.1-0.1-0.1c0,0,0-0.1,0-0.1
			C104.3,156.8,104.3,156.8,104.2,157C104.3,157,104.2,157,104.2,157z M104.9,155.9C104.9,155.9,104.9,155.9,104.9,155.9
			C104.9,156,104.9,156,104.9,155.9c0,0.1-0.1,0.2-0.1,0.2c0,0,0-0.1,0-0.1C104.8,156,104.8,156,104.9,155.9
			C104.8,156,104.9,155.9,104.9,155.9C104.9,155.9,104.9,155.9,104.9,155.9c0-0.1,0-0.1,0.1-0.2c0,0,0.1,0,0.1,0.1
			C105,155.9,105,155.9,104.9,155.9z M105.4,82.2c0,0-0.1,0-0.1,0c0,0,0-0.1,0-0.1c0,0,0.1,0,0.1,0
			C105.5,82.1,105.5,82.2,105.4,82.2z M105.5,116.1C105.5,116.1,105.6,116.1,105.5,116.1c0.1,0,0.1,0.1,0.1,0.1
			C105.5,116.2,105.5,116.2,105.5,116.1z M106.9,204.2C106.9,204.2,106.8,204.3,106.9,204.2c-0.1,0.1-0.2,0.1-0.2,0.1
			c-0.1-0.1,0-0.1,0-0.2c0.1-0.1,0.1-0.1,0.2,0C106.9,204.1,106.9,204.2,106.9,204.2z M107,189.9c-0.1,0.1-0.2,0-0.3-0.1
			c0,0,0-0.1,0-0.1c0,0,0.1-0.1,0.1-0.1c0.1,0,0.2,0.1,0.2,0.2C107,189.9,107,189.9,107,189.9z M107.4,203.1c0,0.1-0.1,0.2-0.3,0.2
			c0,0-0.1,0-0.1-0.1c0-0.1,0.1-0.2,0.2-0.3c0,0,0.1-0.1,0.1,0C107.4,202.9,107.4,203,107.4,203.1z M108,223.2
			c0,0.1-0.1,0.1-0.1,0.2c0,0,0,0,0,0.1c0,0,0,0,0,0c0,0,0,0,0,0c0,0,0,0,0,0l0,0l0-0.1c0,0,0,0,0,0c-0.1-0.1-0.1-0.2-0.1-0.3
			c0-0.1,0.1-0.1,0.1-0.2C108,223,108,223.1,108,223.2z M109.3,198.6c-0.1,0.2-0.2,0.4-0.2,0.6c-0.1,0.4-0.2,0.9-0.5,1.3
			c0,0-0.1,0-0.1,0.1c0,0-0.1-0.1-0.1-0.1c0-0.1,0-0.3,0-0.4c0.1-0.6,0.4-1.1,0.7-1.6c0-0.1,0.1-0.1,0.2-0.1
			C109.3,198.4,109.3,198.5,109.3,198.6z M109.8,219.8c0,0.1-0.1,0.1-0.2,0.2c0-0.1-0.1-0.1-0.1-0.2c0-0.1,0-0.2,0-0.3
			c0-0.3,0-0.5,0.1-0.7c0.1-0.2,0.2-0.5,0.3-0.7c0,0,0.1,0,0.1,0c0,0,0.1,0,0.1,0c0,0,0,0.1,0,0.1
			C110.1,218.7,110,219.3,109.8,219.8z M110.9,215.2c0,0.4-0.1,0.7-0.3,1.1c-0.1,0.2-0.2,0.4-0.2,0.6c0,0.1-0.1,0.1-0.2,0.1
			c-0.1,0-0.1,0-0.2-0.1c-0.1-0.3-0.1-0.5,0-0.8c0.1-0.3,0.2-0.5,0.2-0.8c0-0.1,0.1-0.2,0.1-0.2c0.1-0.1,0.2-0.2,0.2-0.3
			c0.1,0,0.2-0.1,0.2-0.1c0.1,0,0.1,0.1,0.1,0.2C111,215,111,215.1,110.9,215.2z M111.2,193.8c-0.1,0.1-0.1,0.2-0.2,0.3
			c-0.1,0.2-0.1,0.5-0.1,0.8c0,0.1,0.1,0.2,0.1,0.4c0,0.1,0,0.2,0,0.2c-0.1,0.1-0.1,0.1-0.2,0c0,0-0.1,0-0.1-0.1c0,0-0.1,0-0.1,0
			c-0.2-0.1-0.3-0.1-0.2-0.2c0.1-0.5-0.1-0.9-0.4-1.2c-0.2-0.4-0.5-0.7-0.7-1.1c0,0,0-0.1,0-0.1c0,0,0.1,0,0.1,0
			c0.1,0,0.2,0.1,0.2,0.1c0.1,0.1,0.2,0.3,0.3,0.4c0.1,0.1,0.2,0.1,0.2,0.1c0.2-0.1,0.3-0.1,0.4,0.1c0,0.1,0.1,0.1,0.2,0.1
			c0.1-0.1,0.2-0.2,0.3-0.3c0,0,0.1,0,0.1,0c0,0,0.1,0,0.1,0.1C111.3,193.5,111.3,193.7,111.2,193.8z M111.5,176.8c0,0-0.1,0-0.1,0
			C111.4,176.8,111.4,176.8,111.5,176.8c-0.1,0-0.1,0-0.1,0c0,0.1,0,0.1-0.1,0.2c-0.1,0-0.1,0-0.1-0.1c0-0.1,0.1-0.1,0.2-0.1
			c0,0,0,0,0,0c0,0,0,0,0,0c0-0.1,0-0.2,0.1-0.2c0,0,0.1,0.1,0.1,0.1C111.6,176.7,111.5,176.8,111.5,176.8z M111.9,197.6
			c-0.1,0-0.3-0.2-0.3-0.3c0-0.1,0.1-0.1,0.2-0.1c0.2,0,0.2,0.2,0.3,0.3C112.1,197.5,112,197.6,111.9,197.6z M111.9,149.9
			c0,0-0.1,0-0.1,0c0-0.1,0-0.1,0.1-0.2c0,0,0.1,0,0.1,0c0,0,0.1,0.1,0.1,0.1C112,149.8,112,149.9,111.9,149.9z M112,175.8
			L112,175.8L112,175.8L112,175.8z M111.9,138.7c-0.1,0.1-0.2,0.1-0.3,0c-0.1-0.2-0.1-0.3,0-0.4c0.1-0.1,0.2-0.1,0.3-0.2
			c0.1,0,0.2,0,0.2,0c0.2,0,0.3,0.2,0.3,0.3c0,0.1-0.1,0.2-0.1,0.2C112.1,138.6,112,138.5,111.9,138.7z M112.4,165.7
			c-0.1,0-0.3-0.2-0.3-0.2c0-0.1,0.1-0.2,0.1-0.2c0.1-0.1,0.1-0.1,0.2-0.2c0,0,0.1-0.1,0.1-0.1c0.1,0,0.2-0.1,0.2-0.1
			c0.5,0.1,1,0.1,1.5,0.2c0.1,0,0.2,0.1,0.1,0.2c0,0.1,0,0.2-0.1,0.2c-0.2,0.1-0.5,0.2-0.7,0.3c-0.1,0-0.2,0-0.2-0.1
			c-0.2-0.1-0.4-0.2-0.6-0.1c0,0,0,0,0,0c0,0,0,0.1,0,0.1c0,0,0,0.1-0.1,0.1c0,0,0,0.1,0,0.1c-0.1,0-0.1,0,0-0.1c0,0,0,0,0,0
			c0-0.1,0-0.1,0-0.2c0,0,0,0,0,0c0,0,0,0,0,0l0,0C112.7,165.7,112.6,165.7,112.4,165.7z M113.9,166.3L113.9,166.3L113.9,166.3
			L113.9,166.3z M113.7,189.8c0,0,0,0.1-0.1,0.1c-0.1,0-0.2,0-0.2-0.1c0,0,0-0.1,0-0.1c0,0,0.1-0.1,0.1-0.1c0,0,0.1,0,0.1,0
			C113.7,189.7,113.7,189.7,113.7,189.8z M114,185.6c-0.1,0-0.1-0.1-0.2-0.1c0,0,0,0,0,0c0,0,0,0,0,0c0,0.1,0,0.2,0.1,0.3
			c0.1,0.3,0.1,0.5,0,0.8c-0.1,0.2-0.2,0.5-0.3,0.7c-0.1,0.1-0.1,0.2-0.1,0.4c0,0.2,0,0.4-0.2,0.6c-0.2,0.2-0.2,0.6-0.4,0.8
			c-0.1,0.1-0.1,0.1-0.2,0.1c-0.1,0-0.1-0.1-0.1-0.2c0,0,0-0.1,0-0.1c0.4-0.6,0.5-1.4,0.9-2c0.2-0.4,0.3-0.8,0.4-1.2
			c0,0,0-0.1,0-0.1c0,0,0,0,0,0l0,0c0,0,0,0,0,0c0,0,0,0,0,0C114,185.5,114.1,185.5,114,185.6C114.1,185.6,114,185.6,114,185.6z
			 M114.7,185.2C114.7,185.2,114.7,185.2,114.7,185.2c-0.1,0.1-0.2,0.1-0.2,0.1c-0.1,0-0.1-0.1-0.2-0.2c-0.1-0.2-0.2-0.4-0.1-0.6
			c0.1-0.2,0.2-0.4,0.3-0.5c0,0,0.1,0,0.1,0c0,0,0.1,0.1,0.1,0.1c0,0.2,0,0.4,0,0.6C114.8,184.9,114.8,185,114.7,185.2z
			 M115.3,172.1c-0.1,0-0.2,0-0.3,0c-0.1,0-0.2,0-0.3,0c-0.1,0-0.1-0.1-0.1-0.2c0,0,0.1-0.1,0.1-0.1c0.2,0,0.4,0,0.6,0.1
			C115.4,171.9,115.5,172,115.3,172.1C115.4,172,115.4,172.1,115.3,172.1z M115.5,127.2c0.1-0.1,0.2-0.1,0.3-0.1
			c0.1,0,0.2,0.1,0.3,0.1c0-0.2-0.2-0.5-0.1-0.7c0-0.1,0.1-0.2,0.2-0.1c0,0,0.1,0.1,0.1,0.1c0,0.1,0,0.3-0.1,0.4
			c-0.1,0.1-0.1,0.2-0.1,0.4c0,0,0,0,0,0l0,0c0,0.1,0.1,0.2,0.1,0.4c0,0.2,0,0.4-0.2,0.5c-0.1,0.1-0.2,0-0.2,0
			c-0.2-0.2-0.1-0.5-0.3-0.7C115.5,127.4,115.5,127.3,115.5,127.2z M116.1,177.6L116.1,177.6L116.1,177.6L116.1,177.6
			C116.1,177.6,116.1,177.6,116.1,177.6C116.1,177.6,116.1,177.6,116.1,177.6c-0.1-0.1-0.1-0.2,0-0.2c0,0,0.1,0,0.1,0
			C116.2,177.5,116.2,177.6,116.1,177.6C116.1,177.6,116.1,177.6,116.1,177.6z M116,168.6c0,0.1,0,0.1-0.1,0.1c-0.1,0-0.2,0-0.2-0.1
			c0-0.1,0-0.1,0.1-0.1C115.9,168.4,115.9,168.5,116,168.6z M116.9,181.2c-0.1,0-0.2-0.1-0.4,0c-0.2,0.1-0.3,0.1-0.5,0.1
			c-0.1,0-0.4-0.1-0.4-0.2c-0.1-0.2-0.1-0.3-0.1-0.5c0.2-0.7,0.3-1.3,0.6-2c0-0.1,0.2-0.2,0.2-0.3c0,0,0.1,0,0.1,0.1
			c0.1,0.3-0.1,0.5-0.1,0.8c0,0.3,0,0.5-0.1,0.8c0,0.1-0.1,0.1-0.2,0.2c0,0,0,0,0,0c0.2,0.1,0.3,0.3,0.5,0.4
			c0.1,0.1,0.2,0.1,0.2,0.1c0.1,0,0.2,0,0.2,0.1c0.1,0.1,0.1,0.2,0.1,0.4C117.1,181.1,117,181.2,116.9,181.2z M116.9,175.8l0-0.1
			L116.9,175.8L116.9,175.8z M118.1,172.1c-0.2,0-0.4,0-0.5,0c-0.2,0-0.3,0-0.4,0c-0.2,0-0.3,0.1-0.5,0.2c-0.2,0.1-0.4,0.1-0.6-0.1
			c-0.1-0.1-0.1-0.2,0-0.2c0.2-0.1,0.5-0.2,0.7-0.3c0.1-0.1,0.3,0,0.4,0c0.3,0,0.6,0.1,0.9,0.3c0,0,0,0.1,0.1,0.1
			C118.3,172,118.2,172.1,118.1,172.1z M118.4,141.5c-0.1,0-0.2-0.1-0.2-0.2c0-0.1,0.1-0.1,0.2-0.1c0.1,0,0.1,0.1,0.1,0.2
			C118.5,141.5,118.5,141.5,118.4,141.5z M118.5,121C118.5,121,118.5,121.1,118.5,121c-0.2,0.2-0.3,0.3-0.4,0.2
			c0-0.1-0.1-0.1-0.1-0.2c0,0,0-0.1,0-0.1c0-0.2,0.2-0.3,0.3-0.3c0.1,0,0.2,0,0.2,0.1C118.6,120.8,118.6,120.9,118.5,121z
			 M119.3,171.8L119.3,171.8L119.3,171.8L119.3,171.8z M119.8,122.2C119.9,122.2,119.9,122.2,119.8,122.2c0.1,0.1,0,0.1,0,0.1
			C119.8,122.3,119.8,122.3,119.8,122.2C119.8,122.2,119.8,122.2,119.8,122.2z M120,142.8c-0.1,0-0.2,0.1-0.2,0.1c0,0-0.1,0-0.1,0
			c0-0.1,0-0.2,0.1-0.1C119.9,142.7,120,142.8,120,142.8z M131.8,164.7C131.8,164.7,131.8,164.7,131.8,164.7c-0.1,0-0.1-0.1-0.1-0.1
			C131.8,164.5,131.9,164.5,131.8,164.7C131.9,164.7,131.8,164.7,131.8,164.7z M132.3,166.2L132.3,166.2L132.3,166.2L132.3,166.2z
			 M131.9,224.7c-0.1,0-0.2,0-0.2-0.1c0-0.1,0-0.1,0.1-0.2c0.1,0,0.2,0,0.2,0.1C132.1,224.6,132,224.7,131.9,224.7z M135.6,150.5
			c0.1,0,0.2,0,0.2,0.1c0,0.1,0,0.1,0,0.2c-0.1,0.2-0.3,0.2-0.4,0.2c0,0-0.1-0.1-0.1-0.1c0,0,0-0.1,0-0.1
			C135.3,150.7,135.4,150.6,135.6,150.5z M135.6,173.6c0.1-0.1,0.2,0,0.2,0.1c0,0.1,0,0.2-0.1,0.2c-0.1,0-0.2,0-0.3,0
			c0,0-0.1-0.1-0.1-0.1C135.4,173.7,135.5,173.6,135.6,173.6z M134.1,148.5c0.1,0,0.1,0.1,0,0.2c0,0.1-0.1,0-0.2,0
			c0,0-0.1-0.1,0-0.1C134,148.4,134.1,148.4,134.1,148.5z M134,173.6c0.1-0.1,0.2-0.2,0.3-0.2c0.1,0,0.2,0,0.2,0.1
			c0,0.1,0,0.2-0.1,0.2c-0.1,0-0.1,0.1-0.2,0.1c-0.1,0-0.2,0-0.2-0.1C133.9,173.7,133.9,173.6,134,173.6z M134.5,181.6L134.5,181.6
			L134.5,181.6L134.5,181.6z M133.4,178c0,0,0,0.1,0,0.1c0,0,0,0-0.1,0C133.3,178.1,133.3,178.1,133.4,178
			C133.3,178,133.4,178,133.4,178z M131.9,218.6C131.9,218.6,131.8,218.6,131.9,218.6c-0.1,0-0.2,0-0.2,0c0-0.1,0-0.1,0-0.2
			c0.1-0.1,0.1-0.1,0.2,0C131.9,218.4,131.9,218.5,131.9,218.6z M134.5,212.3c-0.1,0.1-0.2,0.3-0.3,0.4c-0.1,0.1-0.3,0.2-0.4,0.3
			c-0.1,0-0.3,0.1-0.3,0.2c-0.1,0.2-0.3,0.4-0.5,0.6c-0.2,0.2-0.4,0.3-0.7,0.3c-0.1,0-0.2,0-0.2-0.1c0-0.1,0-0.2,0-0.2
			c0.1-0.1,0.2-0.2,0.3-0.3c0.1-0.1,0.1-0.1,0-0.2c-0.1-0.2-0.2-0.3-0.3-0.4c-0.1-0.1-0.2-0.3-0.3-0.4c-0.1-0.1-0.1-0.3,0-0.5
			c0.1-0.1,0.2-0.2,0.3-0.3c0.1-0.1,0.3,0,0.3,0.1c0.1,0.2,0.1,0.4,0.3,0.5c0.1,0.1,0.3,0.2,0.4,0.3c0,0,0.1,0,0.1,0.1
			c0,0,0.1,0,0.1,0c0.3-0.2,0.7-0.3,1-0.5c0.1-0.1,0.2,0,0.2,0.1C134.5,212.3,134.5,212.3,134.5,212.3z M134.3,200.4
			c0,0,0-0.1,0-0.1c0-0.1,0.1-0.2,0.3-0.2c0.1,0,0.1,0.1,0.1,0.2c0,0.1-0.1,0.2-0.2,0.3C134.5,200.5,134.4,200.5,134.3,200.4z
			 M134.8,216.9c0,0-0.1,0-0.1,0c-0.1,0-0.2-0.1-0.2-0.2c0-0.1,0.1-0.1,0.2-0.2c0,0,0.1,0,0.1,0c0.1,0,0.2,0,0.2,0.1
			C135.1,216.8,135,216.9,134.8,216.9z M135.6,198.6c-0.2,0.2-0.4,0.4-0.6,0.7c0,0.1-0.2,0.1-0.3,0.1c-0.1,0-0.2-0.1-0.3-0.2
			c-0.1,0-0.1-0.1-0.1-0.2c0.1-0.4,0.3-0.7,0.7-0.8c0.2,0,0.3,0,0.5,0C135.6,198.3,135.7,198.5,135.6,198.6z M135.5,188.4
			c-0.1,0-0.2,0.1-0.2,0.1c-0.2,0.1-0.4,0.1-0.6,0.1c-0.2,0-0.2,0-0.3,0c-0.1,0-0.2,0-0.2-0.1c0-0.1,0-0.3,0.2-0.3
			c0.1-0.1,0.2,0,0.4,0c0.1,0,0.3-0.1,0.3-0.2c0-0.1,0-0.2,0-0.2c0-0.1,0-0.2,0-0.3c0-0.2,0.2-0.3,0.4-0.2c0,0,0.1,0,0.1,0.1
			c0,0.2,0.1,0.5,0.1,0.8C135.7,188.3,135.6,188.4,135.5,188.4z M135.7,176C135.7,176,135.6,176,135.7,176c-0.2-0.1-0.2-0.2-0.1-0.3
			c0,0,0.1-0.1,0.1-0.1c0.1,0,0.1,0.1,0.1,0.2C135.8,176,135.8,176,135.7,176z M135.9,166.8C135.9,166.8,135.9,166.8,135.9,166.8
			c0,0.1-0.1,0.1-0.1,0.1c0,0,0,0,0,0c0,0.1,0,0.2-0.1,0.3c0,0-0.1,0.1-0.1,0.1c-0.1,0-0.1-0.1-0.1-0.2c0-0.1,0.1-0.1,0.2-0.1
			C135.8,166.9,135.8,166.9,135.9,166.8C135.9,166.9,135.9,166.8,135.9,166.8C135.9,166.8,135.9,166.8,135.9,166.8
			C136,166.7,136,166.7,135.9,166.8z M136.1,151.5C136.1,151.6,136,151.6,136.1,151.5c-0.1,0-0.2,0-0.2-0.1c0,0,0.1-0.1,0.1-0.1
			C136.1,151.4,136.1,151.4,136.1,151.5z M136.3,163.2C136.3,163.2,136.3,163.2,136.3,163.2c-0.1-0.1-0.1-0.1-0.1-0.1
			c0,0,0.1,0,0.1,0C136.5,163.1,136.4,163.2,136.3,163.2z M136.4,150.4c-0.1,0-0.2-0.1-0.1-0.2c0.1-0.1,0.2-0.1,0.3-0.2c0,0,0,0,0,0
			c0-0.1,0-0.1,0.1-0.2l0,0c0,0,0,0,0,0c0,0,0,0,0,0c0,0,0,0,0,0c0.1,0,0.1,0,0.1,0c0,0,0,0-0.1,0c0,0,0,0,0,0c0,0,0,0.1,0,0.1
			c0,0-0.1,0.1-0.1,0.1c0,0.1,0,0.2-0.1,0.3C136.5,150.4,136.4,150.4,136.4,150.4z M136.9,168.1
			C136.8,168.2,136.8,168.2,136.9,168.1c-0.2,0.1-0.3,0-0.3-0.1c0,0,0-0.1,0.1-0.1c0,0,0.1,0,0.1,0
			C136.9,168,136.9,168.1,136.9,168.1z M137.4,176.9c0,0.1-0.1,0.1-0.2,0.1c-0.2-0.1-0.3-0.3-0.2-0.5c0-0.1,0.1-0.1,0.2-0.1
			c0.1,0,0.1,0,0.2,0.1C137.4,176.6,137.4,176.7,137.4,176.9z M141.5,138.6C141.5,138.6,141.5,138.6,141.5,138.6
			c0.1,0.1,0,0.1,0,0.1C141.4,138.7,141.4,138.7,141.5,138.6C141.4,138.6,141.4,138.6,141.5,138.6z M141.1,156.2c0.1,0,0.2,0,0.3,0
			c0.1,0,0.2,0,0.2,0.1c0.1,0.1,0.1,0.1,0,0.2c-0.1,0.1-0.2,0.3-0.3,0.4c-0.1,0.1-0.1,0.1-0.2,0.1c-0.1,0-0.1-0.1-0.2-0.2
			c0-0.1-0.1-0.2-0.1-0.4C140.9,156.3,141,156.3,141.1,156.2z M140.8,186.8C140.8,186.9,140.7,186.9,140.8,186.8
			c-0.2,0.1-0.2,0-0.2-0.1c0,0,0.1-0.1,0.1-0.1C140.8,186.7,140.8,186.7,140.8,186.8z M140.6,133.5c0.1-0.1,0.1-0.1,0.2,0
			c0,0.1,0,0.2,0,0.2c0,0-0.1,0-0.1,0C140.6,133.6,140.5,133.6,140.6,133.5z M139.4,137.1c0,0,0-0.1,0-0.1c0,0,0-0.1,0-0.1
			c0-0.1,0.1-0.1,0.2-0.1c0.1,0,0.1,0.1,0.1,0.2c0,0.1-0.1,0.2-0.2,0.3c-0.1,0.1-0.1,0.1-0.2,0C139.4,137.3,139.4,137.2,139.4,137.1
			z M139.8,139.1L139.8,139.1C139.8,139.1,139.8,139.1,139.8,139.1C139.8,139.1,139.8,139.1,139.8,139.1
			C139.8,139.1,139.8,139.1,139.8,139.1C139.8,139.1,139.8,139.1,139.8,139.1C139.7,139,139.7,139,139.8,139.1
			C139.8,139.1,139.8,139.1,139.8,139.1C139.8,139.1,139.8,139.1,139.8,139.1C139.8,139.1,139.8,139.1,139.8,139.1z M139.1,179.9
			C139.1,179.8,139.2,179.9,139.1,179.9c0.1,0.2,0.1,0.2,0,0.3c0,0-0.1,0-0.1-0.1C139,180,139,179.9,139.1,179.9z M138.9,138.9
			L138.9,138.9L138.9,138.9L138.9,138.9z M137.9,139.1c0.1,0,0.2,0,0.2,0.1c0,0,0,0.1-0.1,0.1C137.9,139.4,137.9,139.3,137.9,139.1
			C137.8,139.2,137.9,139.1,137.9,139.1z M137.7,143.7c0,0,0-0.1,0-0.1c0-0.2,0.1-0.3,0.1-0.3c0.1,0,0.1,0.2,0.1,0.3
			c0,0,0,0.1-0.1,0.1C137.9,143.8,137.8,143.8,137.7,143.7C137.8,143.8,137.7,143.8,137.7,143.7z M139.1,225.3
			c-0.1,0-0.2,0.1-0.2,0.1c-0.1,0-0.8-0.2-1-0.2c0,0,0-0.1,0-0.1c0.4-0.3,0.5-0.3,0.8-0.3c0.2,0,0.3,0.1,0.5,0.2
			c0,0,0.1,0.1,0.1,0.1C139.2,225.2,139.2,225.2,139.1,225.3z M139.2,187.7c0,0-0.1,0-0.1,0c0,0,0-0.1-0.1-0.1c0-0.1,0-0.3,0-0.4
			c0-0.1,0-0.2-0.1-0.2c0-0.1-0.1-0.2-0.2-0.3c-0.1,0-0.1-0.1-0.1-0.2c0,0,0.1-0.1,0.1-0.1c0.3-0.1,0.5,0,0.7,0.1
			c0.2,0.1,0.3,0.3,0.2,0.5C139.6,187.4,139.5,187.6,139.2,187.7z M140,206.3c0,0.1-0.1,0.1-0.2,0.1c-0.1,0-0.2,0-0.2-0.1
			c0,0,0-0.1,0-0.1c0-0.2,0-0.3,0-0.5c0,0,0,0,0,0c0-0.2,0-0.3,0-0.5c0-0.1,0.1-0.3,0.1-0.4c0-0.1,0.1-0.1,0.2-0.1
			c0.1,0,0.2,0.1,0.3,0.2c0,0.1,0,0.2,0,0.3C140.2,205.5,140.1,205.9,140,206.3z M140.5,215.5c-0.1,0-0.1-0.1-0.1-0.2
			c0-0.2,0.1-0.3,0.3-0.4c0,0,0.1,0,0.1,0c0,0,0.1,0.1,0.1,0.1c0,0.2-0.1,0.3-0.2,0.4C140.5,215.4,140.5,215.5,140.5,215.5z
			 M142.8,225.2c-0.3,0.1-0.6,0-0.9,0.2c-0.1,0-0.2,0-0.3,0c0,0-0.1,0-0.1,0c-0.3-0.1-0.6-0.1-0.9-0.2c0,0-0.1-0.1-0.1-0.1
			c0,0,0.1-0.1,0.1-0.1c0.2,0,0.4-0.1,0.6-0.1c0.3,0,0.6-0.1,0.8-0.3c0.1-0.1,0.2,0,0.4,0c0.2,0.1,0.3,0.2,0.4,0.3
			C142.9,225,142.9,225.1,142.8,225.2C142.9,225.1,142.9,225.2,142.8,225.2z M142.2,149.7C142.2,149.6,142.2,149.6,142.2,149.7
			c0.1,0,0.1,0,0.1,0c0,0,0,0.1,0,0.1C142.2,149.8,142.2,149.8,142.2,149.7C142.2,149.7,142.2,149.7,142.2,149.7z M148,234
			c0,0.1-0.1,0.2-0.3,0.1c-0.1-0.1-0.2-0.1-0.3-0.2c-0.1-0.1-0.1-0.2-0.2-0.3c0-0.2,0.1-0.4,0.2-0.6c0.1-0.2,0.4-0.3,0.6,0
			c0,0.1,0.1,0.2,0.1,0.2C148.2,233.5,148.1,233.7,148,234z M148.2,139.5L148.2,139.5L148.2,139.5L148.2,139.5z M148.8,221
			c-0.1,0-0.1,0-0.2,0c0,0,0-0.1,0-0.1c0-0.1,0.1-0.1,0.2-0.1C148.9,220.9,148.9,220.9,148.8,221z M148.9,184.5
			C148.9,184.4,149,184.4,148.9,184.5c0.2-0.1,0.2-0.1,0.3,0C149.2,184.5,149.1,184.6,148.9,184.5
			C149,184.6,148.9,184.5,148.9,184.5z M149.2,217.6C149.2,217.5,149.2,217.5,149.2,217.6c0.1,0,0.1,0,0.1,0
			C149.3,217.7,149.2,217.7,149.2,217.6z M151.4,97.7c0.1,0,0.1,0.1,0.1,0.2c0,0,0,0,0,0l0,0l0,0c0,0,0,0,0,0c0.1,0,0.1,0,0.2,0.1
			c0,0,0,0.1-0.1,0.1c-0.1,0-0.1-0.1-0.1-0.2c0,0,0,0,0,0c0,0,0,0,0,0C151.4,97.9,151.3,97.9,151.4,97.7
			C151.3,97.8,151.4,97.7,151.4,97.7z M150.5,136.2c0.1,0,0.2,0,0.2,0.1c0.1,0,0.1,0.1,0.1,0.2c0,0.3-0.3,0.5-0.5,0.4
			c-0.1,0-0.2-0.1-0.2-0.1C150.1,136.5,150.3,136.2,150.5,136.2z M150.1,138.9c0.2,0,0.4,0.1,0.6,0c0.1,0,0.2,0,0.2,0
			c0.2,0.2,0.5,0.3,0.7,0.5c0,0,0,0.1,0,0.1c0,0.1-0.1,0.2-0.1,0.2c-0.2,0-0.3,0-0.5,0c-0.1,0-0.3,0-0.5,0c-0.3,0.1-0.7,0.1-1-0.1
			c-0.1,0-0.2,0-0.3,0c-0.2,0-0.3,0-0.5-0.1c-0.2,0-0.2-0.3-0.1-0.4c0.1-0.1,0.1-0.1,0.2-0.2c0.1,0,0.2-0.1,0.2-0.1c0,0,0.1,0,0.1,0
			C149.5,138.9,149.8,138.8,150.1,138.9z M148.2,95.4c0.1-0.1,0.1-0.1,0.2,0c0.2,0.2,0.5,0.4,0.8,0.6c0,0,0,0,0,0l0,0c0,0,0,0,0,0
			c0,0,0,0,0,0c0.2,0.2,0.5,0.3,0.6,0.6c0,0,0,0.1,0,0.1c-0.1,0.1-0.1,0.1-0.2,0.1c0,0-0.1,0-0.1-0.1c-0.1-0.1-0.2-0.3-0.3-0.4
			c-0.1-0.1,0-0.2,0-0.3c0,0,0,0,0,0c0,0,0,0,0,0c-0.1,0.1-0.3,0.2-0.4,0.2c-0.1,0-0.2-0.1-0.3-0.1c-0.1-0.1-0.2-0.2-0.3-0.4
			C148,95.6,148.1,95.5,148.2,95.4z M147.4,129.1c0-0.1,0-0.2,0-0.3c0-0.1,0.1-0.1,0.2-0.2c0.1,0,0.3,0,0.3,0.1
			c0.1,0.2,0.1,0.3,0.1,0.5c0,0,0,0.1-0.1,0.1c-0.1,0-0.2,0-0.4-0.1C147.4,129.3,147.4,129.2,147.4,129.1z M146.4,116.8
			c0.1,0,0.2,0,0.2,0.1c0.1,0.1,0.2,0.2,0.3,0.4c0,0.1,0,0.2,0,0.2c-0.1,0.1-0.2,0.1-0.3,0.1c-0.1,0-0.2-0.1-0.2-0.2
			c0,0,0-0.1,0-0.1c0-0.1,0-0.2,0-0.3C146.3,116.9,146.4,116.8,146.4,116.8z M147,119C147,119,146.9,119.1,147,119
			C146.9,119.1,146.9,119.1,147,119C146.9,119,146.9,119,147,119C146.9,119,147,119,147,119z M146.2,179.4c0.1,0,0.2,0,0.2,0.1
			c0,0-0.1,0.1-0.1,0.1C146.2,179.6,146.1,179.6,146.2,179.4C146.1,179.5,146.1,179.4,146.2,179.4z M147,216.2c0.1,0,0.2,0,0.3,0
			c0.1,0,0.2,0,0.2,0.1c0.1,0.1,0,0.3-0.1,0.3c-0.1,0-0.1,0.1-0.2,0.1c-0.2,0-0.5,0.1-0.8,0.1c-0.2,0-0.4,0-0.6,0c0,0-0.1,0-0.1-0.1
			c0-0.1,0-0.2,0.1-0.2C146.1,216.5,146.6,216.3,147,216.2z M145.6,179.2C145.6,179.2,145.7,179.3,145.6,179.2
			c0.1,0.2,0.1,0.2,0,0.3c0,0-0.1,0-0.1-0.1C145.5,179.3,145.5,179.3,145.6,179.2z M145.4,93.3L145.4,93.3L145.4,93.3L145.4,93.3z
			 M143.7,91.8C143.7,91.8,143.8,91.7,143.7,91.8c0.1,0,0.2,0.1,0.2,0.1c0,0,0,0,0,0l0,0l0,0c0,0,0,0,0,0c0.1,0,0.1,0,0.1,0.1
			c0,0-0.1,0-0.1,0c0,0,0,0,0-0.1c0,0,0,0,0,0c0,0,0,0,0,0C143.7,91.8,143.6,91.8,143.7,91.8z M144.4,188.1c0.1,0,0.2,0,0.3,0
			c0.1,0,0.2,0,0.2,0.1c0,0.1,0,0.2,0,0.2c0,0-0.1,0.1-0.1,0.1c0,0-0.1,0.1-0.1,0.1c-0.3,0.1-0.6,0.3-0.9,0.4
			c-0.3,0.2-0.5,0.4-0.8,0.6c-0.1,0.1-0.2,0.1-0.4,0c-0.1-0.1-0.2-0.4-0.1-0.5c0.1-0.2,0.3-0.3,0.4-0.5c0.2-0.2,0.4-0.3,0.6-0.4
			c0.1,0,0.2,0,0.2-0.1C143.9,188,144.1,188,144.4,188.1z M142.3,130.5l0.1,0L142.3,130.5L142.3,130.5z M142.7,148.6
			c0-0.2,0.3-0.5,0.5-0.5c0.1,0,0.2,0.1,0.2,0.1c0,0,0,0.1,0,0.1c-0.1,0.2-0.3,0.3-0.5,0.4C142.8,148.8,142.7,148.7,142.7,148.6z
			 M143.5,139c0,0.1,0,0.2-0.2,0.2c-0.1,0-0.2,0-0.3,0c0,0-0.1-0.1-0.1-0.1c0-0.2,0.1-0.4,0.3-0.4c0,0,0.1,0,0.1,0
			C143.4,138.8,143.5,138.9,143.5,139z M143.2,124.7C143.2,124.7,143.1,124.7,143.2,124.7C143.1,124.7,143.1,124.7,143.2,124.7
			C143.1,124.7,143.1,124.7,143.2,124.7L143.2,124.7c-0.2,0-0.3-0.1-0.4-0.1c0,0,0,0,0-0.1c0,0,0,0,0,0c0,0,0,0,0,0
			c0,0.1,0.1,0.2,0.1,0.3c0,0,0,0.1,0,0.1c0,0-0.1,0-0.1,0c-0.1,0-0.1,0-0.1-0.1c0,0,0-0.1,0-0.1c0-0.1,0-0.1,0-0.2c0,0,0,0,0,0
			c0,0,0,0,0,0l0,0c0,0,0,0,0,0l0,0c0,0,0,0,0,0C142.8,124.6,143,124.7,143.2,124.7L143.2,124.7z M142.8,90.7c0.1,0,0.1,0.1,0.1,0.2
			c0,0,0,0,0,0l0,0c0,0,0,0,0,0l0,0.1l-0.1,0c0,0,0,0,0,0C142.8,90.9,142.7,90.8,142.8,90.7C142.7,90.7,142.7,90.7,142.8,90.7z
			 M142.3,65.4c0,0,0.1,0,0.1,0c0.3,0.1,0.3,0.4,0.1,0.6c0,0-0.1,0-0.1,0c-0.2,0-0.3-0.2-0.4-0.4C142.1,65.4,142.2,65.3,142.3,65.4z
			 M136.2,128.2c0,0,0-0.1,0-0.1C136.2,128,136.3,128,136.2,128.2C136.3,128.1,136.2,128.1,136.2,128.2z M137.8,116.3
			c0,0.1-0.1,0.1-0.2,0.1c-0.4-0.1-0.7-0.3-1-0.5c-0.1,0-0.1-0.1-0.1-0.2c0-0.1,0.1-0.1,0.2-0.1c0.3,0.1,0.6,0.2,1,0.3
			c0.1,0,0.1,0.1,0.2,0.2C137.8,116.2,137.8,116.3,137.8,116.3z M141.2,89C141.2,89,141.2,89,141.2,89c0,0.1,0.1,0.1,0.1,0.2
			c0,0,0,0.1,0,0.1c0,0-0.1,0-0.1,0c0,0-0.1-0.1-0.1-0.1C141.1,89.1,141.1,89.1,141.2,89C141.1,89,141.1,89,141.2,89
			C141.1,89,141.1,89,141.2,89c-0.1,0-0.1,0-0.2,0C141.1,89,141.1,89,141.2,89z M138.1,85.6c0,0,0.1,0,0.1,0c0.1,0,0.2,0,0.2,0.1
			c0.2,0.1,0.4,0.3,0.5,0.6c0.1,0.2,0.2,0.4,0.3,0.6c0,0.1,0,0.1,0,0.2c0,0,0,0,0,0c0,0,0,0,0,0c0,0,0,0,0,0c0,0,0,0,0,0
			c0.1,0,0.2,0.1,0.3,0.1c0,0,0.1,0,0.1,0c0,0,0,0,0,0c0.4,0.4,0.7,0.7,1,1.1c0,0,0,0,0,0c0.1,0.1,0.1,0.2,0.1,0.3
			c0,0,0.1,0.1,0.1,0.1l0,0c0,0,0,0,0,0c0,0.1,0.1,0.1,0.1,0.1c-0.1,0-0.1-0.1-0.2-0.1c0-0.1-0.2-0.2-0.1-0.4c0,0,0,0,0,0
			c0,0,0,0,0,0c0,0,0,0,0,0c-0.1,0-0.1,0.1-0.2,0.1c-0.1,0-0.2,0-0.3-0.1c-0.3-0.2-0.5-0.6-0.5-1c0-0.1,0-0.1,0-0.2c0,0,0,0,0,0
			c0,0,0,0,0,0c0,0,0,0,0,0c-0.1,0-0.2,0-0.3-0.1c0,0,0,0-0.1,0c0,0,0,0,0-0.1C138.7,86.6,138.4,86.1,138.1,85.6
			C138.1,85.6,138.1,85.6,138.1,85.6c-0.1,0-0.2,0-0.2-0.1c0,0,0,0,0,0c0,0,0,0,0,0c0,0,0,0,0-0.1c0,0,0,0,0,0.1
			C137.9,85.5,138,85.5,138.1,85.6z M137.6,84.5c0,0.1,0,0.2,0,0.3c0,0,0,0,0,0c0,0,0,0,0,0.1c0.2,0.1,0.2,0.1,0.1,0.3
			c0,0.1,0,0.1,0,0.2c0,0,0,0,0-0.1c-0.1-0.1-0.1-0.3-0.1-0.4c0,0,0,0,0,0c0,0,0,0,0-0.1c-0.2-0.1-0.2-0.3-0.2-0.5c0,0,0,0,0,0
			c0,0,0,0,0,0c-0.1,0-0.2,0-0.2,0c-0.6-0.6-1.3-1.3-1.7-2.1c0,0,0-0.1,0-0.1c0,0,0.1,0,0.1,0c0,0,0.1,0,0.1,0
			c0.5,0.4,0.9,0.8,1.2,1.3c0.1,0.2,0.3,0.3,0.4,0.5c0.1,0.1,0,0.2,0.1,0.4c0,0,0,0,0,0l0,0l0,0c0,0,0,0,0,0c0,0,0,0,0,0
			c0,0,0,0,0,0C137.5,84.4,137.6,84.4,137.6,84.5z M137.5,70.4c0,0.1-0.1,0.1-0.1,0.2c-0.1,0.1-0.1,0.1-0.2,0
			c-0.1-0.1-0.1-0.1-0.1-0.2c0-0.1,0.1-0.1,0.3-0.1C137.5,70.3,137.5,70.4,137.5,70.4z M135.4,75.4c0-0.2,0-0.5,0.1-0.7
			c0.1-0.4,0.1-0.9,0.1-1.3c0-0.1,0-0.3,0-0.4c0.2-0.5,0.2-0.9,0-1.4c0-0.1,0-0.2,0-0.3c0,0,0-0.1,0.1-0.1c0.2-0.2,0.2-0.5,0.2-0.7
			c-0.1-0.2,0-0.4,0.2-0.6c0.1-0.1,0.1-0.1,0.1-0.2c0-0.1,0-0.2,0.1-0.3c0.2-0.9,0.4-1.9,0.5-2.8c0-0.3,0.1-0.5,0.2-0.8
			c0.1-0.3,0-0.5-0.2-0.7c-0.1-0.1-0.1-0.3,0-0.4c0.2-0.2,0.4-0.5,0.6-0.7c0,0,0.1,0,0.1,0c0,0,0.1,0.1,0.1,0.1c0,0.1,0,0.3,0,0.4
			c0,0.2-0.1,0.4-0.1,0.6c-0.1,0.3-0.1,0.5-0.1,0.8c0,0.5,0,1-0.2,1.4c0,0.1,0,0.2,0,0.3c0,0.5-0.1,0.9-0.1,1.4
			c0,0.4-0.2,0.9-0.2,1.3c0,0.4-0.1,0.7-0.2,1c-0.1,0.5-0.3,1.1-0.3,1.7c-0.1,0.6-0.2,1.1-0.3,1.7c0,0.1-0.1,0.2-0.1,0.4
			c-0.1,0.2-0.1,0.3-0.1,0.5c0,0.1,0,0.2-0.1,0.2c-0.1,0-0.1-0.1-0.1-0.2C135.4,75.6,135.4,75.5,135.4,75.4z M135.2,77.4
			C135.2,77.4,135.2,77.4,135.2,77.4c0.1,0.1,0.1,0.2,0.1,0.3c0,0,0,0-0.1,0c0,0,0-0.1,0-0.1C135.1,77.5,135.2,77.5,135.2,77.4z
			 M134.6,81.2c0-0.1,0-0.2,0-0.2c0,0,0-0.1,0.1-0.1c0.1,0,0.1,0.1,0.1,0.2c0,0.1,0,0.2,0,0.2c0,0,0,0.1,0,0.1
			c0,0.1-0.1,0.1-0.1,0.1c0,0-0.1-0.1-0.1-0.1C134.6,81.4,134.6,81.3,134.6,81.2z M134.4,82.8c0.1,0,0.1,0.1,0.1,0.2
			c0,0.1,0,0.1-0.1,0.2c0,0-0.1,0-0.1,0c0-0.1,0-0.1,0-0.2C134.3,82.8,134.4,82.7,134.4,82.8z M133.8,85.7c0.1-0.5,0.2-0.9,0.3-1.4
			c0,0,0,0,0.1,0c0,0,0,0.1,0,0.1c0,0.6,0,1.2-0.2,1.8c0,0,0,0.1,0,0.1c0,0.1-0.1,0.2-0.1,0.1c0,0-0.1-0.1-0.1-0.1
			C133.8,86.2,133.8,85.9,133.8,85.7z M133.6,88.1c0.1,0,0.1,0.1,0.1,0.2c0,0.1,0,0.2,0,0.2c0,0.1,0,0.1-0.1,0.2
			c0-0.1,0-0.2-0.1-0.2c0-0.1,0-0.2,0-0.2C133.6,88.2,133.6,88.1,133.6,88.1z"/>
		<path fill="#F2F2F2" d="M117.1,218.9L117.1,218.9C117.1,218.9,117.1,218.9,117.1,218.9C117.1,218.9,117.1,218.9,117.1,218.9
			C117.1,218.9,117.1,218.9,117.1,218.9z"/>
		<path fill="#F2F2F2" d="M115.7,215.4C115.7,215.4,115.7,215.4,115.7,215.4C115.7,215.4,115.7,215.4,115.7,215.4
			C115.7,215.4,115.7,215.4,115.7,215.4z"/>
		<path fill="#F2F2F2" d="M114.6,228.7C114.6,228.7,114.6,228.7,114.6,228.7C114.6,228.7,114.6,228.7,114.6,228.7
			C114.6,228.7,114.6,228.7,114.6,228.7z"/>
		<path fill="#F2F2F2" d="M114.6,228.7C114.6,228.6,114.6,228.6,114.6,228.7C114.6,228.6,114.6,228.6,114.6,228.7
			C114.5,228.7,114.6,228.7,114.6,228.7z"/>
		<path fill="#F2F2F2" d="M139.6,87.2C139.6,87.2,139.6,87.1,139.6,87.2L139.6,87.2C139.6,87.2,139.6,87.2,139.6,87.2z"/>
		<path fill="#F2F2F2" d="M137.9,129.1c0,0.1,0.2,0.2,0.3,0.1c0.1-0.1,0.2-0.2,0.2-0.3c0-0.2-0.2-0.3-0.4-0.3
			C137.9,128.8,137.9,128.9,137.9,129.1z"/>
		<polygon fill="#F2F2F2" points="121,223.4 121.1,223.4 121.1,223.4 		"/>
		<path fill="#F2F2F2" d="M88.1,199.1C88.1,199.1,88.1,199.1,88.1,199.1C88.1,199.1,88.2,199.1,88.1,199.1
			C88.2,199.1,88.2,199.1,88.1,199.1C88.2,199.1,88.1,199.1,88.1,199.1z"/>
		<path fill="#F2F2F2" d="M180.3,62.9C180.3,62.9,180.3,62.9,180.3,62.9C180.3,62.9,180.3,62.9,180.3,62.9
			C180.3,62.9,180.3,62.9,180.3,62.9z"/>
		<path fill="#F2F2F2" d="M138.9,129.2c0,0,0-0.1,0-0.1c0-0.1,0-0.2-0.1-0.3c0,0.1-0.1,0.2-0.1,0.3
			C138.8,129.2,138.8,129.2,138.9,129.2z"/>
		<polygon fill="#F2F2F2" points="139.7,126.3 139.6,126.4 139.6,126.4 		"/>
		<path fill="#F2F2F2" d="M213.9,129.2c0,0-0.1,0.1-0.1,0c-0.1,0-0.1-0.1-0.1-0.2c0-0.1,0-0.2,0.1-0.2c0.1-0.1,0.1-0.2,0.2-0.2V91.9
			l10.3-5.2v134l20.6-10.3v-9.6c-0.2,0.2-0.4,0.4-0.6,0.6c-0.1,0.1-0.3,0.1-0.4,0.1c0,0,0,0,0,0c0,0,0,0,0,0c0,0,0,0,0,0
			c0,0,0.1,0.1,0,0.1c0,0-0.1,0-0.1,0c0,0,0-0.1,0.1-0.1c0,0,0,0,0,0c0,0,0,0,0,0c0.1-0.3,0.5-0.5,0.6-0.8c0.1-0.2,0.2-0.4,0.4-0.7
			v-1.5c0,0-0.1,0-0.1,0c-0.2-0.1-0.4-0.2-0.5-0.3c-0.1-0.1-0.1-0.3,0.1-0.4c0.1,0,0.2-0.1,0.2-0.1c0.1,0,0.2,0.1,0.3,0.1V76.5V66.2
			l-20.6,10.3l-10.3,5.2v-5.2V66.2l-20.6,10.3L183,81.6V55.9l-20.6,10.3v185.5l20.6-10.3V130.3c-0.1,0-0.1,0-0.2,0
			c-0.1-0.1-0.2-0.2-0.1-0.3l0,0c0,0,0,0,0,0c-0.1,0-0.2,0.1-0.3,0.1c-0.1,0-0.3,0-0.4-0.1c-0.1-0.1-0.1-0.1-0.2-0.2
			c-0.2-0.2-0.2-0.4,0-0.7c0.1-0.1,0.1-0.1,0.1-0.2c-0.1-0.3-0.3-0.5-0.3-0.8c0-0.2-0.2-0.3-0.3-0.4c-0.1-0.1-0.1-0.1-0.1-0.2
			c0-0.2,0.3-0.3,0.5-0.3c0.2,0.1,0.3,0.2,0.4,0.3c0.2,0.5,0.4,1,0.6,1.4c0,0.1,0,0.2,0,0.3c0,0,0,0,0,0c0,0,0,0,0,0
			c0.1,0,0.2,0,0.3,0.1V91.9l10.3-5.2v61.9c0.1,0,0.1,0,0.2,0c0,0,0.1,0,0.1,0c0,0,0.1,0,0.1,0c0.1,0,0.2,0,0.2,0.1
			c0,0.1-0.1,0.1-0.1,0.2c-0.2,0.1-0.3,0.2-0.5,0.1v3.7c0.1,0,0.1,0,0.2,0c0.1,0,0.2,0.1,0.1,0.2c0,0,0,0.1,0,0.1
			c-0.1,0.1-0.2,0.2-0.3,0.3v82.8l20.6-10.3L213.9,129.2C213.9,129.2,213.9,129.2,213.9,129.2z M237.2,197.8L237.2,197.8
			L237.2,197.8L237.2,197.8z M238.1,197.7c-0.1,0.1-0.1,0.1-0.2,0.1c-0.1,0-0.1-0.1-0.1-0.2c0-0.1,0.1-0.1,0.2-0.2
			c0.1,0,0.3,0,0.3,0.1C238.2,197.6,238.2,197.7,238.1,197.7z M241.6,135.6C241.6,135.6,241.5,135.6,241.6,135.6
			c-0.2-0.1-0.1-0.2,0-0.2c0,0,0.1,0,0.1,0c0,0,0.1,0.1,0.1,0.1C241.7,135.6,241.7,135.6,241.6,135.6z M242.4,203.2
			C242.4,203.2,242.3,203.2,242.4,203.2c-0.2,0.2-0.4,0.1-0.5,0c0,0,0-0.1,0-0.1c0.1-0.1,0.2-0.2,0.3-0.2c0.1,0,0.3,0.1,0.3,0.2
			C242.5,203,242.4,203.1,242.4,203.2z M243,198.3c-0.3-0.1-0.7-0.1-1-0.2c0,0,0-0.1-0.1-0.1c0-0.1,0-0.1,0.1-0.2c0.2,0,0.3,0,0.3,0
			c0.3,0,0.5,0,0.7,0.1c0.1,0,0.1,0.1,0.1,0.2C243.2,198.2,243.1,198.3,243,198.3z M243.4,198.9c0,0.1-0.1,0.1-0.2,0.1
			c-0.1,0-0.1-0.1-0.1-0.2c0,0,0.1-0.1,0.1-0.1c0,0,0.1,0,0.1,0C243.5,198.7,243.5,198.8,243.4,198.9z M244.4,99.7
			c0.1-0.1,0.1-0.1,0.2-0.1c0,0,0.1,0,0.1,0.1c0,0.1,0,0.2,0,0.3c0,0.2-0.1,0.4-0.1,0.6c-0.1,0.2-0.1,0.4-0.2,0.6
			c0,0.1-0.1,0.1-0.1,0.1c0,0-0.1-0.1-0.1-0.1c0,0,0-0.1,0-0.1c0-0.3,0.1-0.5,0.2-0.7C244.4,100.1,244.3,99.9,244.4,99.7z
			 M244,102.3C244,102.3,244,102.3,244,102.3c0.1,0.1,0.2,0.1,0.2,0.1c0,0.4-0.2,0.7-0.3,1.1c-0.3,0.5-0.4,1-0.6,1.6
			c0,0.2-0.1,0.4-0.3,0.6c0,0-0.1,0-0.1,0c-0.1,0-0.1-0.1-0.2-0.2c0,0,0-0.1,0-0.1c0-0.1,0.1-0.2,0.2-0.4c0.1-0.2,0.1-0.3,0-0.5
			c-0.1-0.2-0.1-0.5-0.1-0.7c0-0.2,0.1-0.3,0.1-0.5c0-0.2,0.1-0.3,0.3-0.4c0.3-0.1,0.4-0.3,0.6-0.5c0,0,0.1-0.1,0.1-0.1
			C243.9,102.3,243.9,102.3,244,102.3z M243.6,72.4c0.1-0.1,0.3-0.1,0.3,0c0,0.1,0,0.2-0.1,0.2c0,0-0.1,0-0.1,0.1
			c-0.1,0.1-0.1,0.1-0.2,0c0,0,0-0.1,0-0.1C243.4,72.5,243.5,72.5,243.6,72.4z M242.4,71.2c0.2-0.1,0.4-0.2,0.6-0.2
			c0.2,0,0.3,0.2,0.3,0.4c0,0.2-0.1,0.3-0.2,0.4c-0.1,0.1-0.4,0.1-0.6-0.1c-0.1-0.2-0.1-0.2-0.1-0.3
			C242.3,71.3,242.3,71.2,242.4,71.2z M241.9,96.8c0.1,0.1,0.1,0.1,0,0.2C241.9,97,241.9,97,241.9,96.8
			C241.9,96.9,241.9,96.9,241.9,96.8z M241.7,75.9L241.7,75.9L241.7,75.9L241.7,75.9z M240.7,75c0.2-0.3,0.3-0.3,0.6-0.2
			c0.1,0,0.1,0.1,0,0.2c-0.1,0.2-0.3,0.3-0.5,0.4c0,0-0.1,0-0.1,0c-0.1,0-0.1-0.1-0.1-0.2C240.6,75.1,240.7,75.1,240.7,75z
			 M236.9,124.5c0.3-0.2,0.6-0.2,0.9-0.3c0.2,0,0.4,0,0.5,0.1c0.5,0.4,1.1,0.7,1.6,1.2c0.2,0.2,0.5,0.4,0.9,0.6
			c0.5,0.2,1,0.5,1.5,0.7c0.3,0.1,0.5,0.3,0.8,0.5c0.4,0.5,1,0.9,1.4,1.3c0.1,0.1,0.1,0.2,0,0.2c0,0-0.1,0.1-0.1,0.1
			c-0.1,0-0.3,0-0.4-0.1c-0.1-0.1-0.2-0.2-0.3-0.3c-0.3-0.3-0.6-0.4-1-0.4c-0.2,0-0.4-0.1-0.6-0.2c-0.3-0.2-0.6-0.3-0.9-0.4
			c-0.2,0-0.3-0.1-0.4-0.3c-0.1-0.2-0.2-0.3-0.3-0.4c-0.3-0.2-0.5-0.3-0.8-0.5c-0.2-0.1-0.5-0.2-0.7-0.3c0,0-0.1,0-0.1-0.1
			c-0.1-0.1-0.3-0.1-0.3-0.2c-0.4-0.4-1-0.6-1.4-1C236.8,124.7,236.8,124.6,236.9,124.5C236.8,124.5,236.8,124.5,236.9,124.5z
			 M232.3,100.1c0.1-0.1,0.2-0.3,0.3-0.4c0.1,0,0.2,0,0.2,0c0,0,0,0.1,0,0.1c-0.1,0.1-0.2,0.3-0.3,0.4c-0.1,0-0.2,0-0.2-0.1
			C232.3,100.2,232.3,100.1,232.3,100.1z M228.1,187.4c0.1-0.1,0.3-0.2,0.4-0.2c0.1,0,0.2,0.1,0.2,0.2c0,0.1,0,0.2-0.1,0.2
			c-0.2,0.1-0.3,0.1-0.5,0.1c-0.1,0-0.1-0.1-0.1-0.2C228.1,187.5,228.1,187.4,228.1,187.4z M222.7,77.7L222.7,77.7L222.7,77.7
			L222.7,77.7z M174,110.1C174,110.1,174,110.1,174,110.1c0.1,0.1,0.1,0.1,0,0.1c0,0-0.1,0-0.1,0C173.9,110.2,174,110.2,174,110.1z
			 M173.8,161c0.1,0,0.2,0.1,0.2,0.2c0,0.1-0.1,0.1-0.2,0.1c-0.1,0-0.1-0.1-0.1-0.2C173.7,161.1,173.7,161,173.8,161z M171,85.5
			c0.1-0.1,0.3-0.1,0.3,0.1c0.1,0.3,0,0.5-0.4,0.7c-0.1,0.1-0.2,0-0.2-0.1c0,0,0-0.1,0-0.1C170.7,85.9,170.8,85.7,171,85.5z
			 M165.2,97.4c0.3,0,0.4,0.2,0.6,0.4c0.1,0.1,0,0.2,0,0.2c-0.1,0.1-0.1,0.1-0.2,0.1c-0.2,0-0.3-0.1-0.4-0.3
			c-0.1-0.1-0.1-0.2-0.1-0.4C165.1,97.4,165.1,97.4,165.2,97.4z M163.1,155.7c0.1-0.1,0.2-0.2,0.3-0.3c0,0,0.1,0,0.1-0.1
			c0.1,0,0.2,0,0.2,0.1c0.1,0.2,0,0.4-0.1,0.6c-0.1,0.2-0.3,0.2-0.4,0C163,156,163,155.8,163.1,155.7z M163,160.1
			C163.1,160,163.1,160,163,160.1c0.5,0.3,0.9,0.8,1.2,1.3c0,0.1,0,0.2-0.1,0.2c0,0-0.1,0-0.1,0c-0.3-0.3-0.5-0.7-0.9-0.9
			c-0.1-0.1-0.2-0.3-0.2-0.5C163,160.1,163,160.1,163,160.1z M165.2,169.4c-0.1,0.1-0.2,0.2-0.3,0.2c-0.2,0.1-0.4,0.2-0.5,0.4
			c0,0,0,0.1-0.1,0.1c0,0,0,0,0,0c0,0,0,0,0,0c-0.1,0-0.2,0.1-0.2,0.1c-0.3,0.2-0.5,0.5-0.7,0.7c-0.1,0.1-0.2,0.1-0.3,0.2
			c-0.1,0.1-0.3,0-0.3-0.1c0-0.2-0.1-0.3-0.1-0.5c0-0.4,0.4-0.8,0.7-0.7c0.3,0.1,0.7,0.2,1,0.2c0,0,0,0,0,0l0,0c0,0,0,0,0,0
			c0,0,0,0,0,0c-0.1-0.2-0.2-0.4-0.2-0.6c0-0.1,0.1-0.3,0.2-0.3c0.3,0,0.5-0.1,0.7-0.3c0.2-0.2,0.4-0.4,0.6-0.5c0,0,0.1,0,0.1,0
			c0,0,0,0.1,0,0.1C165.7,168.9,165.4,169.1,165.2,169.4z M165.9,96.5c0,0-0.1,0-0.1,0c-0.1-0.1-0.3-0.2-0.4-0.3c0,0,0-0.1,0-0.1
			c0-0.1,0.1-0.1,0.2-0.1C165.9,96,166,96.2,165.9,96.5C166,96.5,166,96.5,165.9,96.5z M166.2,240c0,0-0.1,0-0.1,0
			c-0.1-0.1-0.1-0.1-0.1-0.2c0-0.1,0.1-0.1,0.2-0.1c0,0,0.1,0,0.1,0.1C166.4,239.8,166.3,239.9,166.2,240z M166.6,212.6L166.6,212.6
			L166.6,212.6L166.6,212.6z M166.6,101.1c-0.1,0-0.2-0.1-0.2-0.3c0,0,0-0.1,0.1-0.1c0.1,0,0.2,0.1,0.3,0.2
			C166.7,101.1,166.7,101.2,166.6,101.1z M167.9,72c-0.1,0-0.2,0.1-0.2,0.1c-0.1,0-0.3-0.1-0.3-0.2c0,0,0-0.1,0-0.1
			c0-0.1,0-0.2,0-0.3c0-0.1,0-0.2,0.1-0.3c0,0,0.1,0,0.1,0c0,0,0.1,0,0.1,0c0.1,0.2,0.2,0.5,0.3,0.7C168,71.9,167.9,72,167.9,72z
			 M168,132.5c0-0.2,0-0.4,0-0.6c0-0.1,0-0.2,0.1-0.1c0,0,0,0.1,0,0.1C168.1,132.1,168.1,132.3,168,132.5
			C168,132.5,168,132.5,168,132.5z M168.3,135.2c-0.1,0-0.1-0.1-0.1-0.2c0-0.2,0-0.3,0-0.5c0,0,0,0,0,0c0-0.1,0-0.2,0-0.4
			c0-0.1,0-0.2,0.1-0.2c0,0,0.1,0.1,0.1,0.1C168.3,134.5,168.3,134.8,168.3,135.2C168.3,135.2,168.3,135.2,168.3,135.2z
			 M168.5,173.1c-0.1,0-0.1-0.1-0.1-0.2c0.1-0.1,0.2-0.2,0.3-0.1c0,0,0,0.1,0,0.1C168.7,173,168.6,173.1,168.5,173.1z M169.4,107.2
			c0,0.1-0.1,0.1-0.2,0.1c-0.1,0-0.2-0.1-0.2-0.1c0,0,0-0.1,0-0.1c0-0.1,0.1-0.1,0.2-0.1c0.1,0,0.2,0,0.2,0.1
			C169.4,107.1,169.4,107.2,169.4,107.2z M169.6,198.8L169.6,198.8L169.6,198.8L169.6,198.8z M169.9,85.4c0.1,0.1,0,0.2-0.2,0.3
			c-0.1,0-0.3,0-0.4,0.1c-0.3,0-0.5-0.2-0.4-0.5c0-0.2,0-0.4,0.2-0.6c0.2-0.4,0.5-0.7,0.6-1.2c0-0.1,0.1-0.2,0.1-0.2
			c0.2-0.2,0.4-0.5,0.6-0.7c0.1-0.1,0.2-0.1,0.2,0c0,0,0,0.1,0,0.1c0,0.1,0,0.2-0.1,0.2c-0.1,0.2-0.2,0.3-0.3,0.4
			c-0.2,0.3-0.3,0.5-0.3,0.8c0,0.1-0.1,0.3-0.1,0.4C169.6,84.8,169.7,85.1,169.9,85.4z M171.1,213.1c0,0-0.1,0-0.1,0.1
			c-0.3,0-0.5-0.1-0.7-0.2c-0.1-0.1-0.1-0.1,0-0.2c0,0,0.1-0.1,0.1-0.1c0.2,0,0.4,0.1,0.6,0.2c0,0,0.1,0.1,0.1,0.1
			C171.2,213,171.2,213.1,171.1,213.1z M171.9,211.8c0,0-0.1,0-0.1,0c-0.1,0-0.2,0-0.2-0.1c0-0.1-0.1-0.2,0-0.3c0,0,0,0,0,0
			c0,0,0,0,0,0c0,0,0,0,0,0c-0.1-0.1-0.1-0.2-0.2-0.3l0,0c0,0,0,0,0,0c-0.1-0.1-0.2-0.2-0.4-0.2l0,0c0,0,0,0,0,0
			c-0.1,0-0.1,0-0.2-0.1c0,0,0.1-0.1,0.1-0.1c0.1,0,0.1,0.1,0.1,0.2c0,0,0,0,0,0c0,0.1,0.1,0.1,0.2,0.1c0.1,0,0.1,0.1,0.2,0.1
			c0.1,0.1,0.2,0.2,0.2,0.3c0,0,0,0,0,0C171.7,211.5,171.8,211.6,171.9,211.8C171.9,211.8,171.9,211.8,171.9,211.8z M172.1,208.9
			c0,0.1-0.2,0.2-0.3,0.1c-0.2-0.1-0.3-0.2-0.3-0.4c0,0,0-0.1,0-0.1c0-0.1,0.1-0.1,0.2-0.1c0.2,0,0.3,0.1,0.4,0.3
			C172.2,208.7,172.2,208.8,172.1,208.9z M172.2,184.5C172.2,184.5,172.2,184.5,172.2,184.5L172.2,184.5L172.2,184.5L172.2,184.5
			C172.2,184.5,172.2,184.5,172.2,184.5C172.3,184.6,172.3,184.6,172.2,184.5z M172.4,115.6l0-0.1h0.1L172.4,115.6z M172.7,78.6
			C172.6,78.6,172.6,78.6,172.7,78.6C172.6,78.6,172.6,78.6,172.7,78.6l-0.1,0C172.5,78.6,172.6,78.6,172.7,78.6
			c-0.1,0.1-0.1,0.1-0.1,0.1c0,0.1,0,0.2,0,0.3c0,0.1-0.1,0.2-0.2,0.2c0,0,0,0,0,0c0,0,0,0,0,0c0,0.3,0.1,0.6,0.2,0.8
			c0,0,0,0.1-0.1,0.1c-0.2,0.2-0.5,0.1-0.8,0.3c0,0-0.1-0.1-0.1-0.1c0.1-0.4,0.2-0.7,0.4-1c0.1-0.1,0.2-0.2,0.3-0.1c0,0,0,0,0,0l0,0
			l0,0c0,0,0,0,0,0c0-0.1,0-0.1,0-0.2c0-0.2,0.1-0.3,0.2-0.3c0,0,0,0,0,0C172.5,78.6,172.6,78.6,172.7,78.6c-0.1-0.3,0-0.6,0.3-0.8
			c0,0,0.1-0.1,0.1,0c0.1,0,0.1,0.1,0.1,0.2C173.1,78.2,172.9,78.4,172.7,78.6z M172.9,97.6L172.9,97.6L172.9,97.6L172.9,97.6z
			 M174.7,200.1c0,0.1,0,0.2,0,0.4c0,0.1,0,0.2-0.1,0.2c-0.2,0.2-0.2,0.5-0.4,0.7c-0.1,0.3-0.2,0.3-0.6,0.5c0,0-0.1,0-0.1,0.1
			c-0.1,0.1-0.1,0.1-0.2,0c-0.2-0.2-0.3-0.4-0.3-0.7c0-0.3,0-0.6,0.2-0.9c0.1-0.1,0.1-0.3,0.1-0.5c0-0.2,0.2-0.3,0.3-0.3
			c0.3,0,0.5,0,0.8,0c0.1,0,0.2,0.1,0.2,0.3C174.7,199.9,174.7,199.9,174.7,200.1z M175.1,73.7C175.1,73.7,175.1,73.6,175.1,73.7
			C175.1,73.6,175.1,73.6,175.1,73.7c-0.1,0.1-0.1,0.2-0.2,0.2c0,0.1-0.1,0.1-0.2,0.1c0,0,0,0,0,0c0,0,0,0,0,0c0,0,0,0,0,0
			c0.1,0.3,0,0.5,0,0.8c0,0,0,0,0,0l0,0c0,0,0,0,0,0c0,0-0.1,0-0.1,0c0,0,0,0,0,0c0,0,0.1,0,0.1,0.1c0,0,0,0,0,0c0,0,0,0,0,0
			c-0.1-0.3-0.1-0.5,0-0.8c0,0,0,0,0-0.1c0-0.1,0-0.2,0.1-0.2C174.9,73.8,175,73.7,175.1,73.7L175.1,73.7
			C175.1,73.6,175.1,73.6,175.1,73.7C175.1,73.6,175.1,73.6,175.1,73.7z M175.3,122.1c-0.1,0-0.2,0-0.2-0.1c0-0.1,0.1-0.1,0.2-0.1
			C175.4,121.9,175.4,122,175.3,122.1C175.4,122,175.4,122.1,175.3,122.1z M176,191.1c-0.1,0.2-0.3,0.2-0.4,0
			c-0.1-0.1-0.1-0.2-0.2-0.4c0,0,0-0.1,0.1-0.1c0.1-0.1,0.2-0.1,0.4,0c0.1,0,0.2,0.1,0.2,0.1C176.2,190.9,176.1,191,176,191.1z
			 M176.4,189.9c-0.1,0.1-0.3,0-0.3-0.1c0-0.1,0-0.2,0.1-0.3c0.1-0.1,0.2-0.1,0.2,0C176.6,189.6,176.6,189.8,176.4,189.9z
			 M176.9,70.6c-0.2,0.4-0.4,0.8-0.6,1.2c0,0,0,0.1-0.1,0.1c0,0-0.1,0.1-0.1,0.1c-0.1,0-0.1-0.1-0.1-0.2c0,0,0-0.1,0-0.1
			c0.2-0.3,0.3-0.6,0.5-0.9c0.1-0.3,0.3-0.5,0.4-0.8c0,0,0,0,0-0.1l0,0c0,0,0,0,0,0c0,0,0.1,0,0.1-0.1c0-0.1,0.1-0.1,0.2-0.1
			c0,0,0,0.1,0,0.1c0,0.1-0.1,0.1-0.2,0.1c0,0,0,0-0.1,0c0,0,0,0,0,0c0,0,0,0,0,0C177,70.2,177,70.4,176.9,70.6z M177.4,179.8
			c-0.1,0-0.2,0-0.2,0c-0.1-0.1-0.1-0.2-0.1-0.2c0.1-0.1,0.2-0.2,0.3-0.3c0,0,0.1,0,0.1,0c0.1,0,0.2,0.1,0.2,0.2
			C177.6,179.6,177.5,179.7,177.4,179.8z M178.1,80.3L178.1,80.3L178.1,80.3L178.1,80.3z M179.6,127.6c-0.1,0-0.1-0.1-0.1-0.2
			c0-0.1,0-0.2,0.1-0.2c0.1,0,0.2,0,0.2,0c0.1,0.1,0.1,0.1,0.1,0.2C179.8,127.6,179.7,127.7,179.6,127.6z M180.6,128.5
			c0,0.1-0.1,0.1-0.2,0.1c-0.1,0-0.2-0.1-0.2-0.2c0-0.1,0-0.2,0.1-0.2c0.1,0,0.2,0,0.3,0.1C180.6,128.4,180.6,128.4,180.6,128.5z
			 M180.4,126.3c0,0,0-0.1,0-0.1c0,0,0.1-0.1,0.1-0.1c0.1,0,0.1,0.1,0.1,0.2C180.6,126.3,180.5,126.3,180.4,126.3
			C180.5,126.3,180.5,126.3,180.4,126.3z M181,62.2c-0.1,0.2-0.2,0.5-0.4,0.6c-0.1,0.1-0.1,0.1-0.2,0.1c0,0,0,0,0,0c0,0,0,0,0,0
			c0,0,0,0.1,0,0.1c0,0.1,0,0.2,0,0.2c0,0-0.1,0.1-0.1,0.1c0,0-0.1,0.1-0.1,0.1c0,0,0,0,0,0c0,0,0,0,0,0c0,0,0,0,0,0
			c0.1,0.1,0.1,0.3,0.1,0.4c0,0.1,0,0.2-0.1,0.4c0,0,0,0,0,0c0,0-0.1,0.1-0.1,0c0,0,0,0,0,0c0,0,0,0-0.1,0.1
			c-0.1,0.1-0.2,0.1-0.3,0.1c0,0,0,0,0,0c0,0,0,0,0,0c0,0,0,0,0,0c0,0,0,0,0,0c0,0,0,0,0,0c0,0.1,0,0.1,0,0c0,0,0,0,0,0c0,0,0,0,0,0
			c0,0,0,0,0,0l0,0c0,0,0,0,0,0c0.1-0.1,0.2-0.2,0.3-0.2c0,0,0.1-0.1,0.1-0.1l0,0c0,0,0,0,0,0c0,0,0,0,0,0c-0.1-0.3-0.1-0.5,0-0.8
			c0,0,0,0,0-0.1c0,0,0.1-0.1,0.2-0.1c0.1-0.1,0.2-0.2,0.2-0.3c0,0,0-0.1,0-0.1c0,0,0,0,0,0c0.1-0.3,0.2-0.6,0.4-0.9
			c0.1-0.1,0.1-0.1,0.2,0C181,62,181,62.1,181,62.2z M181.2,105.9c0-0.1,0.1-0.1,0.2-0.1c0.1,0,0.2,0,0.2,0.1c0,0,0,0.1,0,0.1
			c0,0.1-0.1,0.1-0.2,0.1C181.3,106,181.2,106,181.2,105.9z M181.6,125.2c0,0-0.1,0-0.1,0c-0.1,0-0.1-0.1-0.1-0.2
			c0-0.1,0.1-0.1,0.2-0.1c0.1,0,0.1,0.1,0.1,0.2C181.8,125.1,181.7,125.1,181.6,125.2z M182,90c-0.2,0.1-0.4,0-0.5-0.1
			c-0.1-0.2-0.2-0.4-0.3-0.5c0-0.1,0-0.2-0.1-0.2c0-0.1,0.1-0.3,0.2-0.3c0,0,0.1,0,0.1,0c0.1,0.1,0.3,0.2,0.4,0.3
			c0.2,0.1,0.2,0.3,0.3,0.5C182.2,89.7,182.1,89.9,182,90z M182.8,84.8c0,0-0.1,0.1-0.1,0.1c-0.1,0-0.3,0-0.3-0.2
			c0-0.1,0-0.2,0.1-0.2c0.1,0,0.2,0,0.2,0.1C182.8,84.6,182.9,84.7,182.8,84.8z M194.1,114C194,114,194,114,194.1,114
			c-0.1,0-0.1-0.1,0-0.1C194,113.8,194.1,113.9,194.1,114C194.1,113.9,194.1,113.9,194.1,114z M196.1,90.1c-0.1,0.1-0.1,0.1-0.2,0
			c-0.1-0.1-0.1-0.1-0.1-0.2c0,0,0.1,0,0.1-0.1c0,0,0.1,0,0.1,0c0,0,0.1,0,0.1,0.1C196.2,90,196.2,90.1,196.1,90.1z M197.1,149.3
			c0,0,0-0.1,0-0.1c0,0,0.1,0,0.1,0C197.2,149.2,197.2,149.2,197.1,149.3C197.2,149.3,197.1,149.3,197.1,149.3z M201.6,188.2
			C201.6,188.2,201.5,188.1,201.6,188.2c0-0.1,0-0.1,0-0.1C201.6,188.1,201.7,188.1,201.6,188.2
			C201.7,188.1,201.6,188.2,201.6,188.2z M202.8,185.9c-0.1,0.2-0.4,0.3-0.6,0.2c-0.1,0-0.1-0.1-0.2-0.2c0-0.1,0-0.3,0-0.4
			c0-0.1,0-0.2,0-0.3c0-0.4,0.1-0.4,0.4-0.5c0.1,0,0.2,0,0.3,0.1c0.1,0.1,0.1,0.2,0.1,0.3C202.9,185.5,202.9,185.7,202.8,185.9z
			 M202.9,145.9c0,0-0.1,0.1-0.1,0.1c0,0-0.1,0-0.1,0c-0.1,0-0.1-0.1-0.1-0.2c0-0.2,0.1-0.4,0.3-0.5c0,0,0.1,0,0.1,0
			c0.1,0,0.1,0.1,0.1,0.2C203.1,145.6,203.1,145.8,202.9,145.9z M202.9,142c0,0,0.1,0,0.1,0C203.1,142,203,142.1,202.9,142
			C202.9,142.1,202.9,142,202.9,142z M203.3,123.8c-0.1,0.1-0.2,0.1-0.3,0c-0.1-0.2-0.2-0.3-0.1-0.5c0-0.1,0.1-0.1,0.2-0.1
			c0.2,0.1,0.3,0.2,0.3,0.4C203.4,123.7,203.4,123.8,203.3,123.8z M203.9,124.2C203.9,124.2,203.9,124.2,203.9,124.2
			c-0.1-0.1-0.1-0.1-0.1-0.2c0,0,0.1-0.1,0.1-0.1c0,0,0.1,0,0.1,0.1C204.1,124.1,204,124.2,203.9,124.2z M204.3,202.6
			c-0.1-0.1-0.1-0.1-0.2-0.2c0,0,0.1-0.1,0.1-0.1c0.1,0,0.2,0,0.2,0.1c0,0,0,0.1,0,0.1C204.5,202.7,204.4,202.7,204.3,202.6z
			 M205.2,150.2C205.2,150.2,205.2,150.2,205.2,150.2c-0.1-0.1-0.1-0.2,0-0.2c0,0,0.1,0,0.1,0C205.3,150.1,205.3,150.2,205.2,150.2z
			 M205.3,123c0,0.1-0.1,0.2-0.3,0.2c-0.1,0-0.2-0.2-0.1-0.3c0,0,0.1-0.1,0.1-0.1c0.1-0.1,0.2-0.1,0.2,0
			C205.3,122.8,205.3,122.9,205.3,123z M209.6,151.7C209.6,151.7,209.5,151.7,209.6,151.7c-0.1-0.2-0.1-0.2,0-0.3
			c0,0,0.1,0.1,0.1,0.1c0,0,0,0.1,0,0.1C209.7,151.7,209.7,151.7,209.6,151.7z M211.2,169.8c0,0.1-0.1,0.1-0.2,0.1
			c-0.1,0-0.1-0.1-0.1-0.2c0-0.1,0.1-0.2,0.2-0.3c0,0,0.1,0,0.1,0.1C211.3,169.6,211.3,169.7,211.2,169.8z M211.3,156
			c-0.1,0-0.1-0.1-0.1-0.1c0-0.1,0.1-0.1,0.2-0.1c0.1,0,0.1,0.1,0.1,0.2C211.5,156,211.4,156,211.3,156z M211.8,153.4
			c-0.2-0.1-0.3-0.2-0.4-0.3c-0.1-0.1-0.1-0.1-0.1-0.2c0,0,0.1,0,0.1,0c0.2,0.1,0.4,0.2,0.6,0.2c0.2,0.2,0.5,0.2,0.7,0.3
			c0.1,0,0.1,0.1,0.1,0.2c0.1,0.1-0.1,0.3-0.2,0.2c-0.1,0-0.3,0-0.4-0.1C212.1,153.7,212,153.5,211.8,153.4z M212.6,166.8
			c-0.1,0-0.1-0.1-0.1-0.2c0-0.1,0-0.2,0.1-0.2c0,0,0.1,0,0.1,0c0.1,0,0.1,0.1,0.1,0.2C212.9,166.7,212.8,166.8,212.6,166.8z"/>
		<path fill="#F2F2F2" d="M121,169.2c-0.1,0.2,0,0.4,0.1,0.6c0,0,0,0,0.1,0.1v-1.4c0,0.1-0.1,0.3-0.1,0.4
			C121,168.9,121,169.1,121,169.2z"/>
		<polygon fill="#F2F2F2" points="112.1,209 112.1,209 112.1,209 		"/>
		<polygon fill="#F2F2F2" points="139.6,126.4 139.6,126.4 139.6,126.4 		"/>
		<path fill="#F2F2F2" d="M179.5,64.5C179.5,64.5,179.5,64.5,179.5,64.5C179.5,64.5,179.5,64.5,179.5,64.5
			C179.5,64.5,179.5,64.5,179.5,64.5z"/>
		<path fill="#F2F2F2" d="M139.4,133.7C139.4,133.7,139.5,133.7,139.4,133.7C139.5,133.7,139.5,133.7,139.4,133.7
			C139.5,133.7,139.5,133.7,139.4,133.7C139.5,133.7,139.4,133.7,139.4,133.7z"/>
		<polygon fill="#F2F2F2" points="90.3,168.7 90.3,168.7 90.3,168.7 		"/>
		<path fill="#F2F2F2" d="M138.9,128.8C138.9,128.8,138.9,128.8,138.9,128.8C138.9,128.7,138.9,128.7,138.9,128.8
			C138.9,128.7,138.9,128.7,138.9,128.8C138.9,128.7,138.9,128.8,138.9,128.8z"/>
		<path fill="#F2F2F2" d="M137.9,128.6C138,128.6,137.9,128.6,137.9,128.6C137.9,128.6,137.9,128.6,137.9,128.6
			C137.9,128.6,137.9,128.6,137.9,128.6C137.9,128.6,137.9,128.6,137.9,128.6z"/>
	</g>
	<g>
		<polygon fill="#F2F2F2" points="12.3,149.6 10.2,137.6 6.2,146.3 2.4,137.6 0,149.6 1.7,149.6 2.9,142.9 6.2,150.2 9.5,142.9 
			10.6,149.6 		"/>
		<polygon fill="#F2F2F2" points="113.4,276.6 107.6,287.4 109.3,287.9 112.4,281.8 113.3,289.7 118.7,283.8 117.7,290.6 
			119.3,291.1 120.9,279 114.5,286.1 		"/>
		<path fill="#F2F2F2" d="M130.1,17.8l1.8-7.8l2.4,6.4l1.7-0.3l-1.7-4.2c-0.1,0-0.3,0-0.4,0c-0.1,0-0.2,0-0.4,0
			c-0.3,0-0.5-0.2-0.5-0.6c0-0.1,0-0.3,0.2-0.3c0.2-0.1,0.5-0.1,0.7-0.2l-2.4-6.1l-2.2,9.3l-5.5-7.8l0.1,12.3l1.7-0.3l-0.2-6.9
			L130.1,17.8z"/>
		<path fill="#F2F2F2" d="M285.5,140.3l-1.1-1.9h-1.9l0,0c0.4,0.2,0.9,0.4,1.4,0.5c0.1,0,0.1,0,0.2,0.1c0.2,0.1,0.4,0.2,0.6,0.4
			C284.9,139.8,285.1,140.1,285.5,140.3z"/>
		<rect x="298.3" y="138.5" fill="#F2F2F2" width="1.7" height="11.2"/>
		<path fill="#F2F2F2" d="M288.8,138.5l-1.9,3.2c0.5,0.3,0.9,0.6,1.3,0.9c0,0,0,0,0.1,0l2.5-4.1H288.8z"/>
		<path fill="#F2F2F2" d="M21.9,149.6l1.2-6.8l3.2,7.3l3.3-7.3l1.1,6.8h1.7l-2.1-12c0,0,0,0,0,0l-4,8.6l-3.8-8.7l-2.4,12H21.9z"/>
		<polygon fill="#F2F2F2" points="190.6,17.3 187.4,16.5 189.6,7.2 187.9,6.8 185.4,17.7 190.3,18.8 		"/>
		<path fill="#F2F2F2" d="M182.6,293.6l1.8-0.4l0.6-2.9l4.7-1l1.7,2.4l1.8-0.4l-7.7-10.5L182.6,293.6z M188.7,287.9l-3.3,0.7
			l0.9-4.1L188.7,287.9z"/>
		<polygon fill="#F2F2F2" points="203.6,276.4 201.7,277 200.7,282 196.9,278.6 195,279.2 200.5,284.1 202,288.7 203.6,288.1 
			202.1,283.6 		"/>
		<path fill="#F2F2F2" d="M174.9,3.9L168,15l1.8,0.2l1.6-2.5l4.8,0.6l0.8,2.8l1.8,0.2L174.9,3.9z M172.3,11.2l2.2-3.6l1.2,4
			L172.3,11.2z"/>
		<path fill="#F2F2F2" d="M135.3,282.7c-1.6-0.3-3,0.1-4.4,1c-1.3,0.9-2.1,2.2-2.4,3.7c-0.3,1.8,0.1,3.3,1.2,4.6
			c1,1.2,2.2,1.9,3.6,2.1c1.6,0.3,3.1-0.1,4.4-1c1.3-0.9,2.1-2.2,2.4-3.8c0.3-1.6-0.1-3-1-4.3C138.1,283.7,136.8,282.9,135.3,282.7z
			 M138.4,289.1c-0.2,1.2-0.7,2.1-1.7,2.8c-0.9,0.7-2,0.9-3.1,0.7c-1.1-0.2-1.9-0.7-2.6-1.6c-0.7-0.9-0.9-2-0.7-3.2
			c0.2-1.2,0.7-2.1,1.7-2.7c0.9-0.7,2-0.9,3.1-0.7c1.2,0.2,2.1,0.7,2.7,1.7C138.4,286.8,138.6,287.9,138.4,289.1z"/>
		<path fill="#F2F2F2" d="M287.5,143.8c-0.1-0.1-0.3-0.2-0.4-0.3c-0.6-0.6-1.2-0.9-2.1-0.9c-0.1,0-0.1,0-0.2,0l0.7,1.3l-3.5,5.8h0.8
			c0.1-0.1,0.2-0.2,0.3-0.3c0,0,0.1-0.1,0.1-0.1c0.2-0.2,0.3-0.4,0.3-0.6c0.1-0.7,0.4-1.3,0.9-1.7c0.3-0.3,0.6-0.4,1-0.2
			c0.1,0.1,0.2,0.1,0.3,0.2l0.9-1.4l2.5,4.3h1.9L287.5,143.8L287.5,143.8z"/>
		<path fill="#F2F2F2" d="M173.1,285.1c-0.6-0.5-1.3-0.8-2-0.9c-0.7-0.2-1.6-0.2-2.7-0.1l-2.3,0.2l1.1,11.1l2.3-0.2
			c1.1-0.1,2-0.3,2.6-0.6c0.6-0.3,1.2-0.7,1.8-1.3c1.1-1.2,1.6-2.6,1.4-4.3C175,287.4,174.3,286.1,173.1,285.1z M172.6,292.3
			c-0.4,0.4-0.8,0.7-1.3,0.9c-0.5,0.2-1.1,0.3-1.9,0.4l-0.8,0.1l-0.8-8l0.8-0.1c1.4-0.1,2.5,0.1,3.4,0.7c0.9,0.7,1.4,1.6,1.5,2.9
			C173.6,290.5,173.3,291.5,172.6,292.3z"/>
		<polygon fill="#F2F2F2" points="149.8,14.8 149.6,13.2 145.2,13.6 144.9,9.9 149.2,9.5 149.1,7.9 144.8,8.3 144.6,5.6 149,5.2 
			148.9,3.7 142.8,4.1 143.6,15.3 		"/>
		<polygon fill="#F2F2F2" points="156.2,292.4 148.3,283.7 148,295.6 149.7,295.7 149.9,287.8 157.8,296.5 158.1,284.7 156.5,284.6 
					"/>
		<polygon fill="#F2F2F2" points="163.2,5.2 163.2,3.6 156.4,3.5 156.4,5 159,5.1 158.8,14.7 160.5,14.7 160.6,5.1 		"/>
	</g>
</g>
</svg>
