<?xml version="1.0" encoding="utf-8"?>
<!-- Generator: Adobe Illustrator 17.1.0, SVG Export Plug-In . SVG Version: 6.00 Build 0)  -->
<!DOCTYPE svg PUBLIC "-//W3C//DTD SVG 1.1//EN" "http://www.w3.org/Graphics/SVG/1.1/DTD/svg11.dtd">
<svg version="1.1" id="Layer_1" xmlns="http://www.w3.org/2000/svg" xmlns:xlink="http://www.w3.org/1999/xlink" x="0px" y="0px"
	 viewBox="0 0 300 300" enable-background="new 0 0 300 300" xml:space="preserve">
<g>
	<g>
		<polygon fill="#F2F2F2" points="174.9,130.8 174.9,130.8 174.9,130.8 		"/>
		<path fill="#F2F2F2" d="M134.4,130.5c-0.1,0-0.1,0-0.2,0.1c0,0.1,0,0.2,0,0.2c0,0.1,0.1,0.1,0.2,0.1c0.1,0,0.1,0,0.2-0.1
			c0-0.1,0-0.2,0-0.2C134.6,130.5,134.5,130.5,134.4,130.5z"/>
		<path fill="#F2F2F2" d="M174.9,130.8C174.9,130.8,174.9,130.8,174.9,130.8C174.9,130.8,174.9,130.8,174.9,130.8L174.9,130.8z"/>
		<path fill="#F2F2F2" d="M134.6,132.2c0,0.1,0,0.2,0,0.2c0,0,0.1,0,0.1,0c0.1,0,0.1-0.1,0.1-0.2c0-0.1,0-0.1,0-0.2
			C134.7,132.1,134.6,132.2,134.6,132.2z"/>
		<polygon fill="#F2F2F2" points="174.9,130.8 174.9,130.8 174.9,130.8 		"/>
		<path fill="#F2F2F2" d="M114.5,177.1C114.5,177.1,114.5,177,114.5,177.1c0.1-0.1,0-0.1,0-0.1C114.4,176.9,114.4,177,114.5,177.1
			C114.4,177,114.4,177.1,114.5,177.1z"/>
		<path fill="#F2F2F2" d="M134.9,131.9C134.9,131.9,134.9,131.9,134.9,131.9c-0.1,0-0.2,0-0.2,0.1c0,0,0,0,0,0.1c0,0,0,0,0,0
			C134.9,132.1,134.9,132.1,134.9,131.9z"/>
		<path fill="#F2F2F2" d="M134.9,131.8c0,0.1,0,0.1,0,0.2C134.9,131.9,134.9,131.8,134.9,131.8z"/>
		<path fill="#F2F2F2" d="M134.8,131.6c0,0,0,0.1,0,0.1c0,0,0,0,0,0C134.9,131.8,134.9,131.7,134.8,131.6
			C134.9,131.6,134.9,131.6,134.8,131.6z"/>
		<polygon fill="#F2F2F2" points="134.9,131.9 134.9,131.9 134.9,131.9 		"/>
		<path fill="#F2F2F2" d="M174.8,130c0,0,0,0.1,0,0.2c0,0,0,0,0,0C174.9,130.2,174.9,130.1,174.8,130C174.9,130,174.9,130,174.8,130
			C174.8,130,174.8,130,174.8,130z"/>
		<polygon fill="#F2F2F2" points="72,157.2 72,157.3 72,157.2 		"/>
		<polygon fill="#F2F2F2" points="163.7,208.3 163.6,208.3 163.6,208.3 		"/>
		<path fill="#F2F2F2" d="M164.8,182.9C164.8,183,164.8,183,164.8,182.9L164.8,182.9C164.8,183,164.8,182.9,164.8,182.9z"/>
		<polygon fill="#F2F2F2" points="167.3,78.1 167.3,78.1 167.3,78.1 		"/>
		<path fill="#F2F2F2" d="M83.6,174L83.6,174L83.6,174C83.6,174,83.6,174,83.6,174z"/>
		<path fill="#F2F2F2" d="M72.3,157C72.3,157,72.3,157,72.3,157L72.3,157C72.3,157,72.3,157,72.3,157C72.3,157,72.3,157,72.3,157z"
			/>
		<path fill="#F2F2F2" d="M133.6,132.6c0.1,0,0.1-0.1,0.1-0.2c0-0.1-0.1-0.1-0.2,0C133.5,132.4,133.5,132.5,133.6,132.6
			C133.6,132.6,133.6,132.6,133.6,132.6z"/>
		<path fill="#F2F2F2" d="M97.1,160.3C97.1,160.3,97.1,160.3,97.1,160.3C97.1,160.3,97.1,160.2,97.1,160.3
			C97.1,160.3,97.1,160.3,97.1,160.3z"/>
		<path fill="#F2F2F2" d="M174.9,130.3C174.9,130.3,174.9,130.3,174.9,130.3c0,0.2,0,0.3,0,0.5c0,0,0,0,0,0c0,0,0,0,0-0.1
			C175.1,130.5,175.1,130.5,174.9,130.3C174.9,130.3,174.9,130.3,174.9,130.3C174.9,130.3,174.9,130.3,174.9,130.3z"/>
		<path fill="#F2F2F2" d="M76.3,136.6C76.3,136.6,76.3,136.7,76.3,136.6L76.3,136.6C76.3,136.7,76.3,136.6,76.3,136.6z"/>
		<polygon fill="#F2F2F2" points="136.9,125.8 136.9,125.8 136.9,125.8 		"/>
		<path fill="#F2F2F2" d="M103.8,160.3C103.9,160.3,103.9,160.3,103.8,160.3C103.9,160.3,103.8,160.3,103.8,160.3
			C103.8,160.3,103.8,160.3,103.8,160.3z"/>
		<polygon fill="#F2F2F2" points="103.2,220.3 103.2,220.3 103.2,220.3 		"/>
		<path fill="#F2F2F2" d="M103.2,220.4C103.2,220.4,103.2,220.4,103.2,220.4C103.2,220.4,103.2,220.3,103.2,220.4
			C103.2,220.4,103.2,220.4,103.2,220.4z"/>
		<path fill="#F2F2F2" d="M108.2,139.3C108.2,139.3,108.2,139.3,108.2,139.3C108.2,139.3,108.2,139.3,108.2,139.3
			C108.2,139.3,108.2,139.3,108.2,139.3L108.2,139.3z"/>
		<path fill="#F2F2F2" d="M136.6,125.7C136.6,125.7,136.6,125.7,136.6,125.7C136.6,125.7,136.6,125.7,136.6,125.7
			C136.6,125.7,136.6,125.7,136.6,125.7C136.6,125.7,136.6,125.7,136.6,125.7z"/>
		<path fill="#F2F2F2" d="M167.5,76.9C167.5,76.9,167.5,76.9,167.5,76.9C167.6,76.9,167.6,76.9,167.5,76.9
			C167.6,76.9,167.5,76.9,167.5,76.9z"/>
		<path fill="#F2F2F2" d="M111.2,178.7C111.1,178.7,111.1,178.7,111.2,178.7C111.1,178.7,111.1,178.7,111.2,178.7
			C111.1,178.7,111.1,178.7,111.2,178.7z"/>
		<path fill="#F2F2F2" d="M133.8,139.6C133.8,139.6,133.8,139.6,133.8,139.6C133.8,139.6,133.8,139.6,133.8,139.6
			C133.8,139.6,133.8,139.6,133.8,139.6C133.8,139.6,133.8,139.6,133.8,139.6z"/>
		<path fill="#F2F2F2" d="M111.2,178.9c0,0,0,0.1,0,0.1c0,0,0.1,0,0.1,0C111.3,179,111.3,179,111.2,178.9c0.1-0.1,0-0.1,0-0.2
			C111.2,178.8,111.2,178.9,111.2,178.9z"/>
		<polygon fill="#F2F2F2" points="130.9,149.9 130.9,149.9 130.9,149.9 		"/>
		<path fill="#F2F2F2" d="M132.8,131.4c0-0.1-0.1-0.1-0.2-0.1c0,0-0.1,0.1-0.1,0.1c0,0,0,0.1,0.1,0.1
			C132.7,131.5,132.8,131.5,132.8,131.4z"/>
		<path fill="#F2F2F2" d="M135.1,91.6C135.1,91.6,135.1,91.6,135.1,91.6C135.1,91.6,135.1,91.6,135.1,91.6
			C135.1,91.6,135.1,91.6,135.1,91.6z"/>
		<polygon fill="#F2F2F2" points="131.5,87.1 131.5,87.1 131.5,87.2 131.5,87.1 		"/>
		<polygon fill="#F2F2F2" points="111.2,214.7 111.2,214.7 111.2,214.7 		"/>
		<path fill="#F2F2F2" d="M128.7,132.2c0-0.1-0.1-0.2-0.2-0.1c0,0,0,0.1-0.1,0.1c0,0,0.1,0.1,0.1,0.1
			C128.5,132.3,128.6,132.3,128.7,132.2C128.6,132.2,128.7,132.2,128.7,132.2z"/>
		<path fill="#F2F2F2" d="M125.9,84.6l-9.9-4.9l-19.7-9.9v9.9v4.9l-9.9-4.9l-19.7-9.9v9.9v128.2l19.7,9.9v-29.8c0,0,0,0,0,0
			c-0.1-0.1-0.2-0.2-0.3-0.1c-0.1,0-0.1,0-0.2,0c0,0,0,0,0,0l0,0c0,0,0,0,0,0c0,0,0,0,0,0c0,0.1,0.1,0.1,0.1,0.2
			c0,0.1-0.1,0.1-0.1,0.1c0,0-0.1,0-0.1-0.1c0-0.1,0-0.2,0.1-0.2c0,0,0.1,0,0.1,0c0,0,0,0,0,0c0,0,0,0,0,0c0-0.2,0.1-0.3,0-0.4
			c0-0.1-0.1-0.1-0.2-0.1c-0.1,0-0.2,0-0.2,0.1c0,0.1-0.1,0.2-0.1,0.2c0,0.1-0.1,0.1-0.2,0.2c0,0-0.1,0-0.1,0
			c-0.1,0-0.1-0.1-0.1-0.2c0-0.1,0-0.2,0-0.4c0-0.2,0.1-0.4,0.2-0.6c0.1-0.1,0.1-0.1,0.2-0.1c0.2,0,0.3,0,0.5,0
			c0.1,0.1,0.2,0.3,0.3,0.4c0.1,0.1,0.1,0.1,0.2,0.1c0,0,0,0,0.1,0v-0.6c-0.2-0.1-0.4-0.3-0.5-0.4c-0.2-0.2-0.3-0.5-0.4-0.8
			c-0.2-0.3-0.4-0.5-0.7-0.7c-0.1-0.1-0.3-0.1-0.4-0.2c-0.1-0.1-0.3,0-0.4,0.2c0,0.1,0,0.3-0.1,0.3c-0.1,0.1-0.2,0-0.3,0
			c0,0-0.1,0-0.1,0c-0.1,0-0.2,0-0.2,0.1c-0.1,0.1-0.2,0.2-0.2,0.3c-0.1,0.2-0.1,0.3-0.3,0.4c-0.1,0.1-0.1,0.1-0.2,0.1
			c-0.2,0.1-0.3,0.1-0.5,0.1c-0.1,0-0.2,0-0.2-0.1c0-0.1-0.1-0.1,0-0.2c0.1-0.2,0.2-0.4,0.4-0.5c0.2-0.1,0.4-0.3,0.7-0.4
			c0.3-0.1,0.4-0.3,0.5-0.5c0-0.2,0.1-0.3,0.3-0.4c0.1-0.1,0.3-0.2,0.4-0.1c0.1,0.1,0.2,0,0.2-0.2c0-0.3-0.1-0.5-0.4-0.6
			c-0.1,0-0.2,0-0.2-0.1c-0.3-0.1-0.4-0.1-0.2-0.4c0.1-0.3,0.1-0.5-0.2-0.6c-0.1,0-0.2,0-0.2,0c-0.2,0.2-0.2,0.2-0.4,0.2
			c-0.3,0-0.3,0-0.4,0.2c0,0.1,0,0.1-0.1,0.2c0,0,0,0,0,0l0,0c0,0,0,0,0,0c0,0,0,0,0,0c0.1,0,0.2,0,0.2,0.1c0,0.1,0,0.2-0.1,0.2
			c-0.1,0-0.1-0.1-0.1-0.1c0-0.1,0-0.1,0-0.2c0,0,0,0,0,0c0,0,0,0,0,0c-0.1,0-0.1,0-0.2-0.1c-0.1,0-0.2-0.1-0.1-0.2
			c0.1-0.2,0.2-0.5,0.2-0.7c0-0.1,0.1-0.2,0.3-0.3c0.4-0.1,0.8-0.4,1.2-0.7c0.1-0.1,0.3-0.2,0.4-0.3c0.2-0.2,0.5-0.4,0.7-0.4
			c0.2-0.1,0.3-0.2,0.4-0.3c0.1-0.1,0.1-0.1,0.2,0c0.1,0.1,0.2,0.3,0.1,0.3c0,0,0,0.1-0.1,0.1c-0.2,0.2-0.4,0.4-0.6,0.6
			c-0.2,0.2-0.2,0.5-0.3,0.8c0,0-0.1,0-0.1,0c0,0-0.1,0-0.1,0c-0.1-0.1-0.1-0.2-0.1-0.3c0-0.2-0.1-0.2-0.2-0.2
			c-0.1,0-0.1,0.1-0.2,0.1c-0.2,0.2-0.2,0.3-0.1,0.5c0.1,0.1,0.2,0.3,0.2,0.4c0.1,0.1,0.2,0.2,0.4,0.3c0.2,0,0.4,0.1,0.5,0.3
			c0.1,0.1,0.2,0.3,0.3,0.4c0.2,0.2,0.2,0.4,0.2,0.7c0,0.1,0,0.2,0,0.2c0,0.1,0,0.3,0.1,0.3c0.3,0.2,0.5,0.7,0.8,0.9
			c0.1,0.1,0.1,0.1,0.1,0.2c0,0.2,0.1,0.3,0.2,0.5v-16.9c-0.2,0.1-0.3,0.3-0.5,0.4c0,0-0.1,0-0.1,0.1c-0.3,0.4-0.8,0.8-1.1,1.1
			c-0.1,0.1-0.1,0.3,0.1,0.4c0.1,0.1,0.2,0.1,0.3,0.2c0.1,0,0.1,0.1,0.1,0.2c0,0.1-0.1,0.1-0.2,0.1c0,0-0.1,0-0.1,0c0,0-0.1,0-0.1,0
			c-0.2-0.1-0.5-0.1-0.7-0.1c-0.5,0.1-0.8,0.3-1,0.8c-0.1,0.2-0.2,0.2-0.4,0.2c-0.1,0-0.2,0-0.2,0.1c-0.1,0.1-0.2,0.1-0.3,0.2
			c-0.3,0.2-0.4,0.4-0.3,0.7c0,0.1,0,0.2-0.1,0.3c-0.1,0.1-0.2,0.1-0.3,0.2c-0.2,0.1-0.4,0.3-0.7,0.3c-0.1,0-0.2,0.1-0.3,0.1
			c-0.3,0.2-0.5,0.4-0.8,0.6c-0.3,0.2-0.5,0.4-0.8,0.6c0,0,0,0,0,0.1l0,0c0,0,0,0,0,0c0,0,0,0,0,0c-0.2,0.2-0.3,0.4-0.5,0.5
			c-0.1,0.1-0.3,0.2-0.4,0.2c0,0-0.1,0-0.1-0.1c0,0,0-0.1,0-0.1c0.1-0.2,0.3-0.3,0.4-0.5c0.1-0.1,0.2-0.1,0.3-0.2
			c0.1,0,0.2,0,0.3,0.1c0,0,0,0,0,0c0,0,0,0,0,0c0-0.1,0-0.2,0.1-0.3c0.2-0.2,0.3-0.5,0.5-0.7c0.1-0.1,0.2-0.3,0.2-0.5
			c0.1-0.3,0.3-0.4,0.5-0.5c0.1,0,0.2,0,0.2-0.1c0.1,0,0.2-0.1,0.2-0.1c0.2-0.2,0.5-0.5,0.7-0.7c0.1-0.2,0.3-0.4,0.4-0.6
			c0-0.1,0.1-0.1,0.1-0.2c0-0.2,0.1-0.3,0.3-0.3c0.1,0,0.2,0,0.2-0.1c0.2-0.2,0.4-0.3,0.7-0.3c0.1,0,0.2-0.1,0.2-0.1
			c0.1-0.3,0.4-0.5,0.6-0.7c0.1-0.1,0.1-0.2,0.3-0.2c0.2-0.1,0.4-0.2,0.5-0.4c0.1-0.1,0.2-0.2,0.4-0.3c0.1-0.1,0.3-0.2,0.3-0.4
			c0-0.2,0.1-0.3,0.3-0.4c0.1-0.1,0.2-0.1,0.3-0.1c0.1,0,0.2,0,0.2-0.1c0.2-0.2,0.3-0.5,0.5-0.7c0,0,0,0,0,0c0,0,0,0,0,0
			c-0.1,0-0.1,0-0.1-0.1c0,0,0.1,0,0.1,0c0,0,0,0,0,0.1c0,0,0,0,0,0V89.5l9.9,4.9v89.3c0-0.1,0.1-0.1,0.2-0.1c0.1,0,0.2,0,0.2,0.1
			c0.2,0.3,0.4,0.5,0.6,0.8c0.1,0.1,0.1,0.2,0.1,0.3c0,0.1-0.2,0.3-0.3,0.3c0,0-0.1,0-0.1,0c-0.2-0.1-0.3-0.2-0.3-0.3
			c-0.1-0.2-0.2-0.5-0.3-0.7v38.6l19.7,9.9v-12.2c0,0-0.1,0-0.1,0c0,0,0,0,0,0l0,0c0,0,0,0-0.1,0c-0.1,0.1-0.2,0.2-0.3,0.3
			c0,0-0.1,0-0.1,0c0,0,0-0.1-0.1-0.1c0-0.1,0-0.2,0.1-0.2c0,0,0.1,0,0.1,0c0.1,0,0.2,0,0.3,0c0,0,0,0,0,0c0,0,0,0,0,0
			c0-0.1,0-0.1,0-0.2c0,0,0.1-0.1,0.1-0.1v-11.6c-0.2,0.2-0.4,0.5-0.7,0.6c0,0-0.1,0-0.1,0.1c-0.1,0.2-0.2,0.4-0.4,0.5
			c-0.1,0.1-0.3,0.2-0.4,0.3c-0.2,0.2-0.4,0.3-0.6,0.5c-0.1,0.1-0.3,0.2-0.5,0.2c-0.1,0-0.2,0-0.2-0.1c0-0.1,0-0.2,0-0.2
			c0.1-0.2,0.4-0.3,0.4-0.6c0.1-0.1,0.3-0.2,0.4-0.3c0.1-0.1,0.2-0.1,0.3-0.2c0.1,0,0.2-0.1,0.3-0.2c0.2-0.2,0.4-0.4,0.6-0.6
			c0.1-0.2,0.2-0.4,0.4-0.4c0.1,0,0.1-0.1,0.2-0.1c0,0,0.1-0.1,0.1-0.1v-38.1c0,0,0,0-0.1,0c-0.3,0.1-0.5,0.3-0.6,0.6
			c0,0.5-0.3,1-0.4,1.4c-0.1,0.3-0.1,0.6,0.2,0.8c0.1,0.1,0.1,0.3,0,0.4c-0.1,0.1-0.1,0.1-0.2,0.2c-0.1,0-0.1,0.1-0.2,0.1
			c-0.1,0.1-0.2,0.2-0.2,0.3c-0.1,0.4-0.3,0.8-0.4,1.2c-0.1,0.4-0.2,0.9-0.3,1.3c0,0.2-0.1,0.4-0.2,0.6c-0.2,0.4-0.2,0.8-0.3,1.2
			c-0.1,0.4-0.1,0.7-0.2,1.1c-0.1,0.4-0.1,0.7-0.2,1.1c0,0.1,0,0.2,0,0.4c0,0.1,0,0.2,0.1,0.4c0,0.2,0,0.3-0.1,0.5
			c-0.2,0.3-0.3,0.7-0.3,1.1c0,0.1-0.1,0.2-0.1,0.3c-0.1,0.1-0.2,0.3-0.1,0.5c0,0.3,0,0.6-0.1,0.9c-0.1,0.1,0,0.3,0,0.5
			c0,0.2,0,0.3-0.1,0.5c-0.2,0.2-0.3,0.5-0.4,0.8c0,0.1-0.2,0.2-0.3,0.2c0,0.3,0,0.7,0.1,1c0,0.1,0.3,0.2,0.4,0.1
			c0.2-0.2,0.4-0.4,0.7-0.6c0,0,0.1,0,0.1,0c0.1,0,0.1,0.1,0.2,0.1c0,0.1,0,0.2-0.1,0.2c-0.1,0.1-0.3,0.2-0.3,0.4c0,0,0,0.1,0,0.1
			c-0.1,0.3-0.3,0.6-0.5,0.8c-0.1,0.1-0.2,0.3-0.2,0.4c0,0.1-0.1,0.1-0.2,0c-0.1-0.1-0.1-0.2-0.2-0.1c-0.1,0-0.1,0.1-0.1,0.2
			c0,0.2,0,0.4,0.3,0.5c0,0,0.1,0.1,0.1,0.1c0,0,0,0.1,0,0.1c-0.1,0.2-0.2,0.4-0.3,0.7c-0.1,0.2,0,0.3,0.1,0.5c0,0,0,0,0,0l0,0
			c0,0,0.1,0,0.1,0c0,0.2,0,0.5,0,0.7c0,0.2,0,0.2-0.3,0.2c0,0-0.1,0-0.1,0c-0.1,0.1-0.2,0.3-0.3,0.4c0,0,0,0.1,0,0.1
			c0,0.4-0.3,0.8-0.3,1.2c0,0.2-0.1,0.3-0.1,0.5c-0.1,0.2,0,0.3,0.2,0.3c0.1,0,0.2,0,0.2,0.1c0.1,0,0.1,0.1,0.1,0.2
			c0,0,0,0.1-0.1,0.1c-0.1,0.2-0.3,0.3-0.5,0.3c-0.2,0.1-0.3,0.3-0.3,0.5c0,0.1,0,0.2,0,0.2c0,0.3-0.1,0.7-0.1,1
			c0,0.2-0.1,0.3-0.2,0.5c-0.1,0.1-0.1,0.3-0.2,0.5c-0.2,0.9-0.4,1.8-0.5,2.7c0,0.2-0.1,0.5-0.2,0.7c-0.2,0.5-0.3,1.1-0.3,1.7
			c0,0.2,0,0.3-0.1,0.5c-0.1,0.2-0.2,0.4-0.2,0.6c0,0.4-0.1,0.7-0.1,1.1c0,0.1-0.1,0.2-0.1,0.2c-0.1,0.2-0.2,0.3-0.3,0.5
			c-0.1,0.4-0.2,0.8-0.3,1.2c0,0.1-0.1,0.1-0.3,0.2c0,0,0,0,0,0c0,0,0,0,0,0c0,0,0,0,0,0c0,0.1,0.1,0.2,0.1,0.3c0,0.2,0,0.5-0.1,0.7
			c0,0.1-0.1,0.2-0.1,0.4c-0.1,0.3-0.2,0.5-0.3,0.8c-0.1,0.2-0.1,0.5-0.2,0.7c0,0.1-0.1,0.1-0.2,0c0,0-0.1-0.1-0.1-0.1
			c0,0,0-0.1,0.1-0.1c0.1-0.1,0.1-0.2,0.1-0.3c0-0.2,0-0.4,0-0.6c0-0.2,0.2-0.4,0.2-0.6c0.1-0.4,0.2-0.7,0.3-1.1
			c0-0.1,0.1-0.1,0.1-0.2c0,0,0,0,0,0c0,0,0,0,0,0c0-0.2-0.1-0.3-0.1-0.5c0-0.2,0-0.3,0.1-0.5c0.1-0.1,0.1-0.1,0.1-0.2
			c0.1-0.1,0.2-0.3,0.2-0.5c0,0,0-0.1,0-0.1c0.1-0.4-0.1-0.8,0.1-1.2c0.1-0.3,0.2-0.7,0.4-1.1c0.1-0.2,0.1-0.5,0.1-0.7
			c0-0.2,0-0.3,0-0.5c0.1-0.4,0.2-0.9,0.2-1.3c0-0.2,0.1-0.5,0.1-0.7c0-0.2,0.1-0.4,0.3-0.5c0.1-0.1,0.1-0.1,0.1-0.2
			c-0.1-0.3,0-0.5,0.1-0.7c0.1-0.2,0.2-0.4,0.3-0.6c0.1-0.2,0.2-0.5,0.2-0.7c0-0.1,0-0.3,0.1-0.4c0.1-0.4,0.2-0.7,0.2-1.1
			c0-0.3,0.1-0.6,0.1-0.9c0.1-0.4,0.1-0.7,0-1.1c0-0.2,0-0.3,0.1-0.5c0.3-0.4,0.4-0.9,0.3-1.4c0-0.1-0.1-0.2-0.2-0.3
			c-0.2-0.2-0.2-0.3,0.1-0.5c0.1-0.1,0.2-0.2,0.3-0.2c0.1-0.1,0.2-0.2,0.3-0.4c0.1-0.3,0.3-0.7,0.4-1c0-0.1,0.1-0.2,0.1-0.4
			c0-0.4,0.1-0.7,0.2-1.1c0-0.5,0.2-1.1,0.2-1.6c0,0,0,0,0,0l0,0c0.1-0.1,0-0.2,0-0.4c-0.1-0.2-0.2-0.2-0.4-0.1
			c-0.3,0.2-0.3,0.2-0.5-0.1c0-0.1-0.1-0.1-0.1-0.2c0,0,0-0.1,0-0.1c-0.1-0.1,0-0.2,0.2-0.2c0.2,0,0.3-0.1,0.4-0.3
			c0-0.1,0.1-0.1,0.1-0.2c0.1-0.1,0.2-0.1,0.3-0.1c0.2,0,0.4-0.1,0.4-0.2c0-0.2,0.1-0.5,0-0.7c-0.1-0.2-0.2-0.5,0.1-0.7
			c0,0,0.1-0.1,0.1-0.1c0,0,0.1-0.1,0.1-0.1c0.1-0.3,0.2-0.6,0.3-0.9c0-0.2,0-0.3-0.1-0.5c0-0.1,0-0.2,0-0.2c0.3-0.3,0.3-0.7,0.4-1
			c0.2-0.8,0.3-1.6,0.6-2.4c0.1-0.7,0.4-1.4,0.4-2.1c0-0.3,0.1-0.5,0.2-0.7c0.1-0.3,0.2-0.5,0.2-0.8c0-0.1,0-0.2,0-0.2
			c0-0.3,0.1-0.7,0.2-1c0-0.1,0.1-0.2,0.1-0.2c0.1-0.3,0.2-0.5,0.2-0.8c0-0.2,0-0.4,0.1-0.6c0.2-0.4,0.2-0.8,0.2-1.2
			c0-0.1,0-0.2,0.1-0.2c0.2-0.2,0.3-0.5,0.3-0.8c0-0.3,0.1-0.6,0.2-1c0.2-0.4,0.3-0.8,0.4-1.2v-5.8c-0.1-0.1-0.1-0.2-0.3-0.2
			c-0.2-0.1-0.2-0.3-0.2-0.4c0-0.3,0.1-0.6,0.3-0.9c0,0,0.1-0.1,0.1-0.1v-16.6c-0.3,0.2-0.6,0.5-0.9,0.8c-0.1,0-0.1,0.1-0.1,0.2
			c0,0,0,0,0,0c0,0,0,0,0,0c0,0,0,0,0,0c0,0,0,0,0,0c0,0,0,0,0,0c0,0,0,0,0,0c0-0.1-0.1-0.1-0.1-0.2c0-0.1,0-0.2,0-0.2
			c0.2-0.2,0.3-0.5,0.5-0.7c0.1-0.2,0.2-0.2,0.4-0.2c0,0,0.1,0,0.1,0c0,0,0.1,0,0.1-0.1V89.5l9.9,4.9v7.3c0-0.1,0-0.1,0.1-0.1
			c0.1-0.1,0.1-0.1,0.1-0.2c0.1-0.5,0.2-0.9,0.3-1.3c0-0.2,0.1-0.4,0.1-0.6c0-0.2,0.1-0.5,0.1-0.7c0.1-0.5,0.2-1,0.3-1.6
			c0-0.3,0.2-0.6,0.2-1c0-0.3,0.1-0.7,0.1-1c0-0.3,0.1-0.7,0.1-1c0-0.2,0-0.3,0.1-0.5c0.1-0.3,0.1-0.6,0.2-0.8c0,0,0-0.1,0-0.1
			c0,0,0.1,0,0.1,0.1c0,1.4-0.1,2.1-0.3,3.1c0,0.2-0.1,0.4-0.1,0.6c0,0.1,0,0.2,0,0.4c0,0.3-0.2,0.5-0.2,0.8c0,0.3,0,0.6-0.1,0.9
			c0,0.1,0,0.2-0.1,0.4c-0.1,0.2,0,0.4,0.1,0.6c0.1,0.1,0.1,0.1-0.1,0.3c-0.2,0.2-0.2,0.4-0.1,0.6c0,0,0.1,0.1,0.1,0.1
			c0.1,0.1,0.1,0.2,0,0.3c-0.1,0.1-0.1,0.1-0.2,0.1c0,0-0.1,0-0.1,0.1c-0.1,0.3-0.2,0.5-0.3,0.8c-0.1,0.6-0.2,1.1-0.3,1.7
			c0,0.3,0,0.6-0.2,0.8v28.6c0.1-0.1,0.3-0.3,0.5-0.3c0.1,0,0.1-0.1,0.2-0.2c0.2-0.3,0.3-0.7,0.4-1c0-0.1,0.1-0.2,0.2-0.2
			c0.2,0,0.5-0.1,0.7-0.2c0.2,0.2,0.4,0.1,0.5,0c0.2-0.1,0.3-0.2,0.5-0.4c0.1-0.1,0.1-0.1,0.2-0.2c0.3-0.3,0.5-0.5,0.8-0.8
			c0.1-0.1,0.1-0.1,0.2-0.1c0.1-0.1,0.3,0,0.3,0c0.1,0.1,0.2,0.2,0.3,0.3c0.1,0.1,0.3,0.1,0.5,0c0.2-0.1,0.3-0.2,0.5-0.4
			c0.2-0.1,0.3-0.2,0.5-0.3c0-0.1,0-0.1,0-0.2c0-0.2,0-0.2,0.2-0.2c0.1,0,0.2,0,0.2,0c0.2,0,0.4,0.2,0.4,0.5
			c0.1,0.1,0.2,0.1,0.3,0.2c0.1,0.2,0.3,0.3,0.2,0.6c0,0.3,0,0.5,0.1,0.7c0,0,0.1,0,0.1,0.1c0.1,0,0.2,0,0.2-0.1
			c0-0.1,0.1-0.1,0.1-0.2c0-0.2,0.1-0.3,0.1-0.5c0-0.3,0.1-0.5,0.2-0.7c0.1-0.1,0.1-0.3,0-0.5c-0.1-0.1-0.2-0.3-0.3-0.4
			c-0.1-0.1-0.3-0.2-0.4-0.3c-0.1-0.1-0.2-0.3-0.4-0.2c-0.1,0-0.2,0.1-0.3,0.2c-0.1,0.1-0.2,0.1-0.3-0.2c-0.1-0.2-0.2-0.3-0.4-0.2
			c-0.1,0-0.2,0-0.2,0c0,0-0.1,0-0.1,0c-0.1,0-0.2-0.2-0.2-0.3c0.1-0.3,0.2-0.5,0.4-0.7c0.1-0.1,0.3-0.1,0.4,0.1
			c0,0.1,0.1,0.1,0.1,0.2c0,0.1,0.1,0.1,0.1,0.2c0.1,0.1,0.1,0.1,0.2,0c0.1,0,0.1-0.1,0.1-0.2c-0.1-0.3-0.3-0.5-0.2-0.8
			c0-0.1,0.1-0.1,0.2-0.1c0.1,0,0.2,0.1,0.3,0.2c0.1,0.3,0.3,0.5,0.4,0.7c0.1-0.2,0.2-0.3,0.4-0.5c0.1-0.1,0.2-0.1,0.3,0
			c0.1,0.1,0.1,0.2,0.2,0.3c0,0.3,0.1,0.6,0.1,0.9c0,0.2,0,0.3,0.2,0.5c0.2,0.2,0.2,0.5,0.2,0.7c0,0.2,0.1,0.3,0.2,0.4
			c0.3,0.1,0.5,0.4,0.8,0.6c0.1,0,0.1,0.1,0.1,0.2c0,0.2-0.1,0.3-0.1,0.5c0,0.1-0.1,0.2-0.2,0.3c-0.1,0.1-0.2,0.2-0.2,0.3
			c-0.1,0.1-0.1,0.3,0,0.5c0.1,0.2,0.3,0.3,0.3,0.5c0,0.1,0,0.2-0.1,0.2c-0.1,0-0.2,0-0.2,0c-0.3,0-0.3,0-0.4,0.2
			c0,0.1,0,0.2-0.1,0.2c-0.1,0.3-0.2,0.4-0.5,0.5c-0.1,0-0.3,0-0.4,0.1c-0.2,0.1-0.4,0.3-0.6,0.5c0,0,0,0,0,0c0,0,0,0,0,0
			c0,0,0,0,0,0c0,0,0,0,0,0l0,0c0,0,0,0,0,0c0,0,0,0,0,0c0,0,0,0,0.1,0c0,0,0,0,0,0c0,0,0,0,0,0c0,0,0,0,0,0c0-0.2,0.1-0.4,0-0.6
			c0,0-0.1,0-0.1,0c0,0-0.1,0-0.1,0c-0.1,0.1-0.1,0.3-0.3,0.4c-0.2,0.1-0.2,0.3-0.1,0.5c0,0,0,0.1-0.1,0.1c0,0-0.1,0-0.1,0
			c-0.1,0-0.1-0.1-0.2-0.2c0-0.1-0.1-0.2-0.2-0.3c-0.2-0.2-0.2-0.3,0-0.4c0.1-0.1,0.2-0.1,0.3-0.2c0.1-0.1,0-0.3,0-0.3
			c-0.2-0.2-0.4-0.4-0.7-0.5c-0.1,0-0.2,0-0.2,0c-0.1,0-0.1,0.1-0.1,0.2c0.1,0.2,0.1,0.3,0.2,0.5c0,0,0,0.1,0,0.1
			c0,0.1-0.1,0.1-0.2,0c-0.1-0.1-0.2-0.3-0.3-0.4c0-0.1-0.1-0.1-0.2-0.1c-0.4,0-0.7-0.3-1-0.5c-0.1-0.1-0.2-0.2-0.2-0.3
			c-0.1-0.1-0.2-0.3-0.2-0.5c-0.1-0.2-0.2-0.3-0.5-0.3c-0.1,0-0.2,0.1-0.2,0.2c0,0.1,0.1,0.2,0.1,0.4c0,0.1,0,0.2,0,0.2
			c-0.2,0.2-0.4,0.5-0.6,0.6c-0.1,0.1-0.2,0.1-0.4,0c-0.3-0.1-0.5,0-0.6,0.3c0,0.1-0.1,0.1-0.2,0.2c-0.1,0.1-0.1,0.1-0.2,0
			c-0.1,0-0.1-0.1-0.2-0.1c-0.1,0-0.2,0-0.2,0.1c-0.1,0.3-0.3,0.5-0.6,0.5c-0.1,0-0.1,0-0.2,0v32.1c0.1-0.1,0.2-0.2,0.4-0.2
			c0.1,0,0.2,0,0.2,0c0.2,0,0.3,0.3,0.2,0.5c-0.1,0.1-0.1,0.1-0.2,0.2c-0.2,0.2-0.2,0.2,0,0.4c0.1,0.1,0.1,0.2,0.1,0.3
			c0,0.1,0,0.2,0,0.2c0,0.1-0.2,0.2-0.3,0.2c-0.1,0-0.1-0.1-0.2-0.1c-0.1-0.1-0.1-0.3-0.2-0.4c0,0,0,0,0,0V216c0.1,0,0.1,0,0.2,0
			c0.2,0,0.3,0,0.3,0c0.2,0,0.2,0,0.3,0c0.3,0,0.5,0,0.7-0.2c0.1-0.1,0.3-0.1,0.4,0.1c0.2,0.3,0.2,0.3,0,0.6c-0.1,0.1-0.1,0.2,0,0.3
			c0.1,0.1,0.1,0.1,0.2,0.2c0,0.1,0.1,0.1,0.1,0.2c0,0,0,0.1,0,0.1c0,0.1-0.1,0.1-0.2,0.1c-0.1,0-0.2-0.1-0.3-0.2
			c-0.2-0.1-0.3-0.2-0.4-0.4c-0.1-0.2-0.3-0.3-0.5-0.3c-0.2,0-0.4,0-0.6,0c0,0-0.1,0-0.1,0v9.9c0.1,0,0.1,0,0.2,0c0,0,0.1,0,0.1,0
			c0.1,0,0.2,0.1,0.2,0.1c0.1,0,0.1,0.2,0.1,0.3c0,0.1-0.1,0.1-0.2,0.1c-0.1-0.1-0.3-0.1-0.4,0v3.8c0,0,0,0,0,0c0,0.1,0,0.1,0,0.2
			v6.6l19.7,9.9V69.8l-19.7-9.9V84.6z M85.3,196.4C85.3,196.4,85.3,196.4,85.3,196.4c0.1,0.2,0.1,0.2,0,0.3c0,0-0.1,0-0.1-0.1
			C85.1,196.5,85.2,196.4,85.3,196.4z M84.4,197.1C84.4,197,84.4,197,84.4,197.1C84.4,197,84.4,197,84.4,197.1
			C84.4,197.1,84.4,197.1,84.4,197.1C84.3,197.1,84.3,197.1,84.4,197.1C84.3,197,84.3,197,84.4,197.1C84.3,197,84.3,197,84.4,197.1
			C84.3,197,84.3,197,84.4,197.1L84.4,197.1C84.4,197,84.4,197,84.4,197.1C84.4,197,84.4,197,84.4,197.1z M83,189.4
			c0.1-0.1,0.2-0.3,0.2-0.4c0.1-0.2,0.1-0.3,0-0.5c-0.1-0.1-0.1-0.2-0.1-0.4c0-0.1,0.2-0.2,0.3-0.2c0.1,0,0.2,0.1,0.2,0.1
			c0.2,0.1,0.4,0.2,0.7,0.2c0.2,0,0.3,0,0.5,0.1c0.1,0,0.2,0.1,0.1,0.3c0,0.1-0.1,0.2-0.1,0.3c0,0.1-0.1,0.2-0.2,0.3
			c-0.1,0-0.2,0.1-0.2,0.1c-0.2,0-0.3,0-0.5,0.1c-0.1,0.1-0.3,0.2-0.4,0.3c-0.2,0.1-0.3,0.1-0.5-0.1c0,0,0-0.1-0.1-0.1
			C83,189.4,83,189.4,83,189.4z M81.9,199c0-0.1,0.1-0.1,0.2-0.1c0.1,0,0.1,0.3,0,0.3c0,0-0.1,0-0.1,0
			C81.9,199.2,81.9,199.1,81.9,199z M85.9,179.3c0-0.1,0.1-0.2,0.2-0.1c0.1,0,0.1,0.1,0,0.2c0,0.1-0.1,0.1-0.2,0.1
			c0,0-0.1-0.1-0.1-0.1C85.8,179.4,85.9,179.3,85.9,179.3z M85.6,184L85.6,184L85.6,184L85.6,184z M84.7,178.9
			c0.1,0,0.1,0.1,0.2,0.1c0,0.1,0,0.3-0.1,0.3c-0.1,0-0.3-0.1-0.3-0.2c0-0.1,0-0.1,0-0.2C84.6,178.9,84.7,178.9,84.7,178.9z
			 M84.2,173.7c0.1-0.2,0.2-0.2,0.3-0.3c0,0,0.1,0,0.1,0c0,0.2-0.1,0.3-0.2,0.4c0,0-0.1,0-0.1,0C84.2,173.8,84.2,173.8,84.2,173.7z
			 M83,174.5c0-0.1,0.1-0.1,0.2-0.2c0.1-0.1,0.3-0.2,0.4-0.3c0,0,0,0,0,0l0,0c0,0,0,0,0,0c0.1,0,0.2,0,0.2,0.1c0,0-0.1,0-0.1,0
			c0,0,0,0-0.1-0.1c0,0,0,0,0,0c0,0,0,0,0,0c0,0.1,0,0.2-0.1,0.3c-0.1,0.1-0.2,0.2-0.3,0.4c0,0-0.1,0-0.1,0
			C83,174.6,83,174.6,83,174.5z M80.5,212C80.5,211.9,80.5,211.9,80.5,212c0-0.1,0-0.1,0-0.2C80.6,211.8,80.6,211.9,80.5,212
			C80.6,211.9,80.6,211.9,80.5,212z M81.4,175.4c0-0.1,0.1-0.2,0.3-0.1c0.1,0.1,0.3,0.2,0.4,0.3c-0.2,0.3-0.5,0.5-0.8,0.7
			c0,0-0.1,0-0.1,0c0,0-0.1-0.1,0-0.1C81.2,175.9,81.4,175.7,81.4,175.4z M79.2,211C79.2,210.9,79.2,210.9,79.2,211
			c0.4-0.2,0.6-0.4,0.8-0.7c0,0,0.1,0,0.1-0.1c0,0,0.1,0,0.1,0c0.2,0.1,0.4,0.1,0.6,0.2c0,0,0,0.1,0,0.1c0,0,0,0.1,0,0.1
			c-0.5,0.2-1,0.4-1.5,0.6c-0.1,0-0.2,0-0.2,0C79.1,211.1,79.2,211,79.2,211z M78.8,197.2L78.8,197.2L78.8,197.2L78.8,197.2z
			 M78.4,211.3c0,0,0.1,0,0.1,0c0,0,0,0.1,0,0.1c0,0-0.1,0-0.1,0C78.3,211.4,78.3,211.4,78.4,211.3z M75.5,93.7c0.1,0,0.2,0,0.2,0.1
			c0,0,0,0.1-0.1,0.1C75.5,94,75.5,94,75.4,94c0,0-0.1,0-0.1,0c0,0,0-0.1,0-0.1C75.2,93.8,75.3,93.7,75.5,93.7z M73.6,104.3l0,0.1
			L73.6,104.3L73.6,104.3z M71.4,102.5c0,0.1-0.1,0.2-0.2,0.2c-0.1,0-0.1,0-0.2-0.1c-0.1,0-0.2-0.2-0.1-0.3c0-0.1,0.1-0.2,0.3-0.2
			C71.3,102.2,71.4,102.3,71.4,102.5z M71,89.7c0.1,0.1,0.1,0.1,0.1,0.2c0,0-0.1,0-0.1,0c-0.1,0-0.1,0-0.2-0.1c0,0,0-0.1,0-0.1
			c0,0,0-0.1,0.1-0.1C70.9,89.6,71,89.6,71,89.7z M70.6,85.2c0.1-0.1,0.1-0.1,0.2,0c0.1,0.1,0.1,0.1,0,0.2c-0.1,0-0.2,0-0.2,0
			C70.6,85.3,70.6,85.2,70.6,85.2z M67.7,140.8c0.1,0,0.3,0.2,0.3,0.3c-0.1,0.2-0.3,0.4-0.6,0.4c0,0-0.1,0-0.1-0.1
			C67.2,141.1,67.4,140.9,67.7,140.8z M67.7,207.9c-0.1,0.1-0.1,0.1-0.2,0c-0.2,0-0.3-0.2-0.3-0.3c-0.1-0.2,0-0.3,0.2-0.3
			c0.1,0,0.2,0,0.2,0c0.1,0,0.2,0.1,0.2,0.3C67.8,207.7,67.8,207.8,67.7,207.9z M67.5,186.3c-0.1,0.1-0.3,0.2-0.5,0.3
			c-0.1,0-0.2,0-0.2,0c-0.1-0.1-0.1-0.1-0.1-0.2c0-0.2,0.1-0.3,0.3-0.4c0.2-0.1,0.4-0.3,0.6-0.4c0.1-0.1,0.2-0.2,0.3-0.2
			c0,0,0.1,0.1,0.1,0.1C67.9,185.8,67.7,186.1,67.5,186.3z M69.8,203C69.8,203,69.8,202.9,69.8,203c0-0.1,0-0.1,0-0.1
			C69.9,202.9,69.9,202.9,69.8,203C69.9,202.9,69.9,203,69.8,203z M70.4,176c-0.1,0-0.1-0.1-0.1-0.2c0,0,0-0.1,0-0.1
			c0.1-0.1,0.1-0.1,0.2,0c0.1,0.1,0.1,0.1,0.1,0.2C70.6,176.1,70.5,176.1,70.4,176z M71.8,171.8c-0.4,0.1-0.7,0.1-1.1,0
			c-0.1,0-0.2-0.1-0.1-0.2c0,0,0.1-0.1,0.1-0.1c0.2,0,0.3-0.1,0.7-0.1C71.4,171.5,71.6,171.6,71.8,171.8
			C71.8,171.8,71.8,171.8,71.8,171.8z M71.9,157.3c-0.2,0.2-0.4,0.2-0.6,0.2c0,0,0-0.1,0-0.1c0,0,0-0.1,0-0.1c0,0,0.1-0.1,0.1-0.1
			C71.6,157.2,71.8,157.2,71.9,157.3C72,157.3,72,157.3,71.9,157.3C72,157.2,72,157.2,71.9,157.3c0.1,0,0.1-0.1,0.1-0.1
			C72,157.2,72,157.2,71.9,157.3C72,157.3,72,157.3,71.9,157.3z M71.7,153.3c0.1,0,0.2,0,0.2,0c0.1,0.1,0.2,0.3,0.1,0.4
			c0,0,0,0.1-0.1,0.1c0,0-0.1,0-0.1,0c-0.1,0-0.2-0.1-0.3-0.2C71.5,153.6,71.5,153.4,71.7,153.3z M72.1,181.8L72.1,181.8L72.1,181.8
			L72.1,181.8z M72.3,157C72.3,157,72.3,157,72.3,157c-0.1,0.1-0.1,0.1-0.1,0.1C72.2,157,72.3,157,72.3,157
			C72.3,157,72.3,157,72.3,157C72.2,157,72.2,157,72.3,157C72.3,156.9,72.3,157,72.3,157C72.3,157,72.3,157,72.3,157
			C72.3,157,72.3,157,72.3,157L72.3,157L72.3,157z M72.6,171.8L72.6,171.8L72.6,171.8L72.6,171.8z M73.1,155.5
			C73.1,155.6,73,155.6,73.1,155.5c-0.2-0.1-0.3-0.1-0.3-0.2c-0.2-0.3-0.3-0.6-0.5-1c0,0,0.1,0,0.1-0.1c0.2,0,0.3,0,0.3,0.1
			c0.1,0.2,0.1,0.4,0.2,0.6c0.1,0.2,0.2,0.3,0.2,0.5C73.2,155.5,73.1,155.5,73.1,155.5z M73.4,150.9
			C73.3,150.9,73.3,150.8,73.4,150.9c-0.1-0.1-0.1-0.2,0-0.2c0.1-0.1,0.1,0,0.2,0c0,0,0,0.1,0,0.1C73.5,150.9,73.4,150.9,73.4,150.9
			z M72,148.4c-0.1-0.1-0.2-0.3-0.3-0.4c-0.1-0.1-0.1-0.1-0.2-0.1c-0.3,0-0.5-0.3-0.7-0.4c-0.1-0.1-0.2-0.1-0.1-0.4
			c0.1-0.2,0-0.4-0.2-0.6c-0.1-0.1-0.2-0.2-0.4-0.3c-0.1-0.1-0.1-0.1-0.2-0.1c-0.1,0-0.1,0-0.2,0c-0.4,0.2-0.6,0-0.8-0.3
			c-0.1-0.1-0.1-0.2-0.1-0.3c0.2-0.3,0.1-0.6,0-0.9c-0.1-0.2,0-0.3,0.2-0.3c0.1,0,0.2,0,0.2,0c0.1,0,0.2,0.1,0.3,0.2
			c0.1,0.1,0.2,0.3,0.4,0.3c0.1,0,0.2,0,0.4,0c0.1,0,0.2,0.1,0.2,0.2c0,0.1-0.1,0.2,0,0.2c0,0.1,0.1,0.1,0.2,0.2
			c0.2,0.1,0.2,0.2,0.2,0.4c0,0.1,0.1,0.2,0.2,0.3c0.3,0.1,0.4,0.2,0.6,0.4c0.2,0.2,0.4,0.5,0.7,0.7c0.1,0.1,0.2,0.2,0.2,0.3
			c0.1,0.3,0.3,0.5,0.5,0.7c0.1,0.1,0.1,0.3,0.2,0.5c0,0.2,0.1,0.3,0.2,0.4c0.3,0.4,0.6,0.7,0.8,1.1c0,0.1,0,0.2-0.1,0.3
			c0,0-0.1,0-0.1,0c-0.1,0-0.1-0.1-0.2-0.2C73.2,149.6,72.7,149,72,148.4z M74,180.1c-0.1,0-0.2,0-0.2-0.1c0,0,0-0.1,0-0.1
			c0.1-0.1,0.1-0.2,0.3-0.2c0.1,0,0.3,0.1,0.3,0.2C74.4,179.9,74.2,180,74,180.1z M74.5,152.5C74.5,152.5,74.5,152.5,74.5,152.5
			C74.5,152.4,74.5,152.4,74.5,152.5C74.5,152.4,74.5,152.4,74.5,152.5c-0.2,0-0.3-0.1-0.4-0.3c-0.1-0.1,0-0.1,0.1-0.2
			c0,0,0.1,0,0.1,0c0.1,0,0.2,0,0.2,0.1C74.4,152.2,74.5,152.3,74.5,152.5C74.5,152.4,74.5,152.4,74.5,152.5L74.5,152.5
			C74.5,152.4,74.5,152.4,74.5,152.5C74.5,152.4,74.5,152.4,74.5,152.5C74.5,152.5,74.5,152.6,74.5,152.5z M74.9,137.6
			C74.8,137.6,74.8,137.6,74.9,137.6c0-0.2,0.1-0.3,0.1-0.4c0,0,0-0.1,0.1-0.1c0.3-0.2,0.6-0.4,1-0.5c0.1,0,0.2,0,0.3,0.1
			c0,0,0,0,0,0l0-0.1c0,0,0.1,0,0.1,0c0,0,0,0,0,0c0,0,0,0,0,0l0,0c0,0,0,0,0,0c-0.1,0-0.2,0.1-0.2,0.2c-0.1,0.2-0.3,0.4-0.5,0.5
			c-0.2,0.1-0.3,0.2-0.5,0.3C75,137.8,74.9,137.7,74.9,137.6z M76.2,186.5c-0.1,0.2-0.4,0.3-0.5,0.1c-0.1,0-0.1-0.1-0.1-0.2
			c0.1-0.1,0.2-0.2,0.4-0.2C76.1,186.3,76.2,186.4,76.2,186.5z M76.3,177.9C76.3,177.9,76.3,177.9,76.3,177.9
			c-0.1-0.2,0-0.2,0.1-0.2c0,0,0.1,0,0.1,0.1C76.4,177.9,76.4,177.9,76.3,177.9z M76.8,186C76.8,186,76.7,185.9,76.8,186
			c0-0.2,0-0.2,0.1-0.2c0,0,0,0.1,0,0.1C76.9,185.9,76.8,186,76.8,186z M77.5,200.8c-0.1,0.1-0.1,0.1-0.2,0c-0.1-0.1-0.1-0.1,0-0.2
			c0-0.1,0.1-0.2,0.3-0.2c0,0,0.1,0,0.1,0.1C77.7,200.7,77.6,200.8,77.5,200.8z M77.6,202.2L77.6,202.2L77.6,202.2L77.6,202.2z
			 M77.5,132.5c0,0-0.1,0-0.1,0c-0.2,0-0.5-0.1-0.7-0.1c-0.1,0-0.1-0.1-0.1-0.2c0-0.1,0-0.1,0.1-0.2c0.1,0,0.2,0,0.2,0
			c0.2,0,0.5,0.1,0.7,0.1c0.1,0,0.1,0.1,0.1,0.2C77.7,132.5,77.6,132.5,77.5,132.5z M78,164.6c0,0-0.1,0-0.1,0c0,0-0.1,0-0.1-0.1
			c0-0.2,0.1-0.4,0.3-0.5c0.1,0,0.1,0,0.2,0.1C78.2,164.4,78.2,164.5,78,164.6z M79,133.7c0,0-0.1,0-0.1,0c0,0,0-0.1,0-0.1
			c0,0,0.1-0.1,0.1-0.1C79.1,133.6,79.1,133.6,79,133.7z M81.3,95.9L81.3,95.9L81.3,95.9L81.3,95.9z M85,90.3c0-0.2,0.1-0.5,0.4-0.5
			c0,0,0.1,0,0.1,0c0.2,0.1,0.3,0.2,0.3,0.3c0,0.1,0,0.3-0.1,0.3c-0.1,0.1-0.2,0.1-0.3,0.2C85.3,90.7,85,90.5,85,90.3z M85.9,114.7
			c0,0.1,0,0.1-0.1,0.2c0,0-0.1,0-0.1-0.1c0,0,0-0.1,0-0.1C85.7,114.7,85.8,114.7,85.9,114.7C85.8,114.7,85.9,114.7,85.9,114.7z
			 M85.7,144.2c-0.1,0.2-0.1,0.3-0.1,0.5c0,0.1,0,0.2-0.1,0.2c0-0.2,0-0.5,0-0.7c0,0,0-0.1,0.1-0.1
			C85.7,144.1,85.7,144.1,85.7,144.2z M85.8,141.1C85.8,141.1,85.7,141,85.8,141.1c-0.1-0.2-0.1-0.3-0.1-0.4c0,0,0-0.1,0.1-0.1
			c0.1,0,0.1,0.1,0.1,0.2C85.9,140.9,85.9,141.1,85.8,141.1z M87.3,82.6c-0.1,0.1-0.2,0.3-0.3,0.4c0,0-0.1,0-0.1,0
			c0,0-0.1-0.1-0.1-0.1c0-0.2,0.1-0.4,0.3-0.5c0.1,0,0.2,0,0.2,0.1C87.3,82.5,87.3,82.6,87.3,82.6z M89.8,82c-0.1,0.1-0.2,0-0.3-0.1
			c0,0,0-0.1,0-0.1c0,0,0.1,0,0.1-0.1C89.7,81.7,89.8,81.8,89.8,82C89.8,81.9,89.8,81.9,89.8,82z M97.1,160.1
			C97.2,160.1,97.2,160.1,97.1,160.1c0.1,0.1,0.1,0.1,0,0.1l0,0c0,0,0,0,0,0c0,0,0,0,0,0C97.1,160.2,97.1,160.2,97.1,160.1
			c0,0.1,0,0.1,0,0.1C97.1,160.2,97.1,160.2,97.1,160.1C97.1,160.2,97.1,160.1,97.1,160.1z M97,172.1c-0.1,0-0.2,0-0.3-0.1
			c0-0.1,0-0.2,0.1-0.2c0.1-0.1,0.2-0.1,0.3-0.2c0,0,0.1,0,0.1,0c0.1,0,0.1,0.1,0.1,0.2C97.3,171.9,97.1,172,97,172.1z M114.9,216.1
			c0-0.1,0.1-0.1,0.1-0.2c0,0,0.1,0,0.1,0c0,0,0.1,0,0.1,0.1c0,0.3,0.1,0.5,0.3,0.7c0.1,0,0.1,0.1,0.1,0.2c0,0,0,0.1,0,0.1
			c0,0.1-0.1,0.1-0.2,0.1c-0.2-0.1-0.3-0.1-0.5,0c-0.1,0.1-0.3-0.1-0.3-0.3C114.8,216.6,114.8,216.4,114.9,216.1z M114.6,218.2
			c0-0.1,0.1-0.1,0.2-0.1c0.1,0,0.1,0.1,0.1,0.2c0,0,0,0.1,0,0.1c0,0.2-0.1,0.2-0.2,0.2c-0.1,0-0.1-0.1-0.1-0.2
			C114.6,218.3,114.6,218.2,114.6,218.2z M115.6,175.6C115.7,175.6,115.7,175.6,115.6,175.6c0.2,0,0.2,0,0.2,0.1
			c0,0-0.1,0.1-0.1,0.1C115.6,175.8,115.6,175.7,115.6,175.6z M114.5,176.5c0,0,0.1,0,0.1,0c0.1,0.1,0.2,0.2,0.2,0.3
			c0,0.1,0,0.2,0,0.2c0,0.2-0.2,0.4-0.4,0.4c-0.1,0-0.2,0-0.2-0.1c-0.1-0.2-0.1-0.4-0.1-0.6C114.1,176.7,114.3,176.5,114.5,176.5z
			 M112.4,185.4c-0.1,0.2-0.2,0.3-0.2,0.2c0,0-0.1-0.1-0.1-0.1c0-0.1,0-0.2,0.1-0.3c0,0,0.1,0,0.1,0
			C112.4,185.3,112.5,185.4,112.4,185.4z M112.3,212.8c0,0.1-0.1,0.1-0.2,0.1c-0.1-0.1-0.1-0.1,0-0.2c0-0.1,0.1-0.1,0.2-0.1
			C112.4,212.6,112.4,212.7,112.3,212.8z M112.2,196.1C112.2,196.2,112.2,196.2,112.2,196.1c0,0.1,0,0.1,0,0.1
			C112.2,196.3,112.1,196.2,112.2,196.1C112.1,196.2,112.2,196.2,112.2,196.1z M112,215.9C112,215.9,112,215.9,112,215.9
			C112.1,215.9,112.1,215.9,112,215.9C112.1,215.9,112,215.9,112,215.9L112,215.9C112,215.9,112.1,215.9,112,215.9
			C112.1,215.9,112.1,215.9,112,215.9c0.2,0.3,0.5,0.5,0.5,0.8c0,0.1,0,0.2-0.1,0.2c-0.1,0-0.2,0-0.4,0c-0.1,0-0.2-0.1-0.2-0.2
			c0-0.1,0.1-0.2,0.1-0.3C112.1,216.3,112.1,216.1,112,215.9C112.1,216,112.1,215.9,112,215.9C112.1,215.9,112.1,215.9,112,215.9
			C112.1,216,112.1,216,112,215.9z M111.2,214.5c0,0.1,0,0.1,0,0.2c0,0,0,0,0,0l0,0c0.1-0.2,0.3-0.2,0.5-0.2c0.3,0,0.3,0,0.2,0.4
			c-0.1,0.2-0.1,0.4-0.2,0.6c-0.1,0.1-0.2,0.1-0.3,0.1c0,0-0.1,0-0.1-0.1c0-0.1-0.1-0.2-0.1-0.2c0-0.2,0-0.3-0.1-0.5c0,0,0,0,0,0
			c0,0,0-0.1,0-0.1C111.2,214.5,111.2,214.5,111.2,214.5z M111.2,219.6c0.1,0,0.3,0,0.3,0.1c0,0,0,0.1,0,0.1c0,0-0.1,0.1-0.1,0.1
			c-0.1,0.1-0.1,0.1-0.2,0C111.1,219.8,111.1,219.7,111.2,219.6C111.2,219.6,111.2,219.6,111.2,219.6z M110.7,212.6L110.7,212.6
			L110.7,212.6C110.8,212.7,110.7,212.6,110.7,212.6C110.7,212.6,110.7,212.6,110.7,212.6c0,0.1,0.1,0.1,0.1,0.2c0,0,0,0.1,0,0.1
			c-0.1,0.1-0.1,0.1-0.2,0c0,0,0-0.1,0-0.1C110.6,212.8,110.7,212.7,110.7,212.6C110.7,212.6,110.7,212.6,110.7,212.6z M109.6,225.2
			C109.6,225.2,109.7,225.2,109.6,225.2C109.7,225.2,109.7,225.2,109.6,225.2C109.7,225.2,109.7,225.2,109.6,225.2
			C109.7,225.3,109.7,225.3,109.6,225.2L109.6,225.2C109.6,225.4,109.6,225.3,109.6,225.2z M113.3,116.3c0.1,0.1,0.1,0.1,0,0.2
			c-0.1,0.1-0.1,0.1-0.2,0c0,0,0-0.1,0-0.1C113.2,116.3,113.2,116.2,113.3,116.3z M112.4,161.5c0.1-0.1,0.3-0.2,0.4-0.2
			c0,0,0.1,0,0.1,0c0,0,0.1,0,0.1,0c0,0,0,0.1,0,0.1c-0.1,0.2-0.3,0.4-0.6,0.4c0,0-0.1,0-0.1,0C112.4,161.6,112.4,161.5,112.4,161.5
			z M109.8,102.4c0.1-0.1,0.2-0.1,0.3-0.1c0.1,0,0.2,0.1,0.2,0.2c0,0.2-0.2,0.3-0.3,0.3c-0.1,0-0.2-0.1-0.3-0.2
			C109.7,102.5,109.7,102.4,109.8,102.4z M109.7,112.9L109.7,112.9L109.7,112.9L109.7,112.9z M109.6,163.7c0,0.1-0.1,0.3-0.2,0.2
			c-0.2,0-0.3-0.1-0.5-0.1c0,0,0-0.1,0-0.1c0.1-0.2,0.2-0.2,0.4-0.2C109.4,163.5,109.5,163.6,109.6,163.7z M109.3,130.7
			c0,0.2-0.1,0.4-0.3,0.5c-0.1,0-0.2,0-0.2-0.1c-0.1-0.2,0-0.5,0.3-0.5C109.2,130.5,109.3,130.6,109.3,130.7z M108.1,113.7
			c0.3-0.2,0.6-0.3,0.9-0.3c0,0,0.1,0,0.1,0.1c0,0,0,0.1,0,0.1c0,0,0,0.1,0,0.1c-0.2,0.2-0.3,0.4-0.5,0.6c-0.1,0.1-0.3,0.1-0.4,0
			c-0.1-0.1-0.1-0.2-0.2-0.3C108,113.8,108,113.7,108.1,113.7z M108.2,139.3C108.1,139.3,108.1,139.3,108.2,139.3
			C108.2,139.3,108.2,139.3,108.2,139.3C108.2,139.3,108.2,139.3,108.2,139.3C108.2,139.3,108.2,139.3,108.2,139.3L108.2,139.3
			C108.2,139.3,108.2,139.3,108.2,139.3C108.2,139.3,108.2,139.3,108.2,139.3C108.2,139.3,108.2,139.3,108.2,139.3
			c0,0.1,0,0.2,0,0.3c0,0.1-0.1,0.2-0.2,0.3c-0.1,0-0.2,0-0.2,0c0,0-0.1,0-0.1-0.1c-0.1-0.1-0.1-0.2,0-0.3
			C107.9,139.4,108,139.3,108.2,139.3C108.2,139.3,108.2,139.3,108.2,139.3C108.2,139.3,108.2,139.3,108.2,139.3z M107.7,149
			c0.1-0.1,0.3-0.2,0.4-0.3c0.1-0.1,0.2-0.1,0.2,0c0.1,0.1,0.1,0.1,0,0.2c-0.1,0.2-0.2,0.3-0.5,0.4c-0.1,0-0.2,0-0.2-0.1
			C107.6,149.1,107.7,149,107.7,149z M108.2,119.8C108.3,119.8,108.3,119.7,108.2,119.8c0.1-0.2,0.2-0.2,0.2-0.1
			c0.1,0.1,0.1,0.1,0.1,0.2c0,0,0,0.1-0.1,0.1C108.4,120,108.3,119.9,108.2,119.8z M107.4,118.7c0-0.1,0.1-0.1,0.1-0.1
			c0,0,0.1,0,0.1,0.1c0.1,0.2,0.2,0.4,0.2,0.7c0,0.1-0.1,0.1-0.1,0.2c0,0-0.1,0-0.1-0.1c-0.1-0.1-0.2-0.2-0.2-0.4
			C107.4,118.9,107.4,118.8,107.4,118.7z M107.5,120.4c0.1,0,0.2,0.2,0.2,0.3c-0.1,0.1-0.1,0.2-0.3,0.3c-0.1,0.1-0.3,0-0.3-0.1
			C107.1,120.6,107.3,120.4,107.5,120.4z M106.5,110.6c0-0.1,0.1-0.1,0.2-0.1c0.1,0,0.2,0.1,0.3,0.2c0,0,0,0.1,0,0.1
			c0,0-0.1,0.1-0.1,0.1c-0.2,0-0.3,0-0.4-0.2C106.5,110.7,106.5,110.7,106.5,110.6z M106.8,121.1c0,0.1,0,0.2-0.1,0.2
			c-0.1,0-0.1-0.1-0.1-0.2c0-0.1,0.1-0.2,0.1-0.2C106.8,120.9,106.8,121,106.8,121.1z M106.2,119.8c0-0.1,0.1-0.1,0.2-0.1
			c0,0,0.1,0.1,0.1,0.1c0,0.1,0,0.2,0,0.2c0,0.1-0.1,0.1-0.2,0.1c-0.1,0-0.1-0.1-0.1-0.2C106.2,120,106.2,119.9,106.2,119.8z
			 M106,118.6C106,118.7,106.1,118.7,106,118.6c0.1,0.1,0,0.2,0,0.2c-0.1,0-0.2,0-0.2-0.1C105.8,118.6,105.9,118.6,106,118.6z
			 M105.7,116.7L105.7,116.7L105.7,116.7L105.7,116.7z M105.5,121.8c0.1-0.1,0.1-0.1,0.2,0c0.1,0.1,0.3,0.2,0.4,0.3
			c0.1,0.1,0.2,0.3,0.1,0.4c-0.1,0.2-0.2,0.3-0.4,0.3c-0.2,0-0.4-0.1-0.5-0.2c-0.1-0.1-0.1-0.1-0.1-0.2
			C105.3,122.1,105.4,121.9,105.5,121.8z M104.8,121.6c0-0.1,0.1-0.1,0.1-0.2c0,0,0.1,0,0.1,0c0.1,0.1,0.1,0.2,0,0.3
			c0,0-0.1,0-0.1,0c0,0-0.1,0-0.1-0.1C104.8,121.7,104.8,121.6,104.8,121.6z M104.4,120.4C104.4,120.4,104.4,120.3,104.4,120.4
			c0.2,0,0.2,0,0.2,0.1c0,0.1-0.1,0.1-0.1,0.1C104.4,120.5,104.3,120.5,104.4,120.4z M103.7,152.5c0.3-0.2,0.5-0.5,0.8-0.7
			c0.3-0.2,0.6-0.5,0.8-0.7c0.3-0.3,0.6-0.4,0.9-0.6c0,0,0.1,0,0.1,0c0,0,0,0,0,0c0,0,0,0,0,0c0-0.1,0-0.1,0.1-0.1
			c0,0,0.1,0,0.1,0.1c0,0.1-0.1,0.1-0.1,0.1c0,0,0,0,0,0c0,0,0,0,0,0c0,0.1,0,0.2,0,0.2c-0.1,0.2-0.3,0.4-0.5,0.6
			c-0.2,0.1-0.4,0.3-0.6,0.4c-0.2,0.1-0.3,0.3-0.4,0.4c-0.3,0.2-0.4,0.4-0.5,0.7c0,0.1-0.1,0.1-0.2,0.2c-0.3,0.1-0.6,0.3-0.9,0.4
			c0,0-0.1-0.1-0.1-0.1C103.3,153,103.4,152.7,103.7,152.5z M105.5,190.1C105.5,190.1,105.4,190.2,105.5,190.1c-0.1,0-0.1,0-0.2-0.1
			c0-0.1,0-0.2,0.1-0.2c0,0,0.1,0,0.1,0C105.6,190,105.6,190.1,105.5,190.1z M103.9,160.4C103.9,160.4,103.9,160.4,103.9,160.4
			C103.9,160.4,103.9,160.4,103.9,160.4C103.8,160.4,103.9,160.4,103.9,160.4c-0.1,0-0.1-0.1-0.1-0.1c0,0,0,0,0,0c0,0,0,0,0,0l0.1,0
			C103.9,160.3,103.9,160.3,103.9,160.4c0-0.1,0-0.1-0.1-0.1c0,0,0,0,0,0C103.8,160.4,103.8,160.4,103.9,160.4
			C103.9,160.4,103.9,160.4,103.9,160.4C103.9,160.4,103.9,160.4,103.9,160.4c0.2,0.2,0.5,0.3,0.8,0.4c0,0,0.1,0,0.1,0
			c0.2,0,0.2,0,0.2,0.1c0,0.2-0.1,0.3-0.3,0.3c0,0-0.1,0-0.1,0c-0.1-0.1-0.3-0.2-0.4-0.2c-0.2-0.1-0.4-0.3-0.3-0.6
			C103.9,160.5,103.9,160.5,103.9,160.4z M102.2,160.6c0.1-0.1,0.3-0.2,0.4-0.1c0.1,0,0.1,0.1,0.1,0.2c-0.1,0.2-0.3,0.3-0.5,0.3
			c-0.1,0-0.1-0.1-0.1-0.2C102.1,160.8,102.1,160.7,102.2,160.6z M99.3,157.3c-0.1,0.1-0.1,0.1-0.2,0.1c-0.1,0-0.1-0.1,0-0.3
			c0-0.1,0.1-0.1,0.2-0.1c0,0,0,0.1,0.1,0.1C99.3,157.2,99.3,157.3,99.3,157.3z M99.7,156.7C99.7,156.7,99.7,156.6,99.7,156.7
			c0-0.1,0-0.2,0-0.2C99.8,156.5,99.8,156.5,99.7,156.7C99.8,156.7,99.7,156.7,99.7,156.7z M100.4,155.7
			C100.4,155.7,100.4,155.7,100.4,155.7C100.4,155.7,100.4,155.7,100.4,155.7c0,0.1-0.1,0.2-0.1,0.1c0,0,0-0.1,0-0.1
			C100.3,155.7,100.3,155.7,100.4,155.7C100.3,155.7,100.4,155.7,100.4,155.7C100.4,155.7,100.4,155.7,100.4,155.7
			c0-0.1,0-0.1,0.1-0.2c0,0,0.1,0,0.1,0.1C100.5,155.6,100.5,155.7,100.4,155.7z M100.9,85.1c0,0-0.1,0-0.1,0c0,0,0-0.1,0-0.1
			c0,0,0.1,0,0.1,0C101,85,101,85.1,100.9,85.1z M101,117.5C101,117.5,101,117.5,101,117.5c0.1,0,0.1,0.1,0.1,0.1
			C101,117.7,101,117.6,101,117.5z M102.3,201.9C102.3,201.9,102.2,201.9,102.3,201.9c-0.1,0.1-0.2,0.1-0.2,0.1
			c-0.1-0.1,0-0.1,0-0.2c0.1-0.1,0.1-0.1,0.2,0C102.3,201.8,102.3,201.8,102.3,201.9z M102.4,188.2c-0.1,0.1-0.2,0-0.3-0.1
			c0,0,0-0.1,0-0.1c0,0,0.1-0.1,0.1-0.1C102.3,187.9,102.4,188,102.4,188.2C102.4,188.2,102.4,188.2,102.4,188.2z M102.8,200.8
			c0,0.1-0.1,0.2-0.3,0.2c0,0-0.1,0-0.1-0.1c0-0.1,0.1-0.2,0.2-0.3c0,0,0.1-0.1,0.1,0C102.8,200.7,102.8,200.7,102.8,200.8z
			 M103.4,220.1c0,0.1-0.1,0.1-0.1,0.2c0,0,0,0,0,0.1c0,0,0,0,0,0c0,0,0,0,0,0c0,0,0,0,0,0l0,0l0-0.1c0,0,0,0,0,0
			c-0.1-0.1-0.1-0.2-0.1-0.3c0-0.1,0.1-0.1,0.1-0.2C103.4,219.9,103.4,220,103.4,220.1z M104.6,196.5c-0.1,0.2-0.1,0.4-0.2,0.6
			c-0.1,0.4-0.2,0.9-0.5,1.2c0,0-0.1,0-0.1,0.1c0,0-0.1-0.1-0.1-0.1c0-0.1,0-0.2,0-0.4c0.1-0.6,0.4-1.1,0.7-1.6
			c0-0.1,0.1-0.1,0.2-0.1C104.6,196.3,104.6,196.4,104.6,196.5z M105.1,216.8c0,0.1-0.1,0.1-0.2,0.2c0-0.1-0.1-0.1-0.1-0.2
			c0-0.1,0-0.2,0-0.2c0-0.2,0-0.5,0.1-0.7c0.1-0.2,0.2-0.5,0.3-0.7c0,0,0.1,0,0.1,0c0,0,0.1,0,0.1,0c0,0,0,0.1,0,0.1
			C105.4,215.8,105.2,216.3,105.1,216.8z M106.2,212.4c0,0.3-0.1,0.7-0.3,1c-0.1,0.2-0.2,0.4-0.2,0.6c0,0.1-0.1,0.1-0.2,0.1
			c-0.1,0-0.1,0-0.2-0.1c-0.1-0.2-0.1-0.5,0-0.7c0.1-0.3,0.2-0.5,0.2-0.8c0-0.1,0.1-0.1,0.1-0.2c0.1-0.1,0.1-0.2,0.2-0.3
			c0.1,0,0.2-0.1,0.2-0.1c0.1,0,0.1,0.1,0.1,0.2C106.2,212.2,106.2,212.3,106.2,212.4z M106.4,191.9c-0.1,0.1-0.1,0.2-0.2,0.3
			c-0.1,0.2-0.1,0.5-0.1,0.7c0,0.1,0.1,0.2,0.1,0.4c0,0.1,0,0.2,0,0.2c-0.1,0.1-0.1,0.1-0.2,0c0,0-0.1,0-0.1-0.1c0,0-0.1,0-0.1,0
			c-0.2-0.1-0.2-0.1-0.2-0.2c0.1-0.4-0.1-0.8-0.3-1.2c-0.2-0.3-0.5-0.7-0.7-1c0,0,0-0.1,0-0.1c0,0,0.1,0,0.1,0
			c0.1,0,0.1,0.1,0.2,0.1c0.1,0.1,0.2,0.3,0.3,0.4c0.1,0,0.2,0.1,0.2,0.1c0.2-0.1,0.3-0.1,0.4,0.1c0,0.1,0.1,0.1,0.2,0.1
			c0.1-0.1,0.2-0.2,0.3-0.3c0,0,0.1,0,0.1,0c0,0,0.1,0,0.1,0.1C106.5,191.6,106.5,191.8,106.4,191.9z M106.7,175.6
			C106.7,175.6,106.6,175.6,106.7,175.6C106.6,175.6,106.6,175.6,106.7,175.6c-0.1,0-0.1,0-0.1,0c0,0.1,0,0.1,0,0.2
			c-0.1,0-0.1,0-0.1-0.1c0-0.1,0.1-0.1,0.1-0.1c0,0,0,0,0,0C106.6,175.6,106.6,175.6,106.7,175.6c-0.1-0.1-0.1-0.2,0-0.2
			C106.7,175.4,106.8,175.5,106.7,175.6C106.8,175.6,106.7,175.6,106.7,175.6z M107.1,195.5c-0.1,0-0.3-0.2-0.3-0.3
			c0-0.1,0.1-0.1,0.2-0.1c0.2,0,0.2,0.2,0.3,0.3C107.2,195.5,107.2,195.5,107.1,195.5z M107.1,149.9c0,0-0.1,0-0.1,0
			c0-0.1,0-0.1,0.1-0.2c0,0,0.1,0,0.1,0c0,0,0.1,0.1,0.1,0.1C107.2,149.8,107.2,149.9,107.1,149.9z M107.2,174.7L107.2,174.7
			L107.2,174.7L107.2,174.7z M107.1,139.2c-0.1,0.1-0.2,0.1-0.3,0c-0.1-0.2-0.1-0.3,0-0.4c0.1-0.1,0.2-0.1,0.3-0.2
			c0.1,0,0.2,0,0.2,0c0.2,0,0.3,0.2,0.3,0.3c0,0.1-0.1,0.2-0.1,0.2C107.3,139.1,107.1,139,107.1,139.2z M107.6,165
			c-0.1,0-0.3-0.2-0.3-0.2c0-0.1,0.1-0.1,0.1-0.2c0-0.1,0.1-0.1,0.2-0.2c0,0,0.1-0.1,0.1-0.1c0.1,0,0.2-0.1,0.2-0.1
			c0.5,0.1,1,0.1,1.4,0.2c0.1,0,0.1,0.1,0.1,0.2c0,0.1,0,0.2-0.1,0.2c-0.2,0.1-0.4,0.2-0.7,0.3c-0.1,0-0.1,0-0.2-0.1
			c-0.2-0.1-0.4-0.2-0.6-0.1c0,0,0,0,0,0c0,0,0,0.1,0,0.1c0,0,0,0.1-0.1,0.1c0,0,0,0.1,0,0.1c-0.1,0-0.1,0,0-0.1c0,0,0,0,0,0
			c0-0.1,0-0.1,0-0.2c0,0,0,0,0,0c0,0,0,0,0,0l0,0C107.8,165,107.7,165,107.6,165z M109,165.6L109,165.6L109,165.6L109,165.6z
			 M108.8,188.1c0,0,0,0.1-0.1,0.1c-0.1,0-0.2,0-0.2-0.1c0,0,0-0.1,0-0.1c0,0,0.1-0.1,0.1-0.1c0,0,0.1,0,0.1,0
			C108.8,188,108.8,188,108.8,188.1z M109.1,184.1c-0.1,0-0.1-0.1-0.2-0.1c0,0,0,0,0,0c0,0,0,0,0,0c0,0.1,0,0.2,0.1,0.3
			c0.1,0.2,0,0.5,0,0.7c-0.1,0.2-0.2,0.5-0.3,0.7c0,0.1-0.1,0.2-0.1,0.4c0,0.2,0,0.4-0.2,0.6c-0.2,0.2-0.2,0.5-0.4,0.8
			c-0.1,0.1-0.1,0.1-0.2,0.1c-0.1,0-0.1-0.1-0.1-0.2c0,0,0-0.1,0-0.1c0.3-0.6,0.5-1.3,0.9-1.9c0.2-0.4,0.3-0.8,0.4-1.2
			c0,0,0-0.1,0-0.1c0,0,0,0,0,0l0,0c0,0,0,0,0,0c0,0,0,0,0,0C109.1,184,109.2,184,109.1,184.1C109.2,184,109.1,184.1,109.1,184.1z
			 M109.8,183.7C109.8,183.7,109.8,183.7,109.8,183.7c-0.1,0.1-0.2,0.1-0.2,0.1c-0.1,0-0.1-0.1-0.2-0.2c-0.1-0.2-0.2-0.4-0.1-0.6
			c0.1-0.2,0.2-0.4,0.3-0.5c0,0,0.1,0,0.1,0c0,0,0.1,0.1,0.1,0.1c0,0.2,0,0.4,0,0.6C109.8,183.4,109.8,183.5,109.8,183.7z
			 M110.4,171.1c-0.1,0-0.2,0-0.3,0c-0.1,0-0.2,0-0.3,0c-0.1,0-0.1-0.1-0.1-0.2c0,0,0.1-0.1,0.1-0.1c0.2,0,0.4,0,0.6,0.1
			C110.5,171,110.5,171,110.4,171.1C110.5,171.1,110.4,171.1,110.4,171.1z M110.6,128.2c0.1-0.1,0.2-0.1,0.3-0.1
			c0.1,0,0.2,0.1,0.3,0.1c0-0.2-0.2-0.5-0.1-0.7c0-0.1,0.1-0.1,0.2-0.1c0,0,0.1,0.1,0.1,0.1c0,0.1,0,0.2-0.1,0.4
			c-0.1,0.1-0.1,0.2-0.1,0.3c0,0,0,0,0,0l0,0c0,0.1,0.1,0.2,0.1,0.3c0,0.2,0,0.4-0.2,0.5c-0.1,0.1-0.2,0-0.2,0
			c-0.1-0.2-0.1-0.5-0.3-0.6C110.5,128.3,110.5,128.2,110.6,128.2z M111.1,176.4L111.1,176.4L111.1,176.4L111.1,176.4
			C111.1,176.4,111.1,176.4,111.1,176.4C111.1,176.4,111.1,176.4,111.1,176.4c0-0.1-0.1-0.2,0-0.2c0,0,0.1,0,0.1,0
			C111.3,176.3,111.2,176.4,111.1,176.4C111.1,176.4,111.1,176.4,111.1,176.4z M111,167.8c0,0.1,0,0.1-0.1,0.1c-0.1,0-0.2,0-0.2-0.1
			c0-0.1,0-0.1,0.1-0.1C110.9,167.6,111,167.7,111,167.8z M111.9,179.8c-0.1,0-0.2-0.1-0.4,0c-0.2,0.1-0.3,0.1-0.5,0.1
			c-0.1,0-0.4-0.1-0.4-0.2c-0.1-0.2-0.1-0.3-0.1-0.5c0.2-0.6,0.3-1.3,0.6-1.9c0-0.1,0.2-0.2,0.2-0.3c0,0,0.1,0,0.1,0.1
			c0.1,0.3-0.1,0.5-0.1,0.7c0,0.2,0,0.5-0.1,0.7c0,0.1-0.1,0.1-0.2,0.1c0,0,0,0,0,0c0.2,0.1,0.3,0.3,0.4,0.4
			c0.1,0.1,0.1,0.1,0.2,0.1c0.1,0,0.2,0,0.2,0.1c0.1,0.1,0.1,0.2,0.1,0.3C112.1,179.8,112,179.9,111.9,179.8z M111.9,174.7
			L111.9,174.7L111.9,174.7L111.9,174.7z M113,171.2c-0.2,0-0.4,0-0.5,0c-0.2,0-0.3,0-0.3,0c-0.2,0-0.3,0.1-0.4,0.2
			c-0.2,0.1-0.4,0.1-0.5-0.1c-0.1-0.1-0.1-0.2,0-0.2c0.2-0.1,0.5-0.1,0.7-0.3c0.1-0.1,0.2,0,0.4,0c0.3,0,0.6,0.1,0.8,0.2
			c0,0,0,0.1,0.1,0.1C113.2,171.1,113.1,171.1,113,171.2z M113.3,141.9c-0.1,0-0.2-0.1-0.1-0.2c0-0.1,0.1-0.1,0.2-0.1
			c0.1,0,0.1,0.1,0.1,0.2C113.5,141.8,113.4,141.9,113.3,141.9z M113.4,122.3C113.4,122.3,113.4,122.3,113.4,122.3
			c-0.2,0.2-0.3,0.2-0.4,0.2c0-0.1-0.1-0.1-0.1-0.2c0,0,0-0.1,0-0.1c0-0.2,0.1-0.3,0.3-0.3c0.1,0,0.2,0,0.2,0.1
			C113.5,122,113.5,122.1,113.4,122.3z M114.2,170.8L114.2,170.8L114.2,170.8L114.2,170.8z M114.7,123.4
			C114.7,123.4,114.8,123.4,114.7,123.4c0.1,0.1,0,0.1,0,0.1C114.7,123.5,114.6,123.4,114.7,123.4
			C114.6,123.4,114.7,123.4,114.7,123.4z M114.9,143.1c-0.1,0-0.1,0.1-0.2,0.1c0,0-0.1,0-0.1,0c0-0.1,0-0.1,0.1-0.1
			C114.7,143.1,114.8,143.1,114.9,143.1z M126.2,164.1C126.1,164.1,126.1,164.1,126.2,164.1c-0.1,0-0.1-0.1-0.1-0.1
			C126.1,163.9,126.2,163.9,126.2,164.1C126.2,164,126.2,164.1,126.2,164.1z M126.6,165.5L126.6,165.5L126.6,165.5L126.6,165.5z
			 M126.3,221.5c-0.1,0-0.2,0-0.2-0.1c0-0.1,0-0.1,0.1-0.1c0.1,0,0.2,0,0.2,0.1C126.4,221.4,126.3,221.5,126.3,221.5z M129.7,150.5
			c0.1,0,0.2,0,0.2,0.1c0,0.1,0,0.1,0,0.2c-0.1,0.1-0.3,0.2-0.4,0.2c0,0-0.1,0-0.1-0.1c0,0,0-0.1,0-0.1
			C129.5,150.6,129.6,150.5,129.7,150.5z M129.8,172.6c0.1-0.1,0.2,0,0.2,0.1c0,0.1,0,0.2-0.1,0.2c-0.1,0-0.2,0-0.2,0
			c0,0-0.1-0.1-0.1-0.1C129.6,172.7,129.7,172.6,129.8,172.6z M128.4,148.5c0.1,0,0.1,0.1,0,0.2c0,0.1-0.1,0-0.2,0
			c0,0-0.1-0.1,0-0.1C128.2,148.5,128.3,148.5,128.4,148.5z M128.2,172.6c0.1-0.1,0.2-0.1,0.3-0.2c0.1,0,0.2,0,0.2,0.1
			c0,0.1,0,0.2-0.1,0.2c-0.1,0-0.1,0.1-0.2,0.1c-0.1,0-0.2,0-0.2-0.1C128.2,172.6,128.2,172.6,128.2,172.6z M128.7,180.2
			L128.7,180.2L128.7,180.2L128.7,180.2z M127.7,176.8C127.7,176.8,127.7,176.9,127.7,176.8c0,0.1,0,0.1,0,0.1
			C127.6,176.9,127.6,176.9,127.7,176.8C127.6,176.8,127.6,176.8,127.7,176.8z M126.2,215.6C126.2,215.7,126.2,215.7,126.2,215.6
			c-0.1,0-0.2,0-0.2,0c0-0.1,0-0.1,0-0.2c0.1-0.1,0.1-0.1,0.2,0C126.3,215.5,126.3,215.6,126.2,215.6z M128.7,209.7
			c-0.1,0.1-0.2,0.3-0.3,0.4c-0.1,0.1-0.3,0.2-0.4,0.3c-0.1,0-0.2,0.1-0.3,0.2c-0.1,0.2-0.3,0.4-0.5,0.5c-0.2,0.2-0.4,0.3-0.7,0.3
			c-0.1,0-0.2,0-0.2-0.1c0-0.1,0-0.2,0-0.2c0.1-0.1,0.2-0.2,0.2-0.3c0.1-0.1,0.1-0.1,0-0.2c-0.1-0.2-0.1-0.3-0.3-0.4
			c-0.1-0.1-0.2-0.2-0.3-0.4c-0.1-0.1-0.1-0.3,0-0.4c0.1-0.1,0.2-0.2,0.2-0.3c0.1-0.1,0.3,0,0.3,0.1c0.1,0.2,0.1,0.4,0.3,0.5
			c0.1,0.1,0.2,0.2,0.4,0.3c0,0,0.1,0,0.1,0.1c0,0,0.1,0,0.1,0c0.3-0.2,0.7-0.3,1-0.5c0.1,0,0.1,0,0.2,0.1
			C128.7,209.6,128.7,209.6,128.7,209.7z M128.6,198.2c0,0,0-0.1,0-0.1c0-0.1,0.1-0.2,0.3-0.2c0.1,0,0.1,0.1,0.1,0.1
			c0,0.1-0.1,0.2-0.2,0.3C128.7,198.3,128.6,198.3,128.6,198.2z M129.1,214c0,0-0.1,0-0.1,0c-0.1,0-0.1-0.1-0.1-0.2
			c0-0.1,0.1-0.1,0.2-0.1c0,0,0.1,0,0.1,0c0.1,0,0.2,0,0.2,0.1C129.3,213.9,129.2,214,129.1,214z M129.8,196.5
			c-0.2,0.2-0.4,0.4-0.5,0.6c0,0.1-0.2,0.1-0.3,0.1c-0.1,0-0.2-0.1-0.3-0.2c-0.1,0-0.1-0.1-0.1-0.2c0.1-0.4,0.3-0.6,0.7-0.7
			c0.2,0,0.3,0,0.5,0C129.8,196.2,129.9,196.4,129.8,196.5z M129.7,186.8c-0.1,0-0.2,0.1-0.2,0.1c-0.2,0.1-0.4,0.1-0.5,0.1
			c-0.1,0-0.2,0-0.3,0c-0.1,0-0.2,0-0.2-0.1c0-0.1,0-0.3,0.1-0.3c0.1-0.1,0.2,0,0.4,0c0.1,0,0.3-0.1,0.3-0.2c0-0.1,0-0.2,0-0.2
			c0-0.1,0-0.2,0-0.2c0-0.2,0.2-0.3,0.4-0.2c0,0,0.1,0,0.1,0.1c0,0.2,0.1,0.5,0.1,0.7C129.9,186.6,129.8,186.7,129.7,186.8z
			 M129.9,174.9C129.8,174.9,129.8,174.9,129.9,174.9c-0.2-0.1-0.2-0.2-0.1-0.3c0,0,0.1-0.1,0.1-0.1c0.1,0,0.1,0.1,0.1,0.2
			C130,174.8,130,174.9,129.9,174.9z M130.1,166.1C130.1,166.1,130.1,166.1,130.1,166.1c0,0.1-0.1,0.1-0.1,0.1c0,0,0,0,0,0
			c0,0.1,0,0.2-0.1,0.3c0,0-0.1,0.1-0.1,0c-0.1,0-0.1-0.1-0.1-0.2c0-0.1,0.1-0.1,0.2-0.1C130,166.2,130,166.2,130.1,166.1
			C130,166.1,130,166.1,130.1,166.1C130.1,166.1,130.1,166.1,130.1,166.1C130.1,166,130.2,166,130.1,166.1z M130.2,151.5
			C130.2,151.5,130.2,151.5,130.2,151.5c-0.1,0-0.2,0-0.2-0.1c0,0,0.1-0.1,0.1-0.1C130.2,151.3,130.3,151.4,130.2,151.5z
			 M130.5,162.6C130.4,162.6,130.4,162.6,130.5,162.6c-0.1-0.1-0.1-0.1-0.1-0.1c0,0,0.1,0,0.1,0
			C130.6,162.5,130.6,162.6,130.5,162.6z M130.5,150.4c-0.1,0-0.1-0.1-0.1-0.2c0.1-0.1,0.2-0.1,0.3-0.2c0,0,0,0,0,0
			c0-0.1,0-0.1,0.1-0.2l0,0c0,0,0,0,0,0c0,0,0,0,0,0c0,0,0,0,0,0c0.1,0,0.1,0,0.1,0c0,0,0,0-0.1,0c0,0,0,0,0,0c0,0,0,0.1,0,0.1
			c0,0-0.1,0-0.1,0.1c0,0.1,0,0.2-0.1,0.3C130.6,150.4,130.6,150.4,130.5,150.4z M131,167.4C131,167.4,130.9,167.4,131,167.4
			c-0.2,0.1-0.2,0-0.3-0.1c0,0,0-0.1,0.1-0.1c0,0,0.1,0,0.1,0C131,167.2,131,167.3,131,167.4z M131.5,175.7c0,0.1-0.1,0.1-0.2,0.1
			c-0.2-0.1-0.3-0.3-0.2-0.5c0-0.1,0.1-0.1,0.2-0.1c0.1,0,0.1,0,0.2,0.1C131.5,175.5,131.5,175.6,131.5,175.7z M135.4,139.1
			C135.4,139.1,135.4,139.1,135.4,139.1c0.1,0.1,0,0.1,0,0.1C135.4,139.2,135.3,139.1,135.4,139.1
			C135.3,139.1,135.4,139.1,135.4,139.1z M135.1,156c0.1,0,0.2,0,0.2,0c0.1,0,0.2,0,0.2,0.1c0,0.1,0.1,0.1,0,0.2
			c-0.1,0.1-0.2,0.3-0.3,0.4c0,0.1-0.1,0.1-0.2,0.1c-0.1,0-0.1-0.1-0.2-0.2c0-0.1-0.1-0.2-0.1-0.4C134.8,156.1,134.9,156,135.1,156z
			 M134.8,185.2C134.7,185.3,134.7,185.3,134.8,185.2c-0.2,0-0.2,0-0.2-0.1c0,0,0.1-0.1,0.1-0.1
			C134.7,185.1,134.8,185.2,134.8,185.2z M134.5,134.2c0.1-0.1,0.1-0.1,0.2,0c0,0.1,0,0.2,0,0.2c0,0-0.1,0-0.1,0
			C134.5,134.3,134.5,134.3,134.5,134.2z M133.4,137.7c0,0,0-0.1,0-0.1c0,0,0-0.1,0-0.1c0-0.1,0.1-0.1,0.2-0.1
			c0.1,0,0.1,0.1,0.1,0.2c0,0.1-0.1,0.2-0.2,0.3c-0.1,0.1-0.1,0.1-0.2,0C133.4,137.9,133.4,137.8,133.4,137.7z M133.8,139.6
			L133.8,139.6C133.8,139.6,133.8,139.6,133.8,139.6C133.8,139.6,133.8,139.6,133.8,139.6C133.8,139.6,133.8,139.5,133.8,139.6
			C133.8,139.5,133.8,139.5,133.8,139.6C133.8,139.5,133.7,139.5,133.8,139.6C133.8,139.6,133.8,139.6,133.8,139.6
			C133.8,139.6,133.8,139.6,133.8,139.6C133.8,139.6,133.8,139.6,133.8,139.6z M133.1,178.6C133.2,178.6,133.2,178.6,133.1,178.6
			c0.1,0.2,0.1,0.2,0,0.2c0,0-0.1,0-0.1-0.1C133,178.7,133.1,178.6,133.1,178.6z M132.9,139.3L132.9,139.3L132.9,139.3L132.9,139.3z
			 M132,139.6c0.1,0,0.1,0,0.2,0.1c0,0,0,0.1-0.1,0.1C132,139.8,132,139.8,132,139.6C131.9,139.7,132,139.6,132,139.6z M131.8,144
			c0,0,0-0.1,0-0.1c0-0.1,0.1-0.3,0.1-0.2c0.1,0,0.1,0.2,0.1,0.3c0,0,0,0.1-0.1,0.1C131.9,144.1,131.9,144.1,131.8,144
			C131.8,144.1,131.8,144,131.8,144z M133.1,222c-0.1,0-0.2,0.1-0.2,0.1c-0.1,0-0.8-0.2-0.9-0.2c0,0,0-0.1,0-0.1
			c0.4-0.3,0.5-0.3,0.8-0.2c0.2,0,0.3,0.1,0.5,0.2c0,0,0.1,0.1,0.1,0.1C133.3,221.9,133.2,222,133.1,222z M133.2,186.1
			c0,0-0.1,0-0.1,0c0,0,0-0.1,0-0.1c0-0.1,0-0.2,0-0.4c0-0.1,0-0.2,0-0.2c0-0.1-0.1-0.2-0.2-0.3c-0.1,0-0.1-0.1-0.1-0.2
			c0,0,0.1-0.1,0.1-0.1c0.3-0.1,0.5,0,0.7,0.1c0.2,0.1,0.3,0.3,0.2,0.5C133.6,185.8,133.5,185.9,133.2,186.1z M134,203.9
			c0,0.1-0.1,0.1-0.2,0.1c-0.1,0-0.2,0-0.2-0.1c0,0,0-0.1,0-0.1c0-0.2,0-0.3,0-0.5c0,0,0,0,0,0c0-0.2,0-0.3,0-0.5
			c0-0.1,0.1-0.2,0.1-0.3c0-0.1,0.1-0.1,0.2-0.1c0.1,0,0.2,0.1,0.2,0.2c0,0.1,0,0.2,0,0.2C134.2,203.1,134.1,203.5,134,203.9z
			 M134.4,212.6c-0.1,0-0.1-0.1-0.1-0.2c0-0.2,0.1-0.3,0.2-0.4c0,0,0.1,0,0.1,0c0,0,0.1,0.1,0.1,0.1c0,0.2-0.1,0.3-0.2,0.4
			C134.5,212.6,134.5,212.7,134.4,212.6z M136.7,221.9c-0.3,0.1-0.6,0-0.8,0.2c-0.1,0-0.2,0-0.2,0c0,0-0.1,0-0.1,0
			c-0.3-0.1-0.6-0.1-0.8-0.1c0,0-0.1-0.1-0.1-0.1c0,0,0-0.1,0.1-0.1c0.2,0,0.4-0.1,0.6-0.1c0.3,0,0.6-0.1,0.8-0.3
			c0.1-0.1,0.2,0,0.4,0c0.2,0.1,0.3,0.2,0.4,0.3C136.8,221.8,136.8,221.8,136.7,221.9C136.8,221.9,136.7,221.9,136.7,221.9z
			 M136.1,149.7C136.1,149.7,136.1,149.6,136.1,149.7c0.1,0,0.1,0,0.1,0c0,0,0,0.1,0,0.1C136.1,149.8,136.1,149.8,136.1,149.7
			C136.1,149.8,136.1,149.7,136.1,149.7z M141.7,230.4c0,0.1-0.1,0.2-0.3,0.1c-0.1-0.1-0.2-0.1-0.3-0.2c-0.1-0.1-0.1-0.2-0.1-0.3
			c0-0.2,0.1-0.4,0.2-0.6c0.1-0.2,0.4-0.3,0.6,0c0,0.1,0.1,0.2,0.1,0.2C141.8,229.9,141.7,230.2,141.7,230.4z M141.8,139.9
			L141.8,139.9L141.8,139.9L141.8,139.9z M142.4,218c-0.1,0-0.1,0-0.2,0c0,0,0-0.1,0-0.1c0-0.1,0.1-0.1,0.2,0
			C142.5,217.8,142.5,217.9,142.4,218z M142.5,183C142.5,183,142.6,182.9,142.5,183c0.2-0.1,0.2-0.1,0.3,0
			C142.8,183.1,142.7,183.1,142.5,183C142.6,183.1,142.5,183,142.5,183z M142.8,214.7C142.8,214.6,142.8,214.6,142.8,214.7
			c0.1,0,0.1,0,0.1,0C142.8,214.8,142.8,214.8,142.8,214.7z M144.9,100c0.1,0,0.1,0.1,0,0.1c0,0,0,0,0,0l0,0l0,0c0,0,0,0,0,0
			c0.1,0,0.1,0,0.2,0.1c0,0,0,0.1-0.1,0.1c-0.1,0-0.1-0.1-0.1-0.2c0,0,0,0,0,0c0,0,0,0,0,0C144.9,100.1,144.8,100.1,144.9,100
			C144.8,100,144.9,100,144.9,100z M144.1,136.8c0.1,0,0.2,0,0.2,0.1c0.1,0,0.1,0.1,0.1,0.2c0,0.3-0.3,0.4-0.5,0.4
			c-0.1,0-0.2,0-0.2-0.1C143.6,137.1,143.8,136.8,144.1,136.8z M143.7,139.4c0.2,0,0.4,0.1,0.6,0c0.1,0,0.2,0,0.2,0
			c0.2,0.2,0.5,0.3,0.7,0.5c0,0,0,0.1,0,0.1c0,0.1-0.1,0.2-0.1,0.2c-0.2,0-0.3,0-0.5,0c-0.1,0-0.3,0-0.5,0c-0.3,0.1-0.7,0.1-1-0.1
			c-0.1,0-0.2,0-0.2,0c-0.2,0-0.3,0-0.5-0.1c-0.1,0-0.2-0.3-0.1-0.4c0.1-0.1,0.1-0.1,0.2-0.2c0.1,0,0.1-0.1,0.2-0.1c0,0,0.1,0,0.1,0
			C143.1,139.4,143.4,139.3,143.7,139.4z M141.8,97.8c0.1,0,0.1-0.1,0.2,0c0.2,0.2,0.5,0.4,0.8,0.6c0,0,0,0,0,0l0,0c0,0,0,0,0,0
			c0,0,0,0,0,0c0.2,0.2,0.5,0.3,0.6,0.6c0,0,0,0.1,0,0.1c-0.1,0.1-0.1,0.1-0.2,0.1c0,0-0.1,0-0.1-0.1c-0.1-0.1-0.2-0.3-0.3-0.4
			c-0.1-0.1,0-0.2,0-0.3c0,0,0,0,0,0c0,0,0,0,0,0c-0.1,0.1-0.2,0.2-0.4,0.1c-0.1,0-0.2-0.1-0.3-0.1c-0.1-0.1-0.2-0.2-0.3-0.4
			C141.7,97.9,141.7,97.8,141.8,97.8z M141.1,130c0-0.1,0-0.2,0-0.2c0-0.1,0.1-0.1,0.2-0.2c0.1,0,0.3,0,0.3,0.1
			c0.1,0.1,0.1,0.3,0.1,0.5c0,0,0,0.1-0.1,0.1c-0.1,0-0.2,0-0.4-0.1C141.1,130.1,141.1,130.1,141.1,130z M140.2,118.2
			c0.1,0,0.2,0,0.2,0.1c0.1,0.1,0.2,0.2,0.2,0.4c0,0.1,0,0.2,0,0.2c-0.1,0.1-0.2,0.1-0.3,0.1c-0.1,0-0.1-0.1-0.2-0.1
			c0,0,0-0.1,0-0.1c0-0.1,0-0.2,0-0.3C140.1,118.3,140.1,118.2,140.2,118.2z M140.7,120.3C140.7,120.4,140.6,120.4,140.7,120.3
			C140.6,120.4,140.6,120.4,140.7,120.3C140.6,120.4,140.6,120.3,140.7,120.3C140.6,120.3,140.7,120.3,140.7,120.3z M139.9,178.1
			c0.1,0,0.2,0,0.2,0.1c0,0-0.1,0.1-0.1,0.1C139.9,178.4,139.8,178.3,139.9,178.1C139.8,178.2,139.9,178.1,139.9,178.1z
			 M140.7,213.4c0.1,0,0.2,0,0.2,0c0.1,0,0.2,0,0.2,0.1c0.1,0.1,0,0.3-0.1,0.3c-0.1,0-0.1,0.1-0.2,0.1c-0.2,0-0.5,0.1-0.8,0.1
			c-0.2,0-0.4,0-0.6,0c0,0-0.1,0-0.1-0.1c0-0.1,0-0.2,0.1-0.2C139.9,213.6,140.3,213.5,140.7,213.4z M139.3,178
			C139.4,178,139.4,178,139.3,178c0.1,0.2,0.1,0.2,0,0.2c0,0-0.1,0-0.1-0.1C139.2,178.1,139.3,178,139.3,178z M139.1,95.8
			L139.1,95.8L139.1,95.8L139.1,95.8z M137.5,94.3C137.6,94.3,137.6,94.2,137.5,94.3c0.1,0,0.2,0.1,0.2,0.1c0,0,0,0,0,0l0,0l0,0
			c0,0,0,0,0,0c0.1,0,0.1,0,0.1,0.1c0,0-0.1,0-0.1,0c0,0,0,0,0-0.1c0,0,0,0,0,0c0,0,0,0,0,0C137.5,94.3,137.5,94.3,137.5,94.3z
			 M138.2,186.4c0.1,0,0.2,0,0.3,0c0.1,0,0.2,0,0.2,0.1c0,0.1,0,0.2,0,0.2c0,0-0.1,0.1-0.1,0.1c0,0-0.1,0.1-0.1,0.1
			c-0.3,0.1-0.6,0.2-0.9,0.4c-0.3,0.2-0.5,0.4-0.8,0.6c-0.1,0.1-0.2,0.1-0.3,0c-0.1-0.1-0.2-0.4-0.1-0.4c0.1-0.2,0.3-0.3,0.4-0.5
			c0.2-0.2,0.4-0.3,0.6-0.4c0.1,0,0.2,0,0.2-0.1C137.7,186.4,138,186.4,138.2,186.4z M136.2,131.3L136.2,131.3L136.2,131.3
			L136.2,131.3z M136.6,148.7c0-0.2,0.3-0.4,0.5-0.5c0.1,0,0.1,0.1,0.2,0.1c0,0,0,0.1,0,0.1c-0.1,0.2-0.3,0.3-0.5,0.3
			C136.6,148.9,136.6,148.8,136.6,148.7z M137.4,139.5c0,0.1,0,0.2-0.2,0.2c-0.1,0-0.2,0-0.3,0c0,0-0.1-0.1-0.1-0.1
			c0-0.1,0.1-0.3,0.2-0.3c0,0,0.1,0,0.1,0C137.3,139.3,137.3,139.4,137.4,139.5z M137,125.8C137,125.8,137,125.8,137,125.8
			C137,125.8,136.9,125.8,137,125.8C136.9,125.8,136.9,125.8,137,125.8L137,125.8c-0.2,0-0.3,0-0.4-0.1c0,0,0,0,0-0.1c0,0,0,0,0,0
			c0,0,0,0,0,0c0,0.1,0.1,0.2,0.1,0.3c0,0,0,0.1,0,0.1c0,0-0.1,0-0.1,0c-0.1,0-0.1,0-0.1-0.1c0,0,0-0.1,0-0.1c0-0.1,0-0.1,0-0.2
			c0,0,0,0,0,0c0,0,0,0,0,0l0,0c0,0,0,0,0,0l0,0c0,0,0,0,0,0C136.7,125.7,136.8,125.8,137,125.8L137,125.8z M136.6,93.2
			c0.1,0,0.1,0.1,0.1,0.2c0,0,0,0,0,0l0,0c0,0,0,0,0,0l0,0.1l-0.1,0c0,0,0,0,0,0C136.6,93.4,136.6,93.4,136.6,93.2
			C136.6,93.3,136.6,93.2,136.6,93.2z M136.2,69c0,0,0.1,0,0.1,0c0.3,0.1,0.3,0.4,0.1,0.6c0,0-0.1,0-0.1,0c-0.2,0-0.3-0.2-0.3-0.4
			C136,69.1,136.1,69,136.2,69z M130.4,129.1C130.4,129.1,130.3,129,130.4,129.1C130.4,128.9,130.4,128.9,130.4,129.1
			C130.4,129.1,130.4,129.1,130.4,129.1z M131.9,117.8c0,0.1-0.1,0.1-0.2,0.1c-0.4-0.1-0.7-0.3-1-0.5c-0.1,0-0.1-0.1-0.1-0.2
			c0-0.1,0.1-0.1,0.2-0.1c0.3,0.1,0.6,0.2,0.9,0.3c0.1,0,0.1,0.1,0.2,0.2C131.9,117.6,131.9,117.7,131.9,117.8z M135.1,91.6
			C135.1,91.6,135.1,91.6,135.1,91.6c0,0.1,0.1,0.1,0.1,0.2c0,0,0,0.1,0,0.1c0,0-0.1,0-0.1,0c0,0-0.1-0.1-0.1-0.1
			C135,91.7,135,91.7,135.1,91.6C135.1,91.6,135.1,91.6,135.1,91.6C135.1,91.6,135.1,91.6,135.1,91.6c-0.1,0-0.1,0-0.2,0
			C135,91.6,135.1,91.6,135.1,91.6z M132.1,88.4c0,0,0.1,0,0.1,0c0.1,0,0.2,0,0.2,0.1c0.2,0.1,0.4,0.3,0.5,0.5
			c0.1,0.2,0.2,0.4,0.2,0.5c0,0,0,0.1,0,0.2c0,0,0,0,0,0c0,0,0,0,0,0c0,0,0,0,0,0c0,0,0,0,0,0c0.1,0,0.2,0.1,0.3,0.1c0,0,0,0,0.1,0
			c0,0,0,0,0,0c0.3,0.3,0.7,0.7,1,1.1c0,0,0,0,0,0c0.1,0.1,0.1,0.2,0.1,0.3c0,0,0.1,0.1,0.1,0.1l0,0c0,0,0,0,0,0
			c0,0,0.1,0.1,0.1,0.1c-0.1,0-0.1-0.1-0.2-0.1c0-0.1-0.2-0.2-0.1-0.4c0,0,0,0,0,0c0,0,0,0,0,0c0,0,0,0,0,0c-0.1,0-0.1,0.1-0.2,0.1
			c-0.1,0-0.2,0-0.3-0.1c-0.3-0.2-0.4-0.6-0.5-0.9c0-0.1,0-0.1,0-0.2c0,0,0,0,0,0c0,0,0,0,0,0c0,0,0,0,0,0c-0.1,0-0.2,0-0.3-0.1
			c0,0,0,0-0.1,0c0,0,0,0,0-0.1C132.8,89.3,132.4,88.9,132.1,88.4C132.1,88.4,132.1,88.4,132.1,88.4c-0.1,0-0.1,0-0.2-0.1
			c0,0,0,0,0,0c0,0,0,0,0,0c0,0,0,0,0-0.1c0,0,0,0,0,0.1C132,88.3,132.1,88.3,132.1,88.4z M131.7,87.3c0,0.1,0,0.2,0,0.3
			c0,0,0,0,0,0c0,0,0,0,0,0.1c0.2,0.1,0.2,0.1,0.1,0.3c0,0.1,0,0.1,0,0.2c0,0,0,0,0-0.1c-0.1-0.1-0.1-0.2-0.1-0.4c0,0,0,0,0,0
			c0,0,0,0,0-0.1c-0.2-0.1-0.2-0.3-0.2-0.4c0,0,0,0,0,0c0,0,0,0,0,0c-0.1,0-0.2,0-0.2,0c-0.6-0.6-1.2-1.2-1.6-2c0,0,0-0.1,0-0.1
			c0,0,0.1,0,0.1,0c0,0,0.1,0,0.1,0c0.5,0.3,0.9,0.7,1.2,1.2c0.1,0.2,0.3,0.3,0.4,0.5c0.1,0.1,0,0.2,0.1,0.3c0,0,0,0,0,0l0,0l0,0
			c0,0,0,0,0,0c0,0,0,0,0,0c0,0,0,0,0,0C131.6,87.2,131.7,87.3,131.7,87.3z M131.6,73.9c0,0.1-0.1,0.1-0.1,0.2
			c-0.1,0.1-0.1,0.1-0.2,0c-0.1,0-0.1-0.1-0.1-0.2c0-0.1,0.1-0.1,0.3-0.1C131.6,73.8,131.6,73.8,131.6,73.9z M129.6,78.6
			c0-0.2,0-0.4,0.1-0.6c0.1-0.4,0.1-0.8,0.1-1.2c0-0.1,0-0.3,0-0.4c0.2-0.5,0.2-0.9,0-1.3c0-0.1,0-0.2,0-0.2c0,0,0-0.1,0.1-0.1
			c0.2-0.2,0.2-0.4,0.2-0.7c-0.1-0.2,0-0.4,0.2-0.6c0.1-0.1,0.1-0.1,0.1-0.2c0-0.1,0-0.2,0.1-0.2c0.2-0.9,0.4-1.8,0.5-2.7
			c0-0.2,0.1-0.5,0.2-0.7c0-0.3,0-0.5-0.2-0.7c-0.1-0.1-0.1-0.3,0-0.3c0.2-0.2,0.4-0.5,0.5-0.7c0,0,0.1,0,0.1,0c0,0,0.1,0.1,0.1,0.1
			c0,0.1,0,0.2,0,0.4c0,0.2-0.1,0.4-0.1,0.6c-0.1,0.2-0.1,0.5-0.1,0.7c0,0.5,0,0.9-0.2,1.4c0,0.1,0,0.2,0,0.2c0,0.5-0.1,0.9-0.1,1.4
			c0,0.4-0.2,0.8-0.2,1.2c0,0.3-0.1,0.6-0.2,1c-0.1,0.5-0.2,1-0.3,1.6c-0.1,0.5-0.2,1.1-0.3,1.6c0,0.1-0.1,0.2-0.1,0.3
			c-0.1,0.1-0.1,0.3-0.1,0.5c0,0.1,0,0.2-0.1,0.2c0,0-0.1-0.1-0.1-0.2C129.6,78.8,129.6,78.7,129.6,78.6z M129.4,80.5
			C129.4,80.5,129.4,80.6,129.4,80.5c0.1,0.1,0.1,0.2,0.1,0.3c0,0,0,0-0.1,0c0,0,0-0.1,0-0.1C129.3,80.7,129.4,80.6,129.4,80.5z
			 M128.8,84.2c0-0.1,0-0.2,0-0.2c0,0,0-0.1,0-0.1c0.1,0,0.1,0.1,0.1,0.2c0,0.1,0,0.2,0,0.2c0,0,0,0.1,0,0.1c0,0.1-0.1,0.1-0.1,0.1
			c0,0-0.1-0.1-0.1-0.1C128.8,84.3,128.8,84.2,128.8,84.2z M128.7,85.6c0.1,0,0.1,0.1,0.1,0.2c0,0.1,0,0.1-0.1,0.2c0,0-0.1,0-0.1,0
			c0-0.1,0-0.1,0-0.2C128.6,85.7,128.6,85.6,128.7,85.6z M128.1,88.5c0.1-0.4,0.2-0.9,0.3-1.3c0,0,0,0,0.1,0c0,0,0,0.1,0,0.1
			c0,0.6,0,1.2-0.2,1.7c0,0,0,0.1,0,0.1c0,0.1-0.1,0.2-0.1,0.1c0,0-0.1-0.1-0.1-0.1C128.1,88.9,128.1,88.7,128.1,88.5z M127.9,90.8
			c0.1,0,0.1,0.1,0.1,0.2c0,0.1,0,0.2,0,0.2c0,0.1,0,0.1,0,0.2c0-0.1,0-0.1-0.1-0.2c0-0.1,0-0.2,0-0.2
			C127.8,90.9,127.9,90.8,127.9,90.8z"/>
		<path fill="#F2F2F2" d="M112.1,215.9L112.1,215.9C112.1,215.9,112,215.9,112.1,215.9C112.1,215.9,112.1,215.9,112.1,215.9
			C112.1,215.9,112.1,215.9,112.1,215.9z"/>
		<path fill="#F2F2F2" d="M110.7,212.6C110.7,212.6,110.7,212.6,110.7,212.6C110.7,212.6,110.7,212.6,110.7,212.6
			C110.7,212.6,110.7,212.6,110.7,212.6z"/>
		<path fill="#F2F2F2" d="M109.7,225.3C109.7,225.3,109.7,225.3,109.7,225.3C109.7,225.3,109.7,225.3,109.7,225.3
			C109.7,225.3,109.7,225.3,109.7,225.3z"/>
		<path fill="#F2F2F2" d="M109.7,225.3C109.7,225.3,109.7,225.3,109.7,225.3C109.7,225.3,109.7,225.3,109.7,225.3
			C109.6,225.3,109.6,225.3,109.7,225.3z"/>
		<path fill="#F2F2F2" d="M133.6,89.9C133.6,89.9,133.6,89.8,133.6,89.9L133.6,89.9C133.6,89.9,133.6,89.9,133.6,89.9z"/>
		<path fill="#F2F2F2" d="M132,130c0,0.1,0.2,0.2,0.3,0.1c0.1-0.1,0.2-0.2,0.2-0.3c0-0.2-0.2-0.3-0.4-0.3
			C132,129.7,132,129.8,132,130z"/>
		<polygon fill="#F2F2F2" points="115.9,220.2 115.9,220.3 115.9,220.3 		"/>
		<path fill="#F2F2F2" d="M84.3,197C84.3,197,84.3,197,84.3,197C84.4,197,84.4,197,84.3,197C84.4,197,84.4,197,84.3,197
			C84.4,197,84.3,197,84.3,197z"/>
		<path fill="#F2F2F2" d="M172.6,66.6C172.6,66.6,172.6,66.6,172.6,66.6C172.6,66.6,172.6,66.6,172.6,66.6
			C172.6,66.6,172.6,66.6,172.6,66.6z"/>
		<path fill="#F2F2F2" d="M133,130.1c0,0,0-0.1,0-0.1c0-0.1,0-0.2-0.1-0.3c0,0.1-0.1,0.2-0.1,0.3C132.8,130.1,132.9,130.1,133,130.1
			z"/>
		<polygon fill="#F2F2F2" points="133.7,127.4 133.6,127.4 133.6,127.4 		"/>
		<path fill="#F2F2F2" d="M204.7,130.1C204.7,130.1,204.6,130.2,204.7,130.1c-0.2,0-0.2-0.1-0.2-0.2c0-0.1,0-0.2,0.1-0.2
			c0.1-0.1,0.1-0.2,0.2-0.2V94.4l9.9-4.9v128.2l19.7-9.9v-9.2c-0.2,0.2-0.4,0.4-0.6,0.5c-0.1,0.1-0.3,0.1-0.4,0.1c0,0,0,0,0,0
			c0,0,0,0,0,0c0,0,0,0,0,0c0,0,0.1,0.1,0,0.1c0,0-0.1,0,0,0c0,0,0-0.1,0.1-0.1c0,0,0,0,0,0c0,0,0,0,0,0c0.1-0.3,0.5-0.4,0.6-0.8
			c0.1-0.2,0.2-0.4,0.3-0.6v-1.4c0,0-0.1,0-0.1,0c-0.2-0.1-0.4-0.2-0.5-0.3c-0.1-0.1-0.1-0.3,0.1-0.4c0.1,0,0.1-0.1,0.2-0.1
			c0.1,0,0.2,0,0.3,0.1V79.6v-9.9l-19.7,9.9l-9.9,4.9v-4.9v-9.9L185,79.6l-9.9,4.9V59.9l-19.7,9.9v177.5l19.7-9.9V131.1
			c0,0-0.1,0-0.1,0c-0.1-0.1-0.2-0.2-0.1-0.3l0,0c0,0,0,0,0,0c-0.1,0-0.2,0.1-0.3,0.1c-0.1,0-0.2,0-0.3-0.1
			c-0.1-0.1-0.1-0.1-0.2-0.2c-0.2-0.2-0.2-0.4,0-0.7c0.1-0.1,0.1-0.1,0.1-0.2c-0.1-0.3-0.2-0.5-0.3-0.8c0-0.2-0.2-0.3-0.3-0.4
			c-0.1-0.1-0.1-0.1-0.1-0.2c0-0.2,0.3-0.3,0.5-0.2c0.1,0.1,0.3,0.2,0.4,0.3c0.2,0.4,0.4,0.9,0.5,1.4c0,0.1,0,0.2,0,0.2c0,0,0,0,0,0
			c0,0,0,0,0,0c0.1,0,0.2,0,0.3,0.1V94.4l9.9-4.9v59.2c0.1,0,0.1,0,0.2,0c0,0,0.1,0,0.1,0c0,0,0.1,0,0.1,0c0.1,0,0.2,0,0.2,0.1
			c0,0.1-0.1,0.1-0.1,0.2c-0.2,0.1-0.3,0.1-0.5,0.1v3.6c0.1,0,0.1,0,0.2,0c0.1,0,0.1,0.1,0.1,0.1c0,0,0,0.1,0,0.1
			c-0.1,0.1-0.2,0.2-0.3,0.2v79.3l19.7-9.9L204.7,130.1C204.7,130.1,204.7,130.1,204.7,130.1z M227,195.7L227,195.7L227,195.7
			L227,195.7z M227.9,195.7c-0.1,0.1-0.1,0.1-0.2,0c-0.1,0-0.1-0.1-0.1-0.2c0-0.1,0.1-0.1,0.2-0.2c0.1,0,0.3,0,0.3,0.1
			C228,195.5,228,195.6,227.9,195.7z M231.2,136.2C231.2,136.2,231.2,136.2,231.2,136.2c-0.2-0.1-0.1-0.2,0-0.2c0,0,0.1,0,0.1,0
			c0,0,0.1,0.1,0.1,0.1C231.4,136.2,231.3,136.2,231.2,136.2z M232,200.9C232,200.9,231.9,200.9,232,200.9c-0.2,0.2-0.4,0.1-0.5,0
			c0,0,0-0.1,0-0.1c0.1-0.1,0.2-0.2,0.3-0.2c0.1,0,0.3,0.1,0.3,0.1C232.1,200.8,232,200.8,232,200.9z M232.5,196.2
			c-0.3-0.1-0.6-0.1-0.9-0.2c0,0,0-0.1-0.1-0.1c0-0.1,0-0.1,0.1-0.2c0.2,0,0.3,0,0.3,0c0.3,0,0.5,0,0.6,0.1c0.1,0,0.1,0.1,0.1,0.2
			C232.7,196.2,232.7,196.3,232.5,196.2z M233,196.8c0,0.1-0.1,0.1-0.2,0.1c-0.1,0-0.1-0.1-0.1-0.2c0,0,0.1-0.1,0.1-0.1
			c0,0,0.1,0,0.1,0C233,196.6,233.1,196.7,233,196.8z M233.9,101.8c0.1-0.1,0.1-0.1,0.2-0.1c0,0,0.1,0,0.1,0.1c0,0.1,0,0.2,0,0.3
			c0,0.2-0.1,0.4-0.1,0.5c0,0.2-0.1,0.4-0.2,0.6c0,0.1-0.1,0.1-0.1,0.1c0,0-0.1-0.1-0.1-0.1c0,0,0-0.1,0-0.1c0-0.3,0.1-0.5,0.2-0.7
			C233.9,102.2,233.8,102,233.9,101.8z M233.5,104.3C233.5,104.3,233.6,104.4,233.5,104.3c0.1,0,0.2,0.1,0.2,0.1
			c0,0.4-0.2,0.7-0.3,1.1c-0.3,0.4-0.4,1-0.5,1.5c0,0.2-0.1,0.4-0.2,0.6c0,0-0.1,0-0.1,0c-0.1,0-0.1-0.1-0.2-0.2c0,0,0-0.1,0-0.1
			c0-0.1,0.1-0.2,0.1-0.3c0.1-0.2,0.1-0.3,0-0.5c-0.1-0.2-0.1-0.5-0.1-0.7c0-0.2,0-0.3,0.1-0.5c0-0.2,0.1-0.3,0.3-0.4
			c0.3-0.1,0.4-0.2,0.5-0.5c0,0,0.1-0.1,0.1-0.1C233.4,104.4,233.4,104.4,233.5,104.3z M233.1,75.7c0.1-0.1,0.3-0.1,0.3,0
			c0,0.1,0,0.1-0.1,0.2c0,0-0.1,0-0.1,0.1c-0.1,0.1-0.1,0.1-0.2,0c0,0,0-0.1,0-0.1C233,75.8,233,75.8,233.1,75.7z M232,74.5
			c0.2-0.1,0.3-0.2,0.6-0.2c0.2,0,0.3,0.2,0.2,0.4c0,0.2-0.1,0.3-0.2,0.4c-0.1,0.1-0.4,0.1-0.5,0c-0.1-0.2-0.1-0.2-0.1-0.3
			C231.9,74.7,231.9,74.6,232,74.5z M231.6,99.1c0.1,0.1,0.1,0.1,0,0.2C231.5,99.3,231.5,99.2,231.6,99.1
			C231.5,99.2,231.5,99.2,231.6,99.1z M231.3,79.1L231.3,79.1L231.3,79.1L231.3,79.1z M230.4,78.2c0.2-0.3,0.2-0.3,0.6-0.2
			c0.1,0,0.1,0.1,0,0.2c-0.1,0.2-0.3,0.3-0.5,0.4c0,0-0.1,0-0.1,0c-0.1,0-0.1-0.1-0.1-0.2C230.3,78.3,230.3,78.3,230.4,78.2z
			 M226.7,125.6c0.3-0.2,0.5-0.2,0.8-0.3c0.2,0,0.3,0,0.5,0.1c0.5,0.4,1,0.7,1.5,1.1c0.2,0.2,0.5,0.4,0.8,0.6c0.5,0.2,1,0.5,1.4,0.7
			c0.3,0.1,0.5,0.3,0.7,0.4c0.4,0.5,0.9,0.8,1.3,1.3c0.1,0.1,0.1,0.2,0,0.2c0,0-0.1,0.1-0.1,0.1c-0.1,0-0.3,0-0.4-0.1
			c-0.1-0.1-0.2-0.2-0.3-0.2c-0.3-0.3-0.6-0.4-1-0.4c-0.2,0-0.4-0.1-0.6-0.2c-0.3-0.2-0.6-0.3-0.9-0.4c-0.2,0-0.3-0.1-0.4-0.3
			c-0.1-0.1-0.2-0.3-0.3-0.4c-0.2-0.2-0.5-0.3-0.7-0.4c-0.2-0.1-0.5-0.2-0.7-0.3c0,0-0.1,0-0.1-0.1c-0.1-0.1-0.2-0.1-0.3-0.2
			c-0.4-0.4-0.9-0.5-1.3-0.9C226.7,125.8,226.7,125.7,226.7,125.6C226.6,125.6,226.7,125.6,226.7,125.6z M222.3,102.3
			c0.1-0.1,0.2-0.3,0.3-0.3c0.1,0,0.2,0,0.2,0c0,0,0,0.1,0,0.1c-0.1,0.1-0.2,0.3-0.3,0.4c-0.1,0-0.2,0-0.2-0.1
			C222.3,102.3,222.3,102.3,222.3,102.3z M218.3,185.8c0.1-0.1,0.3-0.2,0.4-0.2c0.1,0,0.2,0.1,0.2,0.2c0,0.1,0,0.2-0.1,0.2
			c-0.2,0.1-0.3,0.1-0.5,0.1c-0.1,0-0.1-0.1-0.1-0.2C218.3,185.9,218.3,185.8,218.3,185.8z M213.1,80.8L213.1,80.8L213.1,80.8
			L213.1,80.8z M166.5,111.8C166.5,111.8,166.6,111.9,166.5,111.8c0.1,0.1,0.1,0.1,0,0.1c0,0-0.1,0-0.1,0
			C166.5,111.9,166.5,111.9,166.5,111.8z M166.3,160.5c0.1,0,0.2,0.1,0.2,0.2c0,0.1-0.1,0.1-0.2,0.1c-0.1,0-0.1-0.1-0.1-0.2
			C166.2,160.6,166.2,160.5,166.3,160.5z M163.7,88.3c0.1-0.1,0.3,0,0.3,0.1c0.1,0.3,0,0.5-0.3,0.7c-0.1,0.1-0.2,0-0.2-0.1
			c0,0,0-0.1,0-0.1C163.4,88.6,163.5,88.4,163.7,88.3z M158.1,99.7c0.3,0,0.4,0.2,0.6,0.4c0.1,0.1,0,0.2,0,0.2
			c-0.1,0.1-0.1,0.1-0.2,0.1c-0.2,0-0.3-0.1-0.4-0.2c-0.1-0.1-0.1-0.2-0.1-0.3C158,99.7,158,99.6,158.1,99.7z M156.1,155.4
			c0.1-0.1,0.2-0.2,0.3-0.2c0,0,0.1,0,0.1-0.1c0.1,0,0.2,0,0.2,0.1c0.1,0.2,0,0.4-0.1,0.6c-0.1,0.2-0.3,0.2-0.4,0
			C156,155.7,156,155.6,156.1,155.4z M156,159.6C156.1,159.6,156.1,159.6,156,159.6c0.5,0.3,0.9,0.7,1.1,1.2c0,0.1,0,0.2-0.1,0.2
			c0,0-0.1,0-0.1,0c-0.3-0.3-0.5-0.6-0.8-0.9c-0.1-0.1-0.2-0.3-0.2-0.4C156,159.7,156,159.7,156,159.6z M158.1,168.6
			c-0.1,0.1-0.2,0.2-0.3,0.2c-0.2,0.1-0.3,0.2-0.5,0.3c0,0,0,0.1,0,0.1c0,0,0,0,0,0c0,0,0,0,0,0c-0.1,0-0.2,0.1-0.2,0.1
			c-0.2,0.2-0.5,0.5-0.7,0.7c-0.1,0.1-0.2,0.1-0.3,0.2c-0.1,0.1-0.3,0-0.3-0.1c0-0.2-0.1-0.3-0.1-0.5c0-0.4,0.4-0.8,0.7-0.6
			c0.3,0.1,0.6,0.2,0.9,0.2c0,0,0,0,0,0l0,0c0,0,0,0,0,0c0,0,0,0,0,0c-0.1-0.2-0.1-0.4-0.1-0.6c0-0.1,0.1-0.3,0.2-0.3
			c0.2,0,0.5-0.1,0.7-0.3c0.2-0.2,0.3-0.3,0.6-0.5c0,0,0.1,0,0.1,0c0,0,0,0.1,0,0.1C158.6,168.1,158.3,168.3,158.1,168.6z
			 M158.8,98.8c0,0-0.1,0-0.1,0c-0.1-0.1-0.3-0.2-0.4-0.3c0,0,0-0.1,0-0.1c0-0.1,0.1-0.1,0.2-0.1C158.8,98.3,158.9,98.5,158.8,98.8
			C158.9,98.8,158.8,98.8,158.8,98.8z M159.1,236.1c0,0-0.1,0-0.1,0c-0.1-0.1-0.1-0.1,0-0.2c0-0.1,0.1-0.1,0.2-0.1
			c0,0,0.1,0,0.1,0.1C159.2,236,159.2,236.1,159.1,236.1z M159.4,209.9L159.4,209.9L159.4,209.9L159.4,209.9z M159.4,103.2
			c-0.1,0-0.2-0.1-0.2-0.2c0,0,0-0.1,0.1-0.1c0.1,0,0.2,0.1,0.2,0.2C159.6,103.2,159.5,103.2,159.4,103.2z M160.7,75.4
			c-0.1,0-0.1,0.1-0.2,0.1c-0.1,0-0.3-0.1-0.3-0.2c0,0,0-0.1,0-0.1c0-0.1,0-0.2,0-0.3c0-0.1,0-0.2,0.1-0.3c0,0,0.1,0,0.1,0
			c0,0,0.1,0,0.1,0c0.1,0.2,0.2,0.4,0.3,0.6C160.7,75.3,160.7,75.4,160.7,75.4z M160.8,133.3c0-0.2,0-0.4,0-0.6c0-0.1,0-0.2,0.1-0.1
			c0,0,0,0.1,0,0.1C160.8,132.9,160.8,133.1,160.8,133.3C160.8,133.3,160.8,133.3,160.8,133.3z M161,135.9c-0.1,0-0.1-0.1-0.1-0.2
			c0-0.2,0-0.3,0-0.5c0,0,0,0,0,0c0-0.1,0-0.2,0-0.4c0-0.1,0-0.2,0.1-0.2c0,0,0.1,0.1,0.1,0.1C161.1,135.1,161.1,135.5,161,135.9
			C161.1,135.8,161.1,135.9,161,135.9z M161.3,172.1c-0.1,0-0.1-0.1-0.1-0.2c0.1-0.1,0.2-0.2,0.3-0.1c0,0,0,0.1,0,0.1
			C161.5,172,161.4,172.1,161.3,172.1z M162.1,109c0,0.1-0.1,0.1-0.2,0.1c-0.1,0-0.1-0.1-0.2-0.1c0,0,0-0.1,0-0.1
			c0-0.1,0.1-0.1,0.2-0.1c0.1,0,0.2,0,0.2,0.1C162.2,108.9,162.2,109,162.1,109z M162.3,196.7L162.3,196.7L162.3,196.7L162.3,196.7z
			 M162.6,88.1c0.1,0.1,0,0.2-0.1,0.3c-0.1,0-0.2,0-0.4,0.1c-0.3,0-0.4-0.1-0.4-0.5c0-0.2,0-0.4,0.2-0.6c0.2-0.3,0.4-0.7,0.5-1.1
			c0-0.1,0.1-0.2,0.1-0.2c0.2-0.2,0.4-0.4,0.6-0.7c0.1-0.1,0.2-0.1,0.2,0c0,0,0,0.1,0,0.1c0,0.1,0,0.2-0.1,0.2
			c-0.1,0.1-0.2,0.3-0.3,0.4c-0.2,0.2-0.3,0.5-0.3,0.8c0,0.1-0.1,0.2-0.1,0.3C162.3,87.6,162.4,87.9,162.6,88.1z M163.8,210.4
			c0,0-0.1,0-0.1,0.1c-0.3,0-0.5-0.1-0.7-0.2c-0.1-0.1-0.1-0.1,0-0.2c0,0,0.1-0.1,0.1-0.1c0.2,0,0.4,0.1,0.6,0.2
			c0,0,0.1,0.1,0.1,0.1C163.8,210.3,163.8,210.4,163.8,210.4z M164.5,209.2c0,0-0.1,0-0.1,0c-0.1,0-0.1,0-0.2-0.1
			c0-0.1-0.1-0.2,0-0.3c0,0,0,0,0,0c0,0,0,0,0,0c0,0,0,0,0,0c-0.1-0.1-0.1-0.2-0.2-0.3l0,0c0,0,0,0,0,0c-0.1-0.1-0.2-0.1-0.3-0.2
			l0,0c0,0,0,0,0,0c-0.1,0-0.1,0-0.1-0.1c0,0,0.1-0.1,0.1-0.1c0.1,0,0.1,0.1,0.1,0.2c0,0,0,0,0,0c0,0.1,0.1,0.1,0.2,0.1
			c0.1,0,0.1,0.1,0.2,0.1c0.1,0.1,0.2,0.2,0.2,0.3c0,0,0,0,0,0C164.4,208.9,164.4,209,164.5,209.2
			C164.5,209.1,164.5,209.2,164.5,209.2z M164.8,206.3c0,0.1-0.2,0.2-0.3,0.1c-0.2-0.1-0.3-0.2-0.3-0.4c0,0,0-0.1,0-0.1
			c0-0.1,0.1-0.1,0.2-0.1c0.2,0,0.3,0.1,0.4,0.3C164.8,206.2,164.8,206.2,164.8,206.3z M164.9,183C164.8,183,164.8,183,164.9,183
			L164.9,183L164.9,183L164.9,183C164.8,183,164.9,183,164.9,183C164.9,183.1,164.9,183.1,164.9,183z M165,117.1l0-0.1h0.1
			L165,117.1z M165.2,81.6C165.2,81.6,165.2,81.6,165.2,81.6C165.2,81.7,165.2,81.7,165.2,81.6l-0.1,0
			C165.1,81.7,165.2,81.7,165.2,81.6c-0.1,0.1-0.1,0.1-0.1,0.1c0,0.1,0,0.2,0,0.3c0,0.1-0.1,0.2-0.2,0.2c0,0,0,0,0,0c0,0,0,0,0,0
			c0,0.3,0.1,0.5,0.2,0.8c0,0,0,0.1-0.1,0.1c-0.2,0.1-0.5,0.1-0.7,0.3c0,0-0.1-0.1-0.1-0.1c0.1-0.3,0.2-0.7,0.4-1
			c0.1-0.1,0.2-0.1,0.3-0.1c0,0,0,0,0,0l0,0l0,0c0,0,0,0,0,0c0-0.1,0-0.1,0-0.2c0-0.1,0.1-0.2,0.2-0.3c0,0,0,0,0,0
			C165.1,81.7,165.2,81.7,165.2,81.6c-0.1-0.3,0-0.6,0.3-0.8c0,0,0.1,0,0.1,0c0.1,0,0.1,0.1,0.1,0.2
			C165.6,81.2,165.4,81.4,165.2,81.6z M165.5,99.8L165.5,99.8L165.5,99.8L165.5,99.8z M167.2,197.9c0,0.1,0,0.2,0,0.3
			c0,0.1,0,0.2-0.1,0.2c-0.2,0.2-0.2,0.4-0.3,0.7c-0.1,0.2-0.2,0.3-0.5,0.5c0,0-0.1,0-0.1,0.1c-0.1,0.1-0.1,0.1-0.2,0
			c-0.2-0.2-0.3-0.4-0.3-0.7c0-0.3,0-0.6,0.2-0.8c0.1-0.1,0.1-0.3,0.1-0.5c0-0.2,0.2-0.3,0.3-0.3c0.2,0,0.5,0,0.7,0
			c0.1,0,0.2,0.1,0.2,0.3C167.2,197.7,167.2,197.8,167.2,197.9z M167.6,76.9C167.6,76.9,167.6,76.9,167.6,76.9
			C167.6,76.9,167.6,76.9,167.6,76.9c-0.1,0.1-0.1,0.1-0.2,0.2c0,0.1-0.1,0.1-0.2,0.1c0,0,0,0,0,0c0,0,0,0,0,0c0,0,0,0,0,0
			c0.1,0.2,0,0.5,0,0.7c0,0,0,0,0,0l0,0c0,0,0,0,0,0c0,0,0,0-0.1,0c0,0,0,0,0,0c0,0,0.1,0,0.1,0.1c0,0,0,0,0,0c0,0,0,0,0,0
			c-0.1-0.2-0.1-0.5,0-0.7c0,0,0,0,0-0.1c0-0.1,0-0.2,0.1-0.2C167.4,77,167.5,77,167.6,76.9L167.6,76.9
			C167.6,76.9,167.6,76.9,167.6,76.9C167.6,76.9,167.6,76.9,167.6,76.9z M167.8,123.3c-0.1,0-0.2,0-0.2-0.1c0-0.1,0.1-0.1,0.2-0.1
			C167.8,123.1,167.9,123.2,167.8,123.3C167.8,123.2,167.8,123.3,167.8,123.3z M168.5,189.3c-0.1,0.2-0.3,0.1-0.4,0
			c-0.1-0.1-0.1-0.2-0.1-0.3c0,0,0-0.1,0.1-0.1c0.1-0.1,0.2-0.1,0.4,0c0.1,0,0.2,0.1,0.2,0.1C168.6,189.1,168.6,189.3,168.5,189.3z
			 M168.8,188.1c-0.1,0.1-0.3,0-0.3-0.1c0-0.1,0-0.2,0.1-0.3c0.1-0.1,0.1-0.1,0.2,0C169,187.9,169,188,168.8,188.1z M169.3,74
			c-0.2,0.4-0.4,0.8-0.6,1.2c0,0,0,0.1-0.1,0.1c0,0-0.1,0.1-0.1,0.1c-0.1,0-0.1-0.1-0.1-0.2c0,0,0-0.1,0-0.1
			c0.2-0.3,0.3-0.6,0.5-0.9c0.1-0.3,0.2-0.5,0.4-0.7c0,0,0,0,0-0.1l0,0c0,0,0,0,0,0c0,0,0,0,0.1-0.1c0-0.1,0.1-0.1,0.2-0.1
			c0,0,0,0.1,0,0.1c0,0.1-0.1,0.1-0.2,0.1c0,0,0,0-0.1,0c0,0,0,0,0,0c0,0,0,0,0,0C169.4,73.6,169.4,73.8,169.3,74z M169.8,178.5
			c-0.1,0-0.2,0-0.2,0c-0.1-0.1-0.1-0.1-0.1-0.2c0.1-0.1,0.2-0.2,0.2-0.3c0,0,0.1,0,0.1,0c0.1,0,0.1,0.1,0.2,0.2
			C170,178.3,169.9,178.4,169.8,178.5z M170.5,83.3L170.5,83.3L170.5,83.3L170.5,83.3z M171.9,128.6c-0.1,0-0.1-0.1-0.1-0.2
			c0-0.1,0-0.2,0.1-0.2c0.1,0,0.1,0,0.2,0c0.1,0.1,0.1,0.1,0.1,0.2C172.1,128.6,172,128.6,171.9,128.6z M172.8,129.4
			c0,0.1-0.1,0.1-0.2,0.1c-0.1,0-0.2-0.1-0.2-0.2c0-0.1,0-0.2,0.1-0.2c0.1,0,0.2,0,0.3,0.1C172.9,129.3,172.9,129.4,172.8,129.4z
			 M172.7,127.3c0,0,0-0.1,0-0.1c0,0,0.1-0.1,0.1-0.1c0.1,0,0.1,0.1,0.1,0.2C172.8,127.3,172.8,127.4,172.7,127.3
			C172.7,127.4,172.7,127.3,172.7,127.3z M173.2,65.9c-0.1,0.2-0.2,0.4-0.4,0.6c-0.1,0.1-0.1,0.1-0.2,0.1c0,0,0,0,0,0c0,0,0,0,0,0
			c0,0,0,0.1,0,0.1c0,0.1,0,0.1,0,0.2c0,0-0.1,0.1-0.1,0.1c0,0-0.1,0.1-0.1,0.1c0,0,0,0,0,0c0,0,0,0,0,0c0,0,0,0,0,0
			c0.1,0.1,0.1,0.2,0.1,0.4c0,0.1,0,0.2-0.1,0.3c0,0,0,0,0,0c0,0-0.1,0.1-0.1,0c0,0,0,0,0,0c0,0,0,0-0.1,0.1
			c-0.1,0.1-0.2,0.1-0.3,0.1c0,0,0,0,0,0c0,0,0,0,0,0c0,0,0,0,0,0c0,0,0,0,0,0c0,0,0,0,0,0c0,0.1,0,0.1,0,0c0,0,0,0,0,0c0,0,0,0,0,0
			c0,0,0,0,0,0l0,0c0,0,0,0,0,0c0.1-0.1,0.2-0.2,0.3-0.2c0,0,0.1-0.1,0.1-0.1l0,0c0,0,0,0,0,0c0,0,0,0,0,0c-0.1-0.2-0.1-0.5,0-0.7
			c0,0,0,0,0-0.1c0,0,0.1,0,0.1-0.1c0.1-0.1,0.2-0.2,0.2-0.3c0,0,0-0.1,0-0.1c0,0,0,0,0,0c0.1-0.3,0.2-0.6,0.4-0.8
			c0.1-0.1,0.1-0.1,0.2,0C173.2,65.8,173.2,65.8,173.2,65.9z M173.5,107.8c0-0.1,0.1-0.1,0.2-0.1c0.1,0,0.2,0,0.2,0.1
			c0,0,0,0.1,0,0.1c0,0.1-0.1,0.1-0.2,0.1C173.5,107.9,173.5,107.8,173.5,107.8z M173.9,126.2c0,0-0.1,0-0.1,0
			c-0.1,0-0.1-0.1-0.1-0.2c0-0.1,0.1-0.1,0.2-0.1c0.1,0,0.1,0.1,0.1,0.2C174,126.1,173.9,126.2,173.9,126.2z M174.2,92.6
			c-0.1,0.1-0.4,0-0.4-0.1c-0.1-0.2-0.2-0.3-0.3-0.5c0-0.1,0-0.2-0.1-0.2c0-0.1,0.1-0.3,0.2-0.3c0,0,0.1,0,0.1,0
			c0.1,0.1,0.3,0.2,0.4,0.3c0.2,0.1,0.2,0.3,0.3,0.5C174.4,92.3,174.2,92.5,174.2,92.6z M175,87.6c0,0-0.1,0.1-0.1,0.1
			c-0.1,0-0.2,0-0.3-0.2c0-0.1,0-0.2,0.1-0.2c0.1,0,0.2,0,0.2,0.1C175,87.4,175,87.5,175,87.6z M185.7,115.5
			C185.7,115.5,185.7,115.5,185.7,115.5c-0.1,0-0.1-0.1,0-0.1C185.7,115.4,185.7,115.4,185.7,115.5
			C185.8,115.4,185.7,115.5,185.7,115.5z M187.7,92.7c-0.1,0.1-0.1,0-0.2,0c-0.1,0-0.1-0.1-0.1-0.2c0,0,0.1,0,0.1-0.1
			c0,0,0.1,0,0.1,0c0,0,0.1,0,0.1,0.1C187.8,92.6,187.8,92.6,187.7,92.7z M188.6,149.3c0,0,0-0.1,0-0.1c0,0,0.1,0,0.1,0
			C188.7,149.2,188.7,149.3,188.6,149.3C188.7,149.3,188.6,149.3,188.6,149.3z M192.9,186.5C192.9,186.5,192.9,186.5,192.9,186.5
			c0-0.1,0-0.1,0-0.1C193,186.4,193,186.5,192.9,186.5C193,186.5,193,186.5,192.9,186.5z M194.1,184.4c-0.1,0.2-0.4,0.3-0.5,0.2
			c-0.1,0-0.1-0.1-0.1-0.2c0-0.1,0-0.2,0-0.4c0-0.1,0-0.2,0-0.3c0-0.4,0.1-0.4,0.4-0.5c0.1,0,0.2,0,0.3,0.1c0.1,0.1,0.1,0.2,0.1,0.3
			C194.2,183.9,194.2,184.2,194.1,184.4z M194.2,146.1C194.2,146.1,194.2,146.1,194.2,146.1c-0.1,0.1-0.2,0.1-0.2,0.1
			c-0.1,0-0.1-0.1-0.1-0.2c0-0.2,0.1-0.4,0.3-0.5c0,0,0.1,0,0.1,0c0.1,0,0.1,0.1,0.1,0.2C194.4,145.8,194.3,146,194.2,146.1z
			 M194.2,142.3C194.2,142.3,194.3,142.3,194.2,142.3C194.3,142.4,194.3,142.4,194.2,142.3C194.2,142.4,194.2,142.3,194.2,142.3z
			 M194.6,124.9c-0.1,0.1-0.2,0.1-0.3,0c-0.1-0.1-0.2-0.3-0.1-0.5c0-0.1,0.1-0.1,0.2-0.1c0.2,0.1,0.3,0.2,0.3,0.4
			C194.7,124.8,194.7,124.9,194.6,124.9z M195.2,125.3C195.2,125.3,195.1,125.3,195.2,125.3c-0.1-0.1-0.1-0.1-0.1-0.2
			c0,0,0.1-0.1,0.1-0.1c0,0,0.1,0,0.1,0C195.3,125.2,195.3,125.3,195.2,125.3z M195.6,200.4c-0.1-0.1-0.1-0.1-0.2-0.2
			c0,0,0.1-0.1,0.1-0.1c0.1,0,0.2,0,0.2,0.1c0,0,0,0.1,0,0.1C195.7,200.5,195.7,200.5,195.6,200.4z M196.4,150.2
			C196.4,150.2,196.4,150.2,196.4,150.2c-0.1-0.1-0.1-0.2,0-0.2c0,0,0.1,0,0.1,0C196.5,150.1,196.5,150.2,196.4,150.2z M196.5,124.1
			c0,0.1-0.1,0.2-0.3,0.2c-0.1,0-0.2-0.2-0.1-0.3c0,0,0.1-0.1,0.1-0.1c0.1-0.1,0.1-0.1,0.2,0C196.5,124,196.5,124,196.5,124.1z
			 M200.6,151.6C200.6,151.6,200.6,151.6,200.6,151.6c-0.1-0.2-0.1-0.2,0-0.2c0,0,0.1,0,0.1,0.1c0,0,0,0.1,0,0.1
			C200.7,151.6,200.7,151.6,200.6,151.6z M202.2,169c0,0.1-0.1,0.1-0.2,0c-0.1,0-0.1-0.1-0.1-0.2c0-0.1,0.1-0.2,0.2-0.2
			c0,0,0.1,0,0.1,0.1C202.3,168.8,202.2,168.9,202.2,169z M202.3,155.7c-0.1,0-0.1-0.1-0.1-0.1c0-0.1,0.1-0.1,0.2-0.1
			c0.1,0,0.1,0.1,0.1,0.1C202.4,155.7,202.4,155.7,202.3,155.7z M202.7,153.3c-0.1-0.1-0.3-0.2-0.4-0.3c-0.1-0.1-0.1-0.1-0.1-0.2
			c0,0,0.1,0,0.1,0c0.2,0.1,0.4,0.2,0.6,0.2c0.2,0.2,0.5,0.2,0.7,0.3c0.1,0,0.1,0.1,0.1,0.2c0.1,0.1-0.1,0.3-0.2,0.2
			c-0.1,0-0.3,0-0.4-0.1C203,153.6,202.9,153.4,202.7,153.3z M203.5,166.1c-0.1,0-0.1-0.1-0.1-0.2c0-0.1,0-0.1,0.1-0.2
			c0,0,0.1,0,0.1,0c0.1,0,0.1,0.1,0.1,0.2C203.7,166,203.6,166.1,203.5,166.1z"/>
		<path fill="#F2F2F2" d="M115.8,168.4c-0.1,0.2,0,0.4,0.1,0.6c0,0,0,0,0.1,0.1v-1.4c0,0.1-0.1,0.3-0.1,0.4
			C115.8,168.1,115.8,168.3,115.8,168.4z"/>
		<polygon fill="#F2F2F2" points="107.3,206.5 107.3,206.5 107.3,206.5 		"/>
		<polygon fill="#F2F2F2" points="133.6,127.4 133.6,127.4 133.6,127.4 		"/>
		<path fill="#F2F2F2" d="M171.8,68.2C171.8,68.2,171.8,68.2,171.8,68.2C171.8,68.2,171.8,68.2,171.8,68.2
			C171.8,68.1,171.8,68.2,171.8,68.2z"/>
		<path fill="#F2F2F2" d="M133.4,134.4C133.4,134.4,133.5,134.4,133.4,134.4C133.5,134.4,133.5,134.4,133.4,134.4
			C133.5,134.4,133.5,134.4,133.4,134.4C133.5,134.4,133.5,134.4,133.4,134.4z"/>
		<polygon fill="#F2F2F2" points="86.4,167.9 86.4,167.9 86.4,167.9 		"/>
		<path fill="#F2F2F2" d="M132.9,129.7C132.9,129.7,132.9,129.7,132.9,129.7C132.9,129.6,132.9,129.6,132.9,129.7
			C132.9,129.6,132.9,129.6,132.9,129.7C132.9,129.6,132.9,129.7,132.9,129.7z"/>
		<path fill="#F2F2F2" d="M132,129.6C132,129.5,132,129.5,132,129.6C132,129.5,132,129.5,132,129.6C132,129.5,132,129.5,132,129.6
			C132,129.6,132,129.6,132,129.6z"/>
	</g>
	<g>
		<polygon fill="#F2F2F2" points="11.8,149.7 9.7,138.1 5.9,146.5 2.3,138.1 0,149.7 1.7,149.7 2.8,143.2 5.9,150.1 9.1,143.2 
			10.1,149.7 		"/>
		<polygon fill="#F2F2F2" points="108.6,271.2 103,281.5 104.6,282 107.6,276.2 108.5,283.7 113.6,278 112.6,284.5 114.2,285 
			115.7,273.4 109.6,280.2 		"/>
		<path fill="#F2F2F2" d="M124.5,23.5l1.7-7.4l2.3,6.1l1.6-0.3l-1.6-4.1c-0.1,0-0.3,0-0.4,0c-0.1,0-0.2,0-0.3,0
			c-0.3,0-0.5-0.2-0.5-0.6c0-0.1,0-0.2,0.2-0.3c0.2-0.1,0.4-0.1,0.7-0.2l-2.3-5.8l-2.1,8.9l-5.2-7.4l0.1,11.7l1.6-0.3l-0.1-6.6
			L124.5,23.5z"/>
		<path fill="#F2F2F2" d="M273.2,140.8l-1-1.8h-1.8l0,0c0.4,0.2,0.9,0.4,1.3,0.4c0.1,0,0.1,0,0.2,0.1c0.2,0.1,0.4,0.2,0.6,0.4
			C272.6,140.2,272.9,140.5,273.2,140.8z"/>
		<rect x="285.5" y="138.9" fill="#F2F2F2" width="1.6" height="10.7"/>
		<path fill="#F2F2F2" d="M276.4,138.9l-1.8,3c0.4,0.2,0.8,0.5,1.2,0.9c0,0,0,0,0.1,0l2.4-4H276.4z"/>
		<path fill="#F2F2F2" d="M21,149.7l1.2-6.5l3.1,7l3.2-7l1,6.5h1.7l-2-11.5c0,0,0,0,0,0l-3.8,8.3l-3.7-8.3l-2.3,11.5H21z"/>
		<polygon fill="#F2F2F2" points="182.4,23 179.4,22.3 181.4,13.3 179.9,12.9 177.5,23.4 182.1,24.4 		"/>
		<path fill="#F2F2F2" d="M174.7,287.5l1.7-0.4l0.6-2.8l4.5-1l1.6,2.3l1.7-0.4l-7.4-10L174.7,287.5z M180.6,282l-3.2,0.7l0.9-3.9
			L180.6,282z"/>
		<polygon fill="#F2F2F2" points="194.9,270.9 193.1,271.5 192.1,276.4 188.4,273.1 186.7,273.7 191.9,278.3 193.4,282.7 
			194.9,282.2 193.4,277.8 		"/>
		<path fill="#F2F2F2" d="M167.4,10.2l-6.6,10.7l1.7,0.2l1.5-2.4l4.5,0.6l0.8,2.7l1.8,0.2L167.4,10.2z M164.9,17.2l2.1-3.4l1.1,3.8
			L164.9,17.2z"/>
		<path fill="#F2F2F2" d="M129.5,277c-1.5-0.2-2.9,0.1-4.2,1c-1.3,0.9-2,2.1-2.3,3.6c-0.3,1.7,0.1,3.2,1.1,4.4
			c0.9,1.1,2.1,1.8,3.4,2c1.5,0.2,2.9-0.1,4.2-1c1.3-0.9,2-2.1,2.3-3.6c0.2-1.5-0.1-2.9-1-4.1C132.2,278,131,277.2,129.5,277z
			 M132.5,283.1c-0.2,1.1-0.7,2-1.6,2.6c-0.9,0.6-1.9,0.9-3,0.7c-1-0.2-1.9-0.7-2.5-1.6c-0.7-0.9-0.9-1.9-0.7-3.1
			c0.2-1.1,0.7-2,1.6-2.6c0.9-0.6,1.9-0.9,3-0.7c1.1,0.2,2,0.7,2.6,1.6C132.4,281,132.7,282,132.5,283.1z"/>
		<path fill="#F2F2F2" d="M275.2,144c-0.1-0.1-0.3-0.2-0.4-0.3c-0.6-0.6-1.2-0.9-2-0.9c-0.1,0-0.1,0-0.2,0l0.7,1.2l-3.4,5.6h0.7
			c0.1-0.1,0.2-0.2,0.3-0.3c0,0,0.1-0.1,0.1-0.1c0.2-0.2,0.3-0.4,0.3-0.6c0.1-0.7,0.4-1.2,0.9-1.7c0.3-0.3,0.6-0.4,0.9-0.2
			c0.1,0.1,0.2,0.1,0.3,0.2l0.8-1.4l2.4,4.1h1.8L275.2,144L275.2,144z"/>
		<path fill="#F2F2F2" d="M165.7,279.3c-0.6-0.4-1.2-0.7-1.9-0.9c-0.6-0.2-1.5-0.2-2.6-0.1l-2.2,0.2l1,10.7l2.2-0.2
			c1.1-0.1,1.9-0.3,2.5-0.5c0.6-0.3,1.2-0.7,1.7-1.2c1-1.1,1.5-2.5,1.3-4.1C167.5,281.5,166.9,280.2,165.7,279.3z M165.2,286.2
			c-0.4,0.4-0.8,0.7-1.2,0.9c-0.5,0.2-1.1,0.3-1.8,0.4l-0.7,0.1l-0.7-7.6l0.7-0.1c1.4-0.1,2.4,0.1,3.2,0.7c0.9,0.7,1.3,1.6,1.5,2.7
			C166.2,284.4,165.9,285.4,165.2,286.2z"/>
		<polygon fill="#F2F2F2" points="143.3,20.6 143.2,19.1 138.9,19.4 138.7,15.9 142.8,15.5 142.7,14 138.5,14.4 138.4,11.8 
			142.6,11.5 142.5,9.9 136.6,10.4 137.4,21.1 		"/>
		<polygon fill="#F2F2F2" points="149.5,286.3 142,277.9 141.7,289.4 143.3,289.4 143.5,281.9 151.1,290.3 151.4,278.9 149.7,278.9 
					"/>
		<polygon fill="#F2F2F2" points="156.2,11.4 156.2,9.9 149.7,9.7 149.7,11.3 152.1,11.3 152,20.5 153.6,20.5 153.8,11.3 		"/>
	</g>
</g>
</svg>
